<?xml version="1.0" encoding="UTF-8"?>
<!--Generator: Apple Native CoreSVG 175-->
<!DOCTYPE svg
PUBLIC "-//W3C//DTD SVG 1.1//EN"
       "http://www.w3.org/Graphics/SVG/1.1/DTD/svg11.dtd">
<svg version="1.1" xmlns="http://www.w3.org/2000/svg" xmlns:xlink="http://www.w3.org/1999/xlink" width="3300" height="2200">
 <!--glyph: "uni101152.medium", point size: 100.0, font version: "17.0d12e1", template writer version: "65.1"-->
 <g id="Notes">
  <rect height="2200" id="artboard" style="fill:white;opacity:1" width="3300" x="0" y="0"/>
  <line style="fill:none;stroke:black;opacity:1;stroke-width:0.5;" x1="263" x2="3036" y1="292" y2="292"/>
  <text style="stroke:none;fill:black;font-family:sans-serif;font-size:13;font-weight:bold;" transform="matrix(1 0 0 1 263 322)">Weight/Scale Variations</text>
  <text style="stroke:none;fill:black;font-family:sans-serif;font-size:13;text-anchor:middle;" transform="matrix(1 0 0 1 559.711 322)">Ultralight</text>
  <text style="stroke:none;fill:black;font-family:sans-serif;font-size:13;text-anchor:middle;" transform="matrix(1 0 0 1 856.422 322)">Thin</text>
  <text style="stroke:none;fill:black;font-family:sans-serif;font-size:13;text-anchor:middle;" transform="matrix(1 0 0 1 1153.13 322)">Light</text>
  <text style="stroke:none;fill:black;font-family:sans-serif;font-size:13;text-anchor:middle;" transform="matrix(1 0 0 1 1449.84 322)">Regular</text>
  <text style="stroke:none;fill:black;font-family:sans-serif;font-size:13;text-anchor:middle;" transform="matrix(1 0 0 1 1746.56 322)">Medium</text>
  <text style="stroke:none;fill:black;font-family:sans-serif;font-size:13;text-anchor:middle;" transform="matrix(1 0 0 1 2043.27 322)">Semibold</text>
  <text style="stroke:none;fill:black;font-family:sans-serif;font-size:13;text-anchor:middle;" transform="matrix(1 0 0 1 2339.98 322)">Bold</text>
  <text style="stroke:none;fill:black;font-family:sans-serif;font-size:13;text-anchor:middle;" transform="matrix(1 0 0 1 2636.69 322)">Heavy</text>
  <text style="stroke:none;fill:black;font-family:sans-serif;font-size:13;text-anchor:middle;" transform="matrix(1 0 0 1 2933.4 322)">Black</text>
  <line style="fill:none;stroke:black;opacity:1;stroke-width:0.5;" x1="263" x2="3036" y1="1903" y2="1903"/>
  <g transform="matrix(1 0 0 1 263 1933)">
   <path d="M9.24805 0.830078Q10.8691 0.830078 12.2949 0.214844Q13.7207-0.400391 14.8096-1.49414Q15.8984-2.58789 16.5186-4.01367Q17.1387-5.43945 17.1387-7.05078Q17.1387-8.66211 16.5186-10.0879Q15.8984-11.5137 14.8047-12.6074Q13.7109-13.7012 12.2852-14.3164Q10.8594-14.9316 9.23828-14.9316Q7.62695-14.9316 6.20117-14.3164Q4.77539-13.7012 3.69141-12.6074Q2.60742-11.5137 1.9873-10.0879Q1.36719-8.66211 1.36719-7.05078Q1.36719-5.43945 1.9873-4.01367Q2.60742-2.58789 3.69629-1.49414Q4.78516-0.400391 6.21094 0.214844Q7.63672 0.830078 9.24805 0.830078ZM9.24805-0.654297Q7.91992-0.654297 6.7627-1.14746Q5.60547-1.64062 4.73145-2.51953Q3.85742-3.39844 3.36426-4.56055Q2.87109-5.72266 2.87109-7.05078Q2.87109-8.37891 3.35938-9.54102Q3.84766-10.7031 4.72168-11.582Q5.5957-12.4609 6.75293-12.9541Q7.91016-13.4473 9.23828-13.4473Q10.5762-13.4473 11.7334-12.9541Q12.8906-12.4609 13.7695-11.582Q14.6484-10.7031 15.1465-9.54102Q15.6445-8.37891 15.6445-7.05078Q15.6445-5.72266 15.1514-4.56055Q14.6582-3.39844 13.7842-2.51953Q12.9102-1.64062 11.748-1.14746Q10.5859-0.654297 9.24805-0.654297ZM5.6543-7.05078Q5.6543-6.72852 5.85938-6.52832Q6.06445-6.32812 6.40625-6.32812L8.51562-6.32812L8.51562-4.20898Q8.51562-3.88672 8.71094-3.67676Q8.90625-3.4668 9.23828-3.4668Q9.56055-3.4668 9.77051-3.67676Q9.98047-3.88672 9.98047-4.20898L9.98047-6.32812L12.0898-6.32812Q12.4219-6.32812 12.627-6.52832Q12.832-6.72852 12.832-7.05078Q12.832-7.38281 12.627-7.58789Q12.4219-7.79297 12.0898-7.79297L9.98047-7.79297L9.98047-9.90234Q9.98047-10.2344 9.77051-10.4443Q9.56055-10.6543 9.23828-10.6543Q8.90625-10.6543 8.71094-10.4443Q8.51562-10.2344 8.51562-9.90234L8.51562-7.79297L6.40625-7.79297Q6.06445-7.79297 5.85938-7.58789Q5.6543-7.38281 5.6543-7.05078Z"/>
  </g>
  <g transform="matrix(1 0 0 1 281.867 1933)">
   <path d="M11.709 2.91016Q13.75 2.91016 15.5518 2.12891Q17.3535 1.34766 18.7305-0.0292969Q20.1074-1.40625 20.8887-3.20801Q21.6699-5.00977 21.6699-7.05078Q21.6699-9.0918 20.8887-10.8936Q20.1074-12.6953 18.7305-14.0723Q17.3535-15.4492 15.5469-16.2305Q13.7402-17.0117 11.6992-17.0117Q9.6582-17.0117 7.85645-16.2305Q6.05469-15.4492 4.68262-14.0723Q3.31055-12.6953 2.5293-10.8936Q1.74805-9.0918 1.74805-7.05078Q1.74805-5.00977 2.5293-3.20801Q3.31055-1.40625 4.6875-0.0292969Q6.06445 1.34766 7.86621 2.12891Q9.66797 2.91016 11.709 2.91016ZM11.709 1.25Q9.98047 1.25 8.47656 0.605469Q6.97266-0.0390625 5.83496-1.17676Q4.69727-2.31445 4.05762-3.81836Q3.41797-5.32227 3.41797-7.05078Q3.41797-8.7793 4.05762-10.2832Q4.69727-11.7871 5.83008-12.9297Q6.96289-14.0723 8.4668-14.7119Q9.9707-15.3516 11.6992-15.3516Q13.4277-15.3516 14.9316-14.7119Q16.4355-14.0723 17.5781-12.9297Q18.7207-11.7871 19.3652-10.2832Q20.0098-8.7793 20.0098-7.05078Q20.0098-5.32227 19.3701-3.81836Q18.7305-2.31445 17.5928-1.17676Q16.4551-0.0390625 14.9463 0.605469Q13.4375 1.25 11.709 1.25ZM7.17773-7.05078Q7.17773-6.69922 7.41211-6.47461Q7.64648-6.25 8.01758-6.25L10.8887-6.25L10.8887-3.36914Q10.8887-2.99805 11.1133-2.76855Q11.3379-2.53906 11.6895-2.53906Q12.0605-2.53906 12.29-2.76855Q12.5195-2.99805 12.5195-3.36914L12.5195-6.25L15.4004-6.25Q15.7715-6.25 16.001-6.47461Q16.2305-6.69922 16.2305-7.05078Q16.2305-7.42188 16.001-7.65137Q15.7715-7.88086 15.4004-7.88086L12.5195-7.88086L12.5195-10.752Q12.5195-11.1328 12.29-11.3623Q12.0605-11.5918 11.6895-11.5918Q11.3379-11.5918 11.1133-11.3574Q10.8887-11.123 10.8887-10.752L10.8887-7.88086L8.01758-7.88086Q7.63672-7.88086 7.40723-7.65137Q7.17773-7.42188 7.17773-7.05078Z"/>
  </g>
  <g transform="matrix(1 0 0 1 305.646 1933)">
   <path d="M14.9707 5.66406Q17.0605 5.66406 18.96 5.01465Q20.8594 4.36523 22.4512 3.19336Q24.043 2.02148 25.2197 0.429688Q26.3965-1.16211 27.0459-3.06641Q27.6953-4.9707 27.6953-7.05078Q27.6953-9.14062 27.0459-11.04Q26.3965-12.9395 25.2197-14.5312Q24.043-16.123 22.4512-17.2998Q20.8594-18.4766 18.9551-19.126Q17.0508-19.7754 14.9609-19.7754Q12.8711-19.7754 10.9717-19.126Q9.07227-18.4766 7.48535-17.2998Q5.89844-16.123 4.72168-14.5312Q3.54492-12.9395 2.90039-11.04Q2.25586-9.14062 2.25586-7.05078Q2.25586-4.9707 2.90527-3.06641Q3.55469-1.16211 4.72656 0.429688Q5.89844 2.02148 7.49023 3.19336Q9.08203 4.36523 10.9814 5.01465Q12.8809 5.66406 14.9707 5.66406ZM14.9707 3.84766Q13.1641 3.84766 11.5283 3.2959Q9.89258 2.74414 8.53516 1.74805Q7.17773 0.751953 6.17676-0.610352Q5.17578-1.97266 4.62891-3.6084Q4.08203-5.24414 4.08203-7.05078Q4.08203-8.86719 4.62891-10.5029Q5.17578-12.1387 6.17188-13.501Q7.16797-14.8633 8.52539-15.8594Q9.88281-16.8555 11.5186-17.4023Q13.1543-17.9492 14.9609-17.9492Q16.7773-17.9492 18.4131-17.4023Q20.0488-16.8555 21.4111-15.8594Q22.7734-14.8633 23.7695-13.501Q24.7656-12.1387 25.3174-10.5029Q25.8691-8.86719 25.8691-7.05078Q25.8789-5.24414 25.332-3.6084Q24.7852-1.97266 23.7842-0.610352Q22.7832 0.751953 21.4209 1.74805Q20.0586 2.74414 18.4229 3.2959Q16.7871 3.84766 14.9707 3.84766ZM9.19922-7.05078Q9.19922-6.66992 9.45801-6.4209Q9.7168-6.17188 10.1172-6.17188L14.0625-6.17188L14.0625-2.2168Q14.0625-1.81641 14.3115-1.55762Q14.5605-1.29883 14.9512-1.29883Q15.3516-1.29883 15.6104-1.55273Q15.8691-1.80664 15.8691-2.2168L15.8691-6.17188L19.8242-6.17188Q20.2246-6.17188 20.4785-6.4209Q20.7324-6.66992 20.7324-7.05078Q20.7324-7.46094 20.4785-7.71484Q20.2246-7.96875 19.8242-7.96875L15.8691-7.96875L15.8691-11.9141Q15.8691-12.3242 15.6104-12.583Q15.3516-12.8418 14.9512-12.8418Q14.5605-12.8418 14.3115-12.583Q14.0625-12.3242 14.0625-11.9141L14.0625-7.96875L10.1172-7.96875Q9.70703-7.96875 9.45312-7.71484Q9.19922-7.46094 9.19922-7.05078Z"/>
  </g>
  <text style="stroke:none;fill:black;font-family:sans-serif;font-size:13;font-weight:bold;" transform="matrix(1 0 0 1 263 1953)">Design Variations</text>
  <text style="stroke:none;fill:black;font-family:sans-serif;font-size:13;" transform="matrix(1 0 0 1 263 1971)">Symbols are supported in up to nine weights and three scales.</text>
  <text style="stroke:none;fill:black;font-family:sans-serif;font-size:13;" transform="matrix(1 0 0 1 263 1989)">For optimal layout with text and other symbols, vertically align</text>
  <text style="stroke:none;fill:black;font-family:sans-serif;font-size:13;" transform="matrix(1 0 0 1 263 2007)">symbols with the adjacent text.</text>
  <line style="fill:none;stroke:#00AEEF;stroke-width:0.5;opacity:1.0;" x1="776" x2="776" y1="1919" y2="1933"/>
  <g transform="matrix(1 0 0 1 776 1933)">
   <path d="M3.31055 0.15625Q3.70117 0.15625 3.91602-0.00976562Q4.13086-0.175781 4.26758-0.585938L5.52734-4.0332L11.2891-4.0332L12.5488-0.585938Q12.6855-0.175781 12.9004-0.00976562Q13.1152 0.15625 13.4961 0.15625Q13.8867 0.15625 14.1162-0.0585938Q14.3457-0.273438 14.3457-0.644531Q14.3457-0.869141 14.2383-1.17188L9.6582-13.3691Q9.48242-13.8184 9.17969-14.043Q8.87695-14.2676 8.4082-14.2676Q7.5-14.2676 7.17773-13.3789L2.59766-1.16211Q2.49023-0.859375 2.49023-0.634766Q2.49023-0.263672 2.70996-0.0537109Q2.92969 0.15625 3.31055 0.15625ZM6.00586-5.51758L8.37891-12.0898L8.42773-12.0898L10.8008-5.51758Z"/>
  </g>
  <line style="fill:none;stroke:#00AEEF;stroke-width:0.5;opacity:1.0;" x1="793.197" x2="793.197" y1="1919" y2="1933"/>
  <text style="stroke:none;fill:black;font-family:sans-serif;font-size:13;font-weight:bold;" transform="matrix(1 0 0 1 776 1953)">Margins</text>
  <text style="stroke:none;fill:black;font-family:sans-serif;font-size:13;" transform="matrix(1 0 0 1 776 1971)">Leading and trailing margins on the left and right side of each symbol</text>
  <text style="stroke:none;fill:black;font-family:sans-serif;font-size:13;" transform="matrix(1 0 0 1 776 1989)">can be adjusted by modifying the x-location of the margin guidelines.</text>
  <text style="stroke:none;fill:black;font-family:sans-serif;font-size:13;" transform="matrix(1 0 0 1 776 2007)">Modifications are automatically applied proportionally to all</text>
  <text style="stroke:none;fill:black;font-family:sans-serif;font-size:13;" transform="matrix(1 0 0 1 776 2025)">scales and weights.</text>
  <g transform="matrix(1 0 0 1 1289 1933)">
   <path d="M2.8418 1.86523L4.54102 3.57422Q5.18555 4.22852 5.90332 4.17969Q6.62109 4.13086 7.31445 3.35938L18.0078-8.42773L17.041-9.4043L6.42578 2.27539Q6.16211 2.57812 5.89355 2.61719Q5.625 2.65625 5.27344 2.30469L4.10156 1.14258Q3.75 0.791016 3.79395 0.522461Q3.83789 0.253906 4.14062-0.0195312L15.6152-10.8203L14.6387-11.7871L3.04688-0.898438Q2.30469-0.214844 2.25098 0.498047Q2.19727 1.21094 2.8418 1.86523ZM9.25781-16.3281Q8.94531-16.0254 8.90625-15.6348Q8.86719-15.2441 9.04297-14.9512Q9.21875-14.6777 9.55566-14.541Q9.89258-14.4043 10.3809-14.5215Q11.4746-14.7754 12.5977-14.7314Q13.7207-14.6875 14.7949-13.9844L14.209-12.5293Q13.9551-11.9043 14.0674-11.4404Q14.1797-10.9766 14.5801-10.5664L16.875-8.25195Q17.2363-7.88086 17.5781-7.82227Q17.9199-7.76367 18.3398-7.8418L19.4043-8.03711L20.0684-7.36328L20.0293-6.80664Q20-6.43555 20.1221-6.12305Q20.2441-5.81055 20.6055-5.44922L21.3672-4.70703Q21.7285-4.3457 22.1533-4.33105Q22.5781-4.31641 22.9297-4.66797L25.8398-7.58789Q26.1914-7.93945 26.1816-8.35449Q26.1719-8.76953 25.8105-9.13086L25.0391-9.89258Q24.6875-10.2539 24.3799-10.3857Q24.0723-10.5176 23.7109-10.4883L23.1348-10.4395L22.4902-11.0742L22.7344-12.1973Q22.832-12.6172 22.6953-12.9834Q22.5586-13.3496 22.1191-13.7891L19.9219-15.9766Q18.6719-17.2168 17.2607-17.8369Q15.8496-18.457 14.4189-18.4814Q12.9883-18.5059 11.665-17.959Q10.3418-17.4121 9.25781-16.3281ZM10.752-15.957Q11.6602-16.6211 12.7002-16.9043Q13.7402-17.1875 14.8047-17.085Q15.8691-16.9824 16.8701-16.5137Q17.8711-16.0449 18.7012-15.2051L21.1328-12.793Q21.3086-12.6172 21.3525-12.4512Q21.3965-12.2852 21.3379-12.0312L21.0156-10.5469L22.5195-9.0625L23.5059-9.12109Q23.6914-9.13086 23.7891-9.09668Q23.8867-9.0625 24.0332-8.91602L24.6094-8.33984L22.168-5.89844L21.5918-6.47461Q21.4453-6.62109 21.4062-6.71875Q21.3672-6.81641 21.377-7.01172L21.4453-7.98828L19.9512-9.47266L18.4277-9.21875Q18.1836-9.16992 18.042-9.2041Q17.9004-9.23828 17.7148-9.41406L15.7129-11.416Q15.5176-11.5918 15.4932-11.7529Q15.4688-11.9141 15.5859-12.1875L16.4648-14.2773Q15.293-15.3711 13.8281-15.791Q12.3633-16.2109 10.8398-15.7617Q10.7227-15.7324 10.6885-15.8057Q10.6543-15.8789 10.752-15.957Z"/>
  </g>
  <text style="stroke:none;fill:black;font-family:sans-serif;font-size:13;font-weight:bold;" transform="matrix(1 0 0 1 1289 1953)">Exporting</text>
  <text style="stroke:none;fill:black;font-family:sans-serif;font-size:13;" transform="matrix(1 0 0 1 1289 1971)">Symbols should be outlined when exporting to ensure the</text>
  <text style="stroke:none;fill:black;font-family:sans-serif;font-size:13;" transform="matrix(1 0 0 1 1289 1989)">design is preserved when submitting to Xcode.</text>
  <text id="template-version" style="stroke:none;fill:black;font-family:sans-serif;font-size:13;text-anchor:end;" transform="matrix(1 0 0 1 3036 1933)">Template v.2.0</text>
  <text style="stroke:none;fill:black;font-family:sans-serif;font-size:13;text-anchor:end;" transform="matrix(1 0 0 1 3036 1951)">Requires Xcode 13 or greater</text>
  <text id="descriptive-name" style="stroke:none;fill:black;font-family:sans-serif;font-size:13;text-anchor:end;" transform="matrix(1 0 0 1 3036 1969)">Generated from antenna.radiowaves.left.and.right.slash</text>
  <text style="stroke:none;fill:black;font-family:sans-serif;font-size:13;text-anchor:end;" transform="matrix(1 0 0 1 3036 1987)">Typeset at 100 points</text>
  <text style="stroke:none;fill:black;font-family:sans-serif;font-size:13;" transform="matrix(1 0 0 1 263 726)">Small</text>
  <text style="stroke:none;fill:black;font-family:sans-serif;font-size:13;" transform="matrix(1 0 0 1 263 1156)">Medium</text>
  <text style="stroke:none;fill:black;font-family:sans-serif;font-size:13;" transform="matrix(1 0 0 1 263 1586)">Large</text>
 </g>
 <g id="Guides">
  <g id="H-reference" style="fill:#27AAE1;stroke:none;" transform="matrix(1 0 0 1 339 696)">
   <path d="M0.976562 0L3.66211 0L29.3457-67.1387L30.0293-67.1387L30.0293-70.459L28.125-70.459ZM11.6699-24.4629L46.9727-24.4629L46.2402-26.709L12.4512-26.709ZM55.127 0L57.7637 0L30.6152-70.459L29.4434-70.459L29.4434-67.1387Z"/>
  </g>
  <line id="Baseline-S" style="fill:none;stroke:#27AAE1;opacity:1;stroke-width:0.5;" x1="263" x2="3036" y1="696" y2="696"/>
  <line id="Capline-S" style="fill:none;stroke:#27AAE1;opacity:1;stroke-width:0.5;" x1="263" x2="3036" y1="625.541" y2="625.541"/>
  <g id="H-reference" style="fill:#27AAE1;stroke:none;" transform="matrix(1 0 0 1 339 1126)">
   <path d="M0.976562 0L3.66211 0L29.3457-67.1387L30.0293-67.1387L30.0293-70.459L28.125-70.459ZM11.6699-24.4629L46.9727-24.4629L46.2402-26.709L12.4512-26.709ZM55.127 0L57.7637 0L30.6152-70.459L29.4434-70.459L29.4434-67.1387Z"/>
  </g>
  <line id="Baseline-M" style="fill:none;stroke:#27AAE1;opacity:1;stroke-width:0.5;" x1="263" x2="3036" y1="1126" y2="1126"/>
  <line id="Capline-M" style="fill:none;stroke:#27AAE1;opacity:1;stroke-width:0.5;" x1="263" x2="3036" y1="1055.54" y2="1055.54"/>
  <g id="H-reference" style="fill:#27AAE1;stroke:none;" transform="matrix(1 0 0 1 339 1556)">
   <path d="M0.976562 0L3.66211 0L29.3457-67.1387L30.0293-67.1387L30.0293-70.459L28.125-70.459ZM11.6699-24.4629L46.9727-24.4629L46.2402-26.709L12.4512-26.709ZM55.127 0L57.7637 0L30.6152-70.459L29.4434-70.459L29.4434-67.1387Z"/>
  </g>
  <line id="Baseline-L" style="fill:none;stroke:#27AAE1;opacity:1;stroke-width:0.5;" x1="263" x2="3036" y1="1556" y2="1556"/>
  <line id="Capline-L" style="fill:none;stroke:#27AAE1;opacity:1;stroke-width:0.5;" x1="263" x2="3036" y1="1485.54" y2="1485.54"/>
  <line id="left-margin" style="fill:none;stroke:#00AEEF;stroke-width:0.5;opacity:1.0;" x1="1389.27" x2="1389.27" y1="1030.79" y2="1150.12"/>
  <line id="right-margin" style="fill:none;stroke:#00AEEF;stroke-width:0.5;opacity:1.0;" x1="1510.42" x2="1510.42" y1="1030.79" y2="1150.12"/>
 </g>
 <g id="Symbols">
  <g id="Black-L" transform="matrix(1 0 0 1 2846.22 1556)">
   <path d="M40.4297-3.02734Q42.5781-5.66406 42.041-8.64258Q41.5039-11.6211 39.209-14.1602Q33.3496-20.7031 30.2979-29.6875Q27.2461-38.6719 27.2461-48.7305Q27.2461-56.7871 29.1992-64.1602Q31.1523-71.5332 34.8633-77.5879L23.291-89.1113Q17.5781-81.2012 14.4287-70.6055Q11.2793-60.0098 11.2793-48.7305Q11.2793-35.5469 15.3076-23.6572Q19.3359-11.7676 27.3926-3.36914Q30.7617 0.146484 34.4238-0.0244141Q38.0859-0.195312 40.4297-3.02734ZM61.1328-22.6074Q63.0859-25.1465 62.6953-28.0273Q62.3047-30.9082 60.4004-33.5938Q58.5449-36.1816 57.251-40.4541Q55.957-44.7266 55.957-48.7305Q55.957-50.3906 56.2012-52.124Q56.4453-53.8574 56.8359-55.6152L44.1406-68.2617Q42.0898-64.1113 41.04-59.082Q39.9902-54.0527 39.9902-48.7305Q39.9902-41.1133 42.1143-34.2529Q44.2383-27.3926 48.3398-22.9004Q51.3672-19.6289 55.1514-19.7021Q58.9355-19.7754 61.1328-22.6074ZM87.207 26.5137Q90.7715 26.5137 92.8711 24.1455Q94.9707 21.7773 94.9707 17.8223L94.9707-17.4805L79.4434-33.0078L79.4434 17.8223Q79.4434 21.6309 81.6162 24.0723Q83.7891 26.5137 87.207 26.5137ZM129.053-27.1973Q131.689-31.3477 133.057-36.9873Q134.424-42.627 134.424-48.7305Q134.424-56.3477 132.275-63.208Q130.127-70.0684 126.074-74.6094Q122.998-77.832 119.214-77.7832Q115.43-77.7344 113.232-74.8535Q111.328-72.3145 111.719-69.4336Q112.109-66.5527 113.965-63.916Q115.869-61.2793 117.163-57.0068Q118.457-52.7344 118.457-48.7305Q118.457-46.5332 117.969-44.0918Q117.48-41.6504 116.748-39.4531ZM149.658-6.54297Q156.396-14.6973 159.741-25.6836Q163.086-36.6699 163.086-48.7305Q163.086-57.4707 161.206-65.8691Q159.326-74.2676 155.713-81.5186Q152.1-88.7695 147.021-94.043Q143.604-97.5586 139.941-97.3877Q136.279-97.2168 133.984-94.3848Q131.787-91.748 132.324-88.7939Q132.861-85.8398 135.205-83.252Q141.016-76.7578 144.092-67.7979Q147.168-58.8379 147.168-48.7305Q147.168-39.9902 144.946-32.0801Q142.725-24.1699 138.184-18.0176ZM138.721 12.5Q140.479 14.209 142.871 14.1602Q145.264 14.1113 146.875 12.5Q148.584 10.791 148.535 8.47168Q148.486 6.15234 146.875 4.49219L32.5195-109.814Q30.7617-111.523 28.3447-111.548Q25.9277-111.572 24.3164-109.912Q22.6562-108.301 22.6807-105.835Q22.7051-103.369 24.3164-101.807Z"/>
  </g>
  <g id="Heavy-L" transform="matrix(1 0 0 1 2552.05 1556)">
   <path d="M39.0137-4.00391Q40.9668-6.39648 40.4785-9.08203Q39.9902-11.7676 37.8906-14.1113Q31.8848-20.752 28.7109-29.7852Q25.5371-38.8184 25.5371-48.9258Q25.5371-57.1289 27.6367-64.5996Q29.7363-72.0703 33.6426-78.2227L23.3398-88.5254Q17.5781-80.6641 14.4287-70.3369Q11.2793-60.0098 11.2793-48.9258Q11.2793-35.9863 15.3809-24.3652Q19.4824-12.7441 27.4414-4.3457Q30.3711-1.26953 33.6426-1.3916Q36.9141-1.51367 39.0137-4.00391ZM59.1797-23.1934Q60.9863-25.4395 60.5957-28.0518Q60.2051-30.6641 58.4473-33.1543Q56.2988-35.9375 54.9561-40.3076Q53.6133-44.6777 53.6133-48.9258Q53.6133-50.9766 53.9795-52.9785Q54.3457-54.9805 54.9316-56.9824L43.6523-68.2129Q41.5527-64.0625 40.4541-59.1064Q39.3555-54.1504 39.3555-48.9258Q39.3555-41.5039 41.5039-34.79Q43.6523-28.0762 47.8027-23.4863Q50.4395-20.5566 53.8086-20.6055Q57.1777-20.6543 59.1797-23.1934ZM84.668 25.4883Q87.8418 25.4883 89.6973 23.3887Q91.5527 21.2891 91.5527 17.7734L91.5527-20.3613L77.7832-34.1309L77.7832 17.7734Q77.7832 21.1426 79.7119 23.3154Q81.6406 25.4883 84.668 25.4883ZM124.854-28.3691Q127.344-32.4707 128.662-37.8174Q129.98-43.1641 129.98-48.9258Q129.98-56.3477 127.808-63.0615Q125.635-69.7754 121.533-74.4141Q118.848-77.2949 115.479-77.2705Q112.109-77.2461 110.107-74.6582Q108.35-72.4121 108.74-69.7998Q109.131-67.1875 110.84-64.7461Q112.988-61.8652 114.355-57.5195Q115.723-53.1738 115.723-48.9258Q115.723-46.582 115.21-44.0674Q114.697-41.5527 113.867-39.3066ZM145.02-8.1543Q151.465-16.2109 154.736-26.7822Q158.008-37.3535 158.008-48.9258Q158.008-57.5195 156.128-65.6982Q154.248-73.877 150.61-81.0059Q146.973-88.1348 141.895-93.457Q138.916-96.582 135.645-96.46Q132.373-96.3379 130.322-93.7988Q128.32-91.4551 128.809-88.7695Q129.297-86.084 131.445-83.7402Q137.402-77.0996 140.601-68.0908Q143.799-59.082 143.799-48.9258Q143.799-40.2832 141.528-32.4463Q139.258-24.6094 134.766-18.4082ZM137.256 12.3047Q138.867 13.8672 141.113 13.8428Q143.359 13.8184 144.873 12.3047Q146.436 10.6934 146.411 8.52051Q146.387 6.34766 144.873 4.78516L30.7129-109.326Q29.1016-110.938 26.8311-110.938Q24.5605-110.938 23.0469-109.424Q21.4844-107.91 21.5088-105.615Q21.5332-103.32 23.0469-101.807Z"/>
  </g>
  <g id="Bold-L" transform="matrix(1 0 0 1 2258.17 1556)">
   <path d="M37.4512-5.12695Q39.1602-7.17773 38.7451-9.57031Q38.3301-11.9629 36.4746-14.0137Q30.2734-20.8496 26.9531-29.9072Q23.6328-38.9648 23.6328-49.1699Q23.6328-57.5195 25.8789-65.1123Q28.125-72.7051 32.3242-79.0039L23.4375-87.8906Q17.627-80.0781 14.4531-70.0439Q11.2793-60.0098 11.2793-49.1699Q11.2793-36.5234 15.4541-25.1709Q19.6289-13.8184 27.5391-5.41992Q29.9805-2.83203 32.8125-2.90527Q35.6445-2.97852 37.4512-5.12695ZM57.0312-23.8281Q58.6426-25.8301 58.2764-28.125Q57.9102-30.4199 56.2988-32.6172Q53.8086-35.6934 52.3926-40.1367Q50.9766-44.5801 50.9766-49.1699Q50.9766-51.6113 51.4893-53.9307Q52.002-56.25 52.832-58.4961L43.1641-68.1641Q40.918-64.0137 39.7705-59.1553Q38.623-54.2969 38.623-49.1699Q38.623-41.9434 40.8447-35.4004Q43.0664-28.8574 47.168-24.1211Q49.4141-21.582 52.3438-21.6064Q55.2734-21.6309 57.0312-23.8281ZM81.8359 24.3652Q84.5703 24.3652 86.1816 22.5586Q87.793 20.752 87.793 17.7246L87.793-23.5352L75.8789-35.4492L75.8789 17.7246Q75.8789 20.6543 77.5391 22.5098Q79.1992 24.3652 81.8359 24.3652ZM120.166-29.6875Q122.559-33.6914 123.804-38.7207Q125.049-43.75 125.049-49.1699Q125.049-56.3965 122.827-62.9395Q120.605-69.4824 116.504-74.2188Q114.258-76.709 111.328-76.709Q108.398-76.709 106.641-74.5117Q105.029-72.5098 105.42-70.2148Q105.811-67.9199 107.373-65.7227Q109.766-62.5488 111.23-58.1299Q112.695-53.7109 112.695-49.1699Q112.695-46.6309 112.158-44.043Q111.621-41.4551 110.645-39.1602ZM139.844-9.96094Q145.996-17.8711 149.17-27.9785Q152.344-38.0859 152.344-49.1699Q152.344-57.5684 150.464-65.5273Q148.584-73.4863 144.922-80.4688Q141.26-87.4512 136.133-92.8711Q133.643-95.459 130.835-95.3857Q128.027-95.3125 126.221-93.1641Q124.512-91.1133 124.927-88.7451Q125.342-86.377 127.197-84.2773Q133.398-77.4902 136.719-68.4326Q140.039-59.375 140.039-49.1699Q140.039-40.625 137.72-32.8857Q135.4-25.1465 130.957-18.8965ZM135.645 12.0605Q137.109 13.5254 139.185 13.501Q141.26 13.4766 142.627 12.0605Q144.092 10.5957 144.067 8.56934Q144.043 6.54297 142.627 5.12695L28.7598-108.789Q27.2461-110.254 25.1709-110.278Q23.0957-110.303 21.6797-108.838Q20.2637-107.471 20.2637-105.347Q20.2637-103.223 21.6797-101.855Z"/>
  </g>
  <g id="Semibold-L" transform="matrix(1 0 0 1 1963.41 1556)">
   <path d="M36.377-5.9082Q37.9395-7.71484 37.5488-9.8877Q37.1582-12.0605 35.4492-13.9648Q29.1016-20.8496 25.708-29.9561Q22.3145-39.0625 22.3145-49.3164Q22.3145-57.7637 24.6582-65.4541Q27.002-73.1445 31.3965-79.4922L23.4375-87.4023Q17.627-79.6387 14.4531-69.7998Q11.2793-59.9609 11.2793-49.3164Q11.2793-36.8652 15.5029-25.708Q19.7266-14.5508 27.5879-6.15234Q29.6875-3.90625 32.2021-3.93066Q34.7168-3.95508 36.377-5.9082ZM55.5176-24.2188Q56.9824-26.0254 56.6406-28.125Q56.2988-30.2246 54.7852-32.2754Q52.0996-35.498 50.6348-40.0146Q49.1699-44.5312 49.1699-49.3164Q49.1699-52.002 49.7559-54.5654Q50.3418-57.1289 51.3672-59.5215L42.7734-68.1152Q40.4785-63.9648 39.3066-59.1797Q38.1348-54.3945 38.1348-49.3164Q38.1348-42.2363 40.3809-35.791Q42.627-29.3457 46.7285-24.5605Q48.6816-22.3145 51.2939-22.3145Q53.9062-22.3145 55.5176-24.2188ZM79.8828 23.584Q82.3242 23.584 83.7402 21.9727Q85.1562 20.3613 85.1562 17.6758L85.1562-25.7324L74.5605-36.3281L74.5605 17.6758Q74.5605 20.2637 76.0498 21.9238Q77.5391 23.584 79.8828 23.584ZM116.895-30.5664Q119.189-34.5215 120.41-39.3311Q121.631-44.1406 121.631-49.3164Q121.631-56.3965 119.385-62.8174Q117.139-69.2383 113.037-74.0234Q111.035-76.3184 108.447-76.3184Q105.859-76.3184 104.199-74.3652Q102.734-72.5586 103.101-70.4834Q103.467-68.4082 104.932-66.3574Q107.52-62.9883 109.033-58.5205Q110.547-54.0527 110.547-49.3164Q110.547-46.6309 110.01-44.0186Q109.473-41.4062 108.398-39.0625ZM136.279-11.1816Q142.188-19.043 145.312-28.833Q148.438-38.623 148.438-49.3164Q148.438-57.5684 146.533-65.3809Q144.629-73.1934 140.967-80.0537Q137.305-86.9141 132.178-92.4316Q130.029-94.6777 127.515-94.6533Q125-94.6289 123.389-92.6758Q121.826-90.8691 122.192-88.7207Q122.559-86.5723 124.268-84.6191Q130.615-77.7344 134.009-68.6523Q137.402-59.5703 137.402-49.3164Q137.402-40.8203 135.059-33.1543Q132.715-25.4883 128.271-19.1895ZM134.473 11.8652Q135.84 13.2324 137.793 13.2324Q139.746 13.2324 141.064 11.8652Q142.432 10.498 142.407 8.59375Q142.383 6.68945 141.064 5.32227L27.3438-108.398Q25.9277-109.814 23.9746-109.814Q22.0215-109.814 20.6543-108.447Q19.3359-107.129 19.3359-105.151Q19.3359-103.174 20.6543-101.855Z"/>
  </g>
  <g id="Medium-L" transform="matrix(1 0 0 1 1668.19 1556)">
   <path d="M35.5469-6.49414Q36.9629-8.1543 36.6211-10.1562Q36.2793-12.1582 34.668-13.916Q28.2715-20.8984 24.8047-30.0049Q21.3379-39.1113 21.3379-49.4141Q21.3379-58.0078 23.7549-65.7227Q26.1719-73.4375 30.7129-79.8828L23.4863-87.0605Q17.6758-79.2969 14.4775-69.6289Q11.2793-59.9609 11.2793-49.4141Q11.2793-37.1094 15.5273-26.0986Q19.7754-15.0879 27.6367-6.73828Q29.4922-4.73633 31.7627-4.73633Q34.0332-4.73633 35.5469-6.49414ZM54.3457-24.5605Q55.7617-26.2207 55.4199-28.1738Q55.0781-30.127 53.6133-31.9824Q50.7812-35.4004 49.292-39.9414Q47.8027-44.4824 47.8027-49.4141Q47.8027-52.3438 48.4619-55.0537Q49.1211-57.7637 50.293-60.3027L42.4805-68.0664Q40.1855-63.9648 38.9648-59.2041Q37.7441-54.4434 37.7441-49.4141Q37.7441-42.4316 40.0146-36.084Q42.2852-29.7363 46.4355-24.9023Q48.1445-22.8516 50.5127-22.8271Q52.8809-22.8027 54.3457-24.5605ZM78.418 22.998Q80.6152 22.998 81.8848 21.5332Q83.1543 20.0684 83.1543 17.627L83.1543-27.3926L73.584-36.9629L73.584 17.627Q73.584 19.9707 74.9268 21.4844Q76.2695 22.998 78.418 22.998ZM114.453-31.25Q116.65-35.2051 117.847-39.8438Q119.043-44.4824 119.043-49.4141Q119.043-56.3965 116.772-62.7197Q114.502-69.043 110.4-73.9258Q108.643-75.9766 106.274-76.001Q103.906-76.0254 102.393-74.2676Q100.977-72.6562 101.367-70.7031Q101.758-68.75 103.125-66.8457Q105.859-63.3301 107.422-58.8379Q108.984-54.3457 108.984-49.4141Q108.984-46.6309 108.398-43.9697Q107.812-41.3086 106.689-38.9648ZM133.545-12.1094Q139.307-19.9219 142.383-29.4678Q145.459-39.0137 145.459-49.4141Q145.459-57.5684 143.555-65.2832Q141.65-72.998 137.988-79.7852Q134.326-86.5723 129.15-92.0898Q127.246-94.0918 124.976-94.0918Q122.705-94.0918 121.24-92.334Q119.824-90.7227 120.166-88.7207Q120.508-86.7188 122.07-84.9121Q128.467-77.9297 131.958-68.8232Q135.449-59.7168 135.449-49.4141Q135.449-41.0156 133.081-33.374Q130.713-25.7324 126.27-19.4336ZM133.594 11.7188Q134.912 13.0371 136.743 13.0371Q138.574 13.0371 139.844 11.7188Q141.162 10.4492 141.138 8.61816Q141.113 6.78711 139.844 5.51758L26.2695-108.154Q24.9512-109.424 23.0957-109.448Q21.2402-109.473 19.873-108.154Q18.6523-106.885 18.6523-105.005Q18.6523-103.125 19.873-101.855Z"/>
  </g>
  <g id="Regular-L" transform="matrix(1 0 0 1 1373.4 1556)">
   <path d="M34.4727-7.22656Q35.7422-8.69141 35.4492-10.4736Q35.1562-12.2559 33.6914-13.8672Q27.1484-20.9473 23.584-30.0781Q20.0195-39.209 20.0195-49.5605Q20.0195-58.252 22.5586-66.0645Q25.0977-73.877 29.7852-80.3711L23.5352-86.6211Q17.6758-78.9062 14.4775-69.4336Q11.2793-59.9609 11.2793-49.5605Q11.2793-37.4512 15.5762-26.6357Q19.873-15.8203 27.6855-7.4707Q29.1992-5.81055 31.1768-5.76172Q33.1543-5.71289 34.4727-7.22656ZM52.8809-25Q54.1504-26.4648 53.8086-28.1982Q53.4668-29.9316 52.1484-31.6406Q49.0723-35.2051 47.5342-39.8193Q45.9961-44.4336 45.9961-49.5605Q45.9961-52.7832 46.7529-55.7129Q47.5098-58.6426 48.8281-61.3281L42.1387-68.0176Q39.7461-63.916 38.501-59.2285Q37.2559-54.541 37.2559-49.5605Q37.2559-42.7246 39.5508-36.499Q41.8457-30.2734 45.9961-25.3418Q47.4121-23.5352 49.4873-23.5107Q51.5625-23.4863 52.8809-25ZM76.4648 22.2168Q78.3691 22.2168 79.4678 20.9473Q80.5664 19.6777 80.5664 17.5781L80.5664-29.5898L72.3145-37.8418L72.3145 17.5781Q72.3145 19.6289 73.4619 20.9229Q74.6094 22.2168 76.4648 22.2168ZM111.23-32.1289Q113.379-36.0352 114.526-40.4541Q115.674-44.873 115.674-49.5605Q115.674-56.3965 113.379-62.6221Q111.084-68.8477 106.934-73.7793Q105.469-75.5859 103.418-75.6104Q101.367-75.6348 100-74.1211Q98.7305-72.7051 99.0967-70.9717Q99.4629-69.2383 100.732-67.4805Q103.662-63.7695 105.273-59.2285Q106.885-54.6875 106.885-49.5605Q106.885-46.6797 106.299-43.9697Q105.713-41.2598 104.492-38.8672ZM130.029-13.3301Q135.547-21.0449 138.574-30.2734Q141.602-39.502 141.602-49.5605Q141.602-57.6172 139.697-65.1611Q137.793-72.7051 134.106-79.3945Q130.42-86.084 125.244-91.6504Q123.682-93.3594 121.704-93.3838Q119.727-93.4082 118.457-91.8945Q117.188-90.4785 117.48-88.6963Q117.773-86.9141 119.189-85.2539Q125.732-78.1738 129.297-69.043Q132.861-59.9121 132.861-49.5605Q132.861-41.2109 130.469-33.6426Q128.076-26.0742 123.682-19.7266ZM132.471 11.5723Q133.691 12.793 135.425 12.793Q137.158 12.793 138.33 11.5723Q139.551 10.3516 139.551 8.64258Q139.551 6.93359 138.33 5.71289L24.9023-107.764Q23.6816-108.984 21.9482-108.984Q20.2148-108.984 18.9453-107.764Q17.7734-106.592 17.7734-104.834Q17.7734-103.076 18.9453-101.855Z"/>
  </g>
  <g id="Light-L" transform="matrix(1 0 0 1 1079.01 1556)">
   <path d="M32.9102-8.44727Q33.8379-9.57031 33.6182-10.9375Q33.3984-12.3047 32.2754-13.4766Q25.4883-20.6055 21.7285-29.8828Q17.9688-39.1602 17.9688-49.7559Q17.9688-58.8867 20.8008-67.0166Q23.6328-75.1465 28.7598-81.7871L24.0234-86.5234Q17.9688-78.9551 14.624-69.5557Q11.2793-60.1562 11.2793-49.7559Q11.2793-37.8418 15.625-27.2705Q19.9707-16.6992 27.7344-8.59375Q28.8574-7.37305 30.3711-7.34863Q31.8848-7.32422 32.9102-8.44727ZM50.6348-25.9766Q51.6113-27.0996 51.3428-28.4424Q51.0742-29.7852 50.0488-31.0059Q46.582-34.6191 44.8975-39.4775Q43.2129-44.3359 43.2129-49.7559Q43.2129-53.5645 44.2383-57.0068Q45.2637-60.4492 47.0703-63.4766L41.9922-68.5547Q39.3066-64.4531 37.915-59.668Q36.5234-54.8828 36.5234-49.7559Q36.5234-43.0176 38.8428-36.9629Q41.1621-30.9082 45.4102-26.1719Q46.4844-24.8535 48.0713-24.8535Q49.6582-24.8535 50.6348-25.9766ZM74.1211 21.4355Q75.5859 21.4355 76.4404 20.4346Q77.2949 19.4336 77.2949 17.8711L77.2949-33.252L70.9473-39.5996L70.9473 17.8711Q70.9473 19.4336 71.8262 20.4346Q72.7051 21.4355 74.1211 21.4355ZM106.592-31.5918Q109.082-35.5957 110.4-40.21Q111.719-44.8242 111.719-49.7559Q111.719-56.4453 109.399-62.5244Q107.08-68.6035 102.881-73.291Q101.758-74.6094 100.195-74.6338Q98.6328-74.6582 97.5586-73.5352Q96.6309-72.4609 96.9238-71.1182Q97.2168-69.7754 98.1445-68.457Q101.367-64.6484 103.198-59.9121Q105.029-55.1758 105.029-49.7559Q105.029-46.1426 104.175-42.7979Q103.32-39.4531 101.562-36.6211ZM124.707-13.4766Q130.469-21.0938 133.716-30.3467Q136.963-39.5996 136.963-49.7559Q136.963-57.666 135.034-65.0635Q133.105-72.4609 129.395-78.9795Q125.684-85.498 120.557-90.918Q119.385-92.1875 117.871-92.1875Q116.357-92.1875 115.381-91.0645Q114.404-89.9902 114.648-88.623Q114.893-87.2559 115.967-86.0352Q122.754-78.9062 126.514-69.6289Q130.273-60.3516 130.273-49.7559Q130.273-40.8691 127.563-32.8857Q124.854-24.9023 119.873-18.3594ZM131.445 11.6699Q132.422 12.5977 133.765 12.5977Q135.107 12.5977 135.986 11.6699Q136.963 10.6934 136.963 9.375Q136.963 8.05664 135.986 7.12891L21.9727-106.982Q21.0449-107.91 19.7021-107.935Q18.3594-107.959 17.3828-106.982Q16.4551-106.055 16.4551-104.712Q16.4551-103.369 17.3828-102.393Z"/>
  </g>
  <g id="Thin-L" transform="matrix(1 0 0 1 785.402 1556)">
   <path d="M30.8105-10.0586Q31.3477-10.6934 31.2012-11.499Q31.0547-12.3047 30.4199-12.9395Q23.291-20.166 19.2383-29.6387Q15.1855-39.1113 15.1855-50Q15.1855-59.7168 18.4082-68.2617Q21.6309-76.8066 27.3926-83.6914L24.6094-86.4258Q18.3594-79.0527 14.8193-69.7266Q11.2793-60.4004 11.2793-50Q11.2793-38.3301 15.6738-28.1006Q20.0684-17.8711 27.7344-10.1074Q28.418-9.42383 29.3213-9.42383Q30.2246-9.42383 30.8105-10.0586ZM47.6562-27.2949Q48.1934-27.9297 48.0713-28.7354Q47.9492-29.541 47.3145-30.1758Q43.3594-33.7891 41.4551-38.9893Q39.5508-44.1895 39.5508-50Q39.5508-54.5898 40.9424-58.6914Q42.334-62.793 44.7266-66.3574L41.8457-69.2383Q38.7695-65.2344 37.1582-60.3027Q35.5469-55.3711 35.5469-50Q35.5469-43.4082 37.915-37.5732Q40.2832-31.7383 44.6289-27.2949Q45.2637-26.6113 46.1914-26.6113Q47.1191-26.6113 47.6562-27.2949ZM71.0449 20.3613Q71.9238 20.3613 72.4365 19.751Q72.9492 19.1406 72.9492 18.2129L72.9492-38.0859L69.0918-41.9434L69.0918 18.2129Q69.0918 19.1406 69.6289 19.751Q70.166 20.3613 71.0449 20.3613ZM100.391-30.957Q103.369-34.9609 104.932-39.8438Q106.494-44.7266 106.494-50Q106.494-56.543 104.15-62.4023Q101.807-68.2617 97.4609-72.6562Q96.8262-73.3887 95.9229-73.3887Q95.0195-73.3887 94.3848-72.7051Q93.8477-72.1191 94.0186-71.3379Q94.1895-70.5566 94.7754-69.8242Q98.291-65.7715 100.415-60.791Q102.539-55.8105 102.539-50Q102.539-45.5078 101.367-41.2842Q100.195-37.0605 97.7051-33.6426ZM117.627-13.7207Q123.828-21.1426 127.319-30.4199Q130.811-39.6973 130.811-50Q130.811-57.7637 128.833-64.9414Q126.855-72.1191 123.145-78.418Q119.434-84.7168 114.355-89.8926Q113.672-90.5762 112.769-90.5762Q111.865-90.5762 111.279-89.9414Q110.742-89.3066 110.889-88.501Q111.035-87.6953 111.67-87.0605Q118.799-79.834 122.827-70.3613Q126.855-60.8887 126.855-50Q126.855-40.3809 123.706-31.8848Q120.557-23.3887 114.844-16.5039ZM130.127 11.7676Q130.713 12.3535 131.543 12.3535Q132.373 12.3535 132.91 11.7676Q133.545 11.1328 133.521 10.3271Q133.496 9.52148 132.91 8.93555L18.0664-105.908Q17.5293-106.445 16.7236-106.494Q15.918-106.543 15.2832-105.908Q14.6973-105.371 14.6973-104.541Q14.6973-103.711 15.2832-103.125Z"/>
  </g>
  <g id="Ultralight-L" transform="matrix(1 0 0 1 490.253 1556)">
   <path d="M29.7363-10.8887Q30.0781-11.2793 29.9561-11.8164Q29.834-12.3535 29.4922-12.6953Q22.168-19.9707 17.9932-29.5166Q13.8184-39.0625 13.8184-50.0977Q13.8184-60.1074 17.2363-68.8721Q20.6543-77.6367 26.709-84.6191L24.9512-86.377Q18.5547-79.1016 14.917-69.8242Q11.2793-60.5469 11.2793-50.0977Q11.2793-38.5742 15.7227-28.5156Q20.166-18.457 27.7832-10.8887Q28.2227-10.498 28.7842-10.498Q29.3457-10.498 29.7363-10.8887ZM46.1426-27.9297Q46.4844-28.3203 46.4111-28.8818Q46.3379-29.4434 45.8984-29.7852Q41.6504-33.3984 39.6484-38.7451Q37.6465-44.0918 37.6465-50.0977Q37.6465-55.127 39.2334-59.5703Q40.8203-64.0137 43.5059-67.8223L41.748-69.6289Q38.4766-65.5762 36.7676-60.5957Q35.0586-55.6152 35.0586-50.0977Q35.0586-43.6523 37.4512-37.915Q39.8438-32.1777 44.2383-27.8809Q44.6289-27.5391 45.2148-27.5391Q45.8008-27.5391 46.1426-27.9297ZM69.4824 19.8242Q70.0684 19.8242 70.4102 19.4092Q70.752 18.9941 70.752 18.4082L70.752-40.5762L68.1641-43.1641L68.1641 18.4082Q68.1641 18.9941 68.5303 19.4092Q68.8965 19.8242 69.4824 19.8242ZM97.2656-30.5664Q100.439-34.668 102.124-39.6729Q103.809-44.6777 103.809-50.0977Q103.809-56.5918 101.44-62.3291Q99.0723-68.0664 94.7266-72.3145Q94.2871-72.7051 93.7256-72.7051Q93.1641-72.7051 92.7246-72.3145Q92.4316-71.9238 92.5537-71.4111Q92.6758-70.8984 93.0176-70.459Q96.7285-66.3574 99.0234-61.2549Q101.318-56.1523 101.318-50.0977Q101.318-45.1172 99.9512-40.4541Q98.584-35.791 95.752-32.0801ZM114.014-13.8184Q120.361-21.1914 123.999-30.4688Q127.637-39.7461 127.637-50.0977Q127.637-57.8125 125.659-64.8682Q123.682-71.9238 119.971-78.125Q116.26-84.3262 111.182-89.4043Q110.742-89.7949 110.156-89.7949Q109.57-89.7949 109.18-89.3555Q108.887-88.9648 108.984-88.4277Q109.082-87.8906 109.473-87.5488Q116.797-80.3223 120.947-70.752Q125.098-61.1816 125.098-50.0977Q125.098-40.1855 121.729-31.3965Q118.359-22.6074 112.256-15.5762ZM129.395 11.8164Q129.834 12.207 130.371 12.207Q130.908 12.207 131.299 11.8164Q131.787 11.3281 131.763 10.8154Q131.738 10.3027 131.299 9.91211L16.0156-105.371Q15.7227-105.713 15.1611-105.786Q14.5996-105.859 14.1602-105.371Q13.7695-104.98 13.7695-104.443Q13.7695-103.906 14.1602-103.467Z"/>
  </g>
  <g id="Black-M" transform="matrix(1 0 0 1 2864.45 1126)">
   <path d="M31.9824-9.86328Q33.7402-11.9629 33.3008-14.3799Q32.8613-16.7969 31.0059-18.8477Q26.5137-23.7793 24.1943-30.7617Q21.875-37.7441 21.875-45.6055Q21.875-51.8555 23.3643-57.5928Q24.8535-63.3301 27.6855-67.9688L18.1641-77.4902Q13.6719-71.3379 11.2061-62.915Q8.74023-54.4922 8.74023-45.6055Q8.74023-35.2051 11.8164-25.8789Q14.8926-16.5527 21.1426-10.1074Q24.0234-7.17773 27.0508-7.32422Q30.0781-7.4707 31.9824-9.86328ZM48.291-25.293Q49.8047-27.3438 49.5361-29.6875Q49.2676-32.0312 47.7539-34.1309Q46.4355-35.9863 45.4346-39.3066Q44.4336-42.627 44.4336-45.6055Q44.4336-46.7773 44.6045-48.0469Q44.7754-49.3164 45.0684-50.5859L34.5703-61.084Q32.959-57.8125 32.1289-53.833Q31.2988-49.8535 31.2988-45.6055Q31.2988-39.5508 32.9346-34.1797Q34.5703-28.8086 37.7441-25.4395Q40.2832-22.8027 43.4082-22.876Q46.5332-22.9492 48.291-25.293ZM68.9453 13.2324Q71.9238 13.2324 73.6572 11.2793Q75.3906 9.32617 75.3906 6.00586L75.3906-20.2637L62.5488-33.1055L62.5488 6.00586Q62.5488 9.17969 64.3311 11.2061Q66.1133 13.2324 68.9453 13.2324ZM102.002-27.832Q104.297-31.1523 105.469-35.8154Q106.641-40.4785 106.641-45.6055Q106.641-51.6113 105.005-57.0068Q103.369-62.4023 100.195-65.7227Q97.6074-68.4082 94.4824-68.335Q91.3574-68.2617 89.5996-65.8691Q88.0859-63.8184 88.3789-61.4746Q88.6719-59.1309 90.1367-57.0801Q91.4551-55.2246 92.4805-51.8799Q93.5059-48.5352 93.5059-45.6055Q93.5059-43.75 93.0664-41.7236Q92.627-39.6973 91.9434-37.8418ZM118.164-11.6699Q123.73-18.0664 126.44-26.9287Q129.15-35.791 129.15-45.6055Q129.15-52.4902 127.686-59.1064Q126.221-65.7227 123.438-71.3867Q120.654-77.0508 116.748-81.0547Q113.867-83.9844 110.84-83.8135Q107.812-83.6426 105.908-81.2988Q104.15-79.1504 104.59-76.7334Q105.029-74.3164 106.885-72.2656Q111.377-67.3828 113.721-60.4004Q116.064-53.418 116.064-45.6055Q116.064-38.5742 114.258-32.2266Q112.451-25.8789 108.74-21.0938ZM108.447 1.95312Q109.814 3.27148 111.67 3.24707Q113.525 3.22266 114.746 1.95312Q116.113 0.634766 116.064-1.14746Q116.016-2.92969 114.746-4.19922L25.7324-93.1641Q24.3652-94.5312 22.5098-94.5312Q20.6543-94.5312 19.3848-93.2617Q18.1152-91.9922 18.1396-90.0879Q18.1641-88.1836 19.3848-86.9629Z"/>
  </g>
  <g id="Heavy-M" transform="matrix(1 0 0 1 2569.72 1126)">
   <path d="M30.957-10.5469Q32.5684-12.5 32.1777-14.7217Q31.7871-16.9434 30.0293-18.8477Q25.4395-23.9258 23.0469-30.9082Q20.6543-37.8906 20.6543-45.752Q20.6543-52.0508 22.2168-57.8125Q23.7793-63.5742 26.7578-68.3105L18.1152-76.9043Q13.623-70.8008 11.1816-62.6221Q8.74023-54.4434 8.74023-45.752Q8.74023-35.5957 11.8652-26.4404Q14.9902-17.2852 21.1914-10.791Q23.7305-8.20312 26.4648-8.30078Q29.1992-8.39844 30.957-10.5469ZM46.875-25.6348Q48.291-27.5391 48.0225-29.6875Q47.7539-31.8359 46.2891-33.8379Q44.7754-35.8887 43.75-39.2334Q42.7246-42.5781 42.7246-45.752Q42.7246-47.168 42.9688-48.6084Q43.2129-50.0488 43.6035-51.4648L34.1309-60.8887Q32.5195-57.666 31.665-53.7842Q30.8105-49.9023 30.8105-45.752Q30.8105-39.8438 32.4951-34.5947Q34.1797-29.3457 37.3535-25.8301Q39.5508-23.4375 42.3828-23.4863Q45.2148-23.5352 46.875-25.6348ZM66.9922 12.4023Q69.6777 12.4023 71.2158 10.6445Q72.7539 8.88672 72.7539 5.9082L72.7539-22.2656L61.1816-33.8379L61.1816 5.9082Q61.1816 8.78906 62.793 10.5957Q64.4043 12.4023 66.9922 12.4023ZM98.9258-29.1016Q100.977-32.3242 102.051-36.6699Q103.125-41.0156 103.125-45.752Q103.125-51.6113 101.465-56.8848Q99.8047-62.1582 96.6309-65.625Q94.3848-68.0664 91.5527-68.0176Q88.7207-67.9688 87.0605-65.8203Q85.6445-63.9648 85.9375-61.792Q86.2305-59.6191 87.6465-57.7148Q89.1602-55.6152 90.21-52.2461Q91.2598-48.877 91.2598-45.752Q91.2598-43.8965 90.8447-41.9434Q90.4297-39.9902 89.7461-38.1836ZM114.795-13.1836Q120.02-19.5312 122.607-27.9785Q125.195-36.4258 125.195-45.752Q125.195-52.4902 123.73-58.96Q122.266-65.4297 119.458-70.9961Q116.65-76.5625 112.744-80.6641Q110.205-83.252 107.471-83.1299Q104.736-83.0078 102.979-80.9082Q101.367-78.9551 101.758-76.7334Q102.148-74.5117 103.906-72.5586Q108.496-67.5781 110.913-60.5713Q113.33-53.5645 113.33-45.752Q113.33-38.916 111.548-32.7393Q109.766-26.5625 106.201-21.7773ZM107.227 1.75781Q108.496 2.97852 110.303 2.97852Q112.109 2.97852 113.281 1.75781Q114.6 0.439453 114.551-1.26953Q114.502-2.97852 113.281-4.19922L24.6094-92.8711Q23.291-94.1406 21.5088-94.165Q19.7266-94.1895 18.5059-92.9199Q17.2852-91.6992 17.2852-89.8682Q17.2852-88.0371 18.5059-86.8652Z"/>
  </g>
  <g id="Bold-M" transform="matrix(1 0 0 1 2275.21 1126)">
   <path d="M29.7852-11.377Q31.25-13.0859 30.9082-15.0879Q30.5664-17.0898 28.9551-18.8965Q24.2676-24.0723 21.7773-31.0791Q19.2871-38.0859 19.2871-45.9473Q19.2871-52.2949 20.9473-58.1055Q22.6074-63.916 25.6836-68.7012L18.0664-76.3184Q13.623-70.2148 11.1816-62.3047Q8.74023-54.3945 8.74023-45.9473Q8.74023-35.9863 11.9385-27.0508Q15.1367-18.1152 21.2891-11.6211Q23.4375-9.375 25.8545-9.42383Q28.2715-9.47266 29.7852-11.377ZM45.2637-26.0254Q46.6309-27.7344 46.3379-29.6875Q46.0449-31.6406 44.6777-33.4961Q42.9199-35.791 41.8945-39.1602Q40.8691-42.5293 40.8691-45.9473Q40.8691-47.6074 41.1621-49.2432Q41.4551-50.8789 41.9922-52.4414L33.6914-60.7422Q32.0312-57.5195 31.1768-53.7354Q30.3223-49.9512 30.3223-45.9473Q30.3223-40.2344 32.0068-35.083Q33.6914-29.9316 36.8652-26.2695Q38.7695-24.1211 41.2842-24.1455Q43.7988-24.1699 45.2637-26.0254ZM64.7949 11.5234Q67.1387 11.5234 68.5059 9.96094Q69.873 8.39844 69.873 5.81055L69.873-24.5117L59.7168-34.668L59.7168 5.81055Q59.7168 8.30078 61.1328 9.91211Q62.5488 11.5234 64.7949 11.5234ZM95.459-30.5176Q97.3145-33.6426 98.291-37.6221Q99.2676-41.6016 99.2676-45.9473Q99.2676-51.6113 97.5586-56.7627Q95.8496-61.9141 92.6758-65.5762Q90.7715-67.7246 88.2568-67.7002Q85.7422-67.6758 84.2773-65.8203Q82.9102-64.1113 83.2275-62.1582Q83.5449-60.2051 84.8633-58.3984Q86.5723-56.0547 87.6465-52.6855Q88.7207-49.3164 88.7207-45.9473Q88.7207-44.0918 88.3301-42.2119Q87.9395-40.332 87.3047-38.623ZM110.986-14.9414Q115.82-21.1426 118.311-29.1504Q120.801-37.1582 120.801-45.9473Q120.801-52.5391 119.312-58.8135Q117.822-65.0879 115.015-70.5566Q112.207-76.0254 108.252-80.2246Q106.104-82.4707 103.687-82.3975Q101.27-82.3242 99.7559-80.4688Q98.291-78.7598 98.6328-76.7334Q98.9746-74.707 100.586-72.9492Q105.273-67.7734 107.764-60.7666Q110.254-53.7598 110.254-45.9473Q110.254-39.3066 108.521-33.3252Q106.787-27.3438 103.369-22.5586ZM105.859 1.51367Q107.08 2.68555 108.813 2.68555Q110.547 2.68555 111.67 1.51367Q112.891 0.292969 112.866-1.3916Q112.842-3.07617 111.67-4.24805L23.3887-92.5293Q22.1191-93.75 20.4102-93.7744Q18.7012-93.7988 17.5293-92.5781Q16.3574-91.4062 16.3574-89.6729Q16.3574-87.9395 17.5293-86.7676Z"/>
  </g>
  <g id="Semibold-M" transform="matrix(1 0 0 1 1980.03 1126)">
   <path d="M29.0039-11.9141Q30.3223-13.4766 30.0049-15.332Q29.6875-17.1875 28.2227-18.8965Q23.4375-24.1699 20.8984-31.1768Q18.3594-38.1836 18.3594-46.0449Q18.3594-52.4414 20.0684-58.2764Q21.7773-64.1113 24.9512-68.9453L18.0176-75.8789Q13.5742-69.7754 11.1572-62.0605Q8.74023-54.3457 8.74023-46.0449Q8.74023-36.2793 11.9629-27.4902Q15.1855-18.7012 21.3379-12.1582Q23.2422-10.1562 25.415-10.1807Q27.5879-10.2051 29.0039-11.9141ZM44.1406-26.2695Q45.459-27.832 45.1416-29.6387Q44.8242-31.4453 43.5547-33.252Q41.6504-35.6934 40.6006-39.0869Q39.5508-42.4805 39.5508-46.0449Q39.5508-47.9004 39.8926-49.6582Q40.2344-51.416 40.8203-53.0762L33.3496-60.5957Q31.6406-57.373 30.7861-53.6621Q29.9316-49.9512 29.9316-46.0449Q29.9316-40.4297 31.6406-35.376Q33.3496-30.3223 36.5234-26.5625Q38.2324-24.6094 40.5029-24.6094Q42.7734-24.6094 44.1406-26.2695ZM63.2324 10.8887Q65.3809 10.8887 66.6016 9.47266Q67.8223 8.05664 67.8223 5.71289L67.8223-26.0742L58.6426-35.2539L58.6426 5.71289Q58.6426 7.95898 59.9365 9.42383Q61.2305 10.8887 63.2324 10.8887ZM93.0664-31.4453Q94.7754-34.5703 95.6543-38.2812Q96.5332-41.9922 96.5332-46.0449Q96.5332-51.6113 94.8242-56.665Q93.1152-61.7188 89.9414-65.4785Q88.2324-67.4805 85.9619-67.4805Q83.6914-67.4805 82.3242-65.7715Q81.0059-64.209 81.3232-62.4023Q81.6406-60.5957 82.9102-58.8379Q84.7656-56.3477 85.8643-52.9541Q86.9629-49.5605 86.9629-46.0449Q86.9629-44.2383 86.5967-42.3828Q86.2305-40.5273 85.5957-38.8672ZM108.35-16.1133Q112.939-22.2656 115.332-29.9561Q117.725-37.6465 117.725-46.0449Q117.725-52.5391 116.235-58.6914Q114.746-64.8438 111.938-70.2393Q109.131-75.6348 105.127-79.9316Q103.271-81.9336 101.074-81.8848Q98.877-81.8359 97.4609-80.1758Q96.1426-78.5645 96.46-76.709Q96.7773-74.8535 98.2422-73.1445Q103.027-67.8711 105.591-60.8887Q108.154-53.9062 108.154-46.0449Q108.154-39.5508 106.445-33.7158Q104.736-27.8809 101.416-23.0469ZM104.883 1.31836Q106.055 2.49023 107.739 2.46582Q109.424 2.44141 110.498 1.31836Q111.719 0.146484 111.694-1.48926Q111.67-3.125 110.498-4.24805L22.4609-92.2852Q21.2891-93.457 19.6289-93.4814Q17.9688-93.5059 16.7969-92.334Q15.6738-91.2109 15.6738-89.502Q15.6738-87.793 16.7969-86.7188Z"/>
  </g>
  <g id="Medium-M" transform="matrix(1 0 0 1 1684.47 1126)">
   <path d="M28.3691-12.3047Q29.6387-13.7695 29.3457-15.5273Q29.0527-17.2852 27.6367-18.8965Q22.8027-24.2676 20.2148-31.2744Q17.627-38.2812 17.627-46.1426Q17.627-52.5879 19.3848-58.4229Q21.1426-64.2578 24.4141-69.1406L18.0176-75.5371Q13.5742-69.4336 11.1572-61.8896Q8.74023-54.3457 8.74023-46.1426Q8.74023-36.4746 11.9873-27.7832Q15.2344-19.0918 21.3867-12.5488Q23.0469-10.7422 25.0488-10.7422Q27.0508-10.7422 28.3691-12.3047ZM43.3105-26.5137Q44.5801-27.9297 44.2627-29.6387Q43.9453-31.3477 42.7246-33.0566Q40.6738-35.6445 39.5996-39.0625Q38.5254-42.4805 38.5254-46.1426Q38.5254-48.0957 38.916-49.9756Q39.3066-51.8555 39.9902-53.6133L33.1055-60.498Q31.3965-57.2754 30.5176-53.6133Q29.6387-49.9512 29.6387-46.1426Q29.6387-40.625 31.3721-35.6445Q33.1055-30.6641 36.2793-26.8066Q37.793-24.9512 39.8926-24.9512Q41.9922-24.9512 43.3105-26.5137ZM62.1094 10.4004Q64.0137 10.4004 65.1611 9.10645Q66.3086 7.8125 66.3086 5.66406L66.3086-27.2461L57.8613-35.6445L57.8613 5.66406Q57.8613 7.71484 59.0332 9.05762Q60.2051 10.4004 62.1094 10.4004ZM91.2109-32.1777Q92.8223-35.2539 93.6768-38.7939Q94.5312-42.334 94.5312-46.1426Q94.5312-51.6113 92.7734-56.6162Q91.0156-61.6211 87.8418-65.4297Q86.377-67.2852 84.2529-67.2852Q82.1289-67.2852 80.8105-65.7715Q79.5898-64.3066 79.9072-62.5977Q80.2246-60.8887 81.4453-59.1797Q83.3984-56.5918 84.4971-53.1738Q85.5957-49.7559 85.5957-46.1426Q85.5957-44.2871 85.2783-42.5049Q84.9609-40.7227 84.2773-39.0625ZM106.396-16.9922Q110.742-23.0957 113.086-30.542Q115.43-37.9883 115.43-46.1426Q115.43-52.5879 113.94-58.6182Q112.451-64.6484 109.619-70.0195Q106.787-75.3906 102.783-79.6875Q101.123-81.4941 99.0967-81.4941Q97.0703-81.4941 95.8008-79.9316Q94.4824-78.4668 94.7998-76.709Q95.1172-74.9512 96.5332-73.3398Q101.367-67.9688 103.955-60.9619Q106.543-53.9551 106.543-46.1426Q106.543-39.7949 104.858-34.0332Q103.174-28.2715 99.9512-23.4375ZM104.15 1.17188Q105.322 2.29492 106.958 2.29492Q108.594 2.29492 109.619 1.17188Q110.791 0.0488281 110.791-1.5625Q110.791-3.17383 109.619-4.29688L21.8262-92.1387Q20.6543-93.2617 19.043-93.2861Q17.4316-93.3105 16.2598-92.1387Q15.1855-91.0156 15.1855-89.3799Q15.1855-87.7441 16.2598-86.6211Z"/>
  </g>
  <g id="Regular-M" transform="matrix(1 0 0 1 1389.27 1126)">
   <path d="M27.5879-12.8418Q28.7598-14.1602 28.4912-15.7715Q28.2227-17.3828 26.9043-18.8965Q21.9727-24.3652 19.3359-31.3721Q16.6992-38.3789 16.6992-46.2402Q16.6992-52.7344 18.5059-58.5938Q20.3125-64.4531 23.6816-69.3848L17.9688-75.0977Q13.5254-69.043 11.1328-61.6699Q8.74023-54.2969 8.74023-46.2402Q8.74023-36.7676 12.0361-28.2227Q15.332-19.6777 21.4355-13.0859Q22.8516-11.5234 24.6338-11.499Q26.416-11.4746 27.5879-12.8418ZM42.2363-26.7578Q43.4082-28.0762 43.0908-29.6387Q42.7734-31.2012 41.6016-32.8125Q39.4043-35.5469 38.3301-38.9893Q37.2559-42.4316 37.2559-46.2402Q37.2559-48.3887 37.6709-50.3906Q38.0859-52.3926 38.8672-54.248L32.7637-60.3516Q31.0547-57.1777 30.1758-53.5889Q29.2969-50 29.2969-46.2402Q29.2969-40.8691 31.0547-35.9619Q32.8125-31.0547 35.9863-27.0996Q37.2559-25.4395 39.1357-25.415Q41.0156-25.3906 42.2363-26.7578ZM60.5957 9.76562Q62.3047 9.76562 63.3057 8.61816Q64.3066 7.4707 64.3066 5.56641L64.3066-28.7598L56.8359-36.2305L56.8359 5.56641Q56.8359 7.42188 57.8857 8.59375Q58.9355 9.76562 60.5957 9.76562ZM88.8672-33.1543Q90.332-36.1328 91.0889-39.4287Q91.8457-42.7246 91.8457-46.2402Q91.8457-51.6113 90.0879-56.5186Q88.3301-61.4258 85.1562-65.3809Q83.8867-67.041 82.0068-67.0654Q80.127-67.0898 78.9062-65.7227Q77.7344-64.4043 78.0518-62.8418Q78.3691-61.2793 79.541-59.668Q81.6406-56.8848 82.7637-53.4668Q83.8867-50.0488 83.8867-46.2402Q83.8867-44.4336 83.5693-42.6758Q83.252-40.918 82.6172-39.3555ZM103.809-18.1641Q107.91-24.2188 110.156-31.3477Q112.402-38.4766 112.402-46.2402Q112.402-52.5879 110.913-58.4961Q109.424-64.4043 106.592-69.7021Q103.76-75 99.707-79.3945Q98.3398-80.957 96.5332-80.9814Q94.7266-81.0059 93.5547-79.6387Q92.3828-78.3203 92.6514-76.709Q92.9199-75.0977 94.2383-73.584Q99.1699-68.1152 101.807-61.1084Q104.443-54.1016 104.443-46.2402Q104.443-40.0391 102.783-34.4238Q101.123-28.8086 97.998-23.9746ZM103.174 1.02539Q104.297 2.09961 105.884 2.09961Q107.471 2.09961 108.496 1.02539Q109.619-0.0976562 109.619-1.66016Q109.619-3.22266 108.496-4.29688L20.9473-91.8945Q19.8242-92.9688 18.2617-92.9932Q16.6992-93.0176 15.5762-91.8945Q14.502-90.8203 14.502-89.2334Q14.502-87.6465 15.5762-86.5723Z"/>
  </g>
  <g id="Light-M" transform="matrix(1 0 0 1 1094.66 1126)">
   <path d="M26.1719-13.916Q27.0508-14.9414 26.8555-16.1865Q26.6602-17.4316 25.6348-18.5547Q20.5078-24.0723 17.6758-31.2012Q14.8438-38.3301 14.8438-46.3867Q14.8438-53.2715 16.9189-59.4238Q18.9941-65.5762 22.7539-70.6543L18.4082-75.0488Q13.7695-69.0918 11.2549-61.792Q8.74023-54.4922 8.74023-46.3867Q8.74023-37.1094 12.085-28.7842Q15.4297-20.459 21.4844-14.1113Q22.5586-12.9395 23.9258-12.915Q25.293-12.8906 26.1719-13.916ZM40.2344-27.6367Q41.1133-28.6133 40.8936-29.834Q40.6738-31.0547 39.7461-32.2754Q37.207-35.0098 35.9863-38.6719Q34.7656-42.334 34.7656-46.3867Q34.7656-49.1211 35.4248-51.5625Q36.084-54.0039 37.2559-56.2012L32.6172-60.8398Q30.6641-57.666 29.6631-54.0039Q28.6621-50.3418 28.6621-46.3867Q28.6621-41.1621 30.4443-36.377Q32.2266-31.5918 35.4492-27.832Q36.4258-26.6113 37.8662-26.5869Q39.3066-26.5625 40.2344-27.6367ZM58.4961 9.0332Q59.8145 9.0332 60.5957 8.1543Q61.377 7.27539 61.377 5.81055L61.377-32.0312L55.6152-37.8418L55.6152 5.81055Q55.6152 7.22656 56.4209 8.12988Q57.2266 9.0332 58.4961 9.0332ZM84.668-32.666Q86.4746-35.6934 87.4023-39.1846Q88.3301-42.6758 88.3301-46.3867Q88.3301-51.6602 86.5479-56.4209Q84.7656-61.1816 81.4941-64.9414Q80.5176-66.2109 79.0771-66.2109Q77.6367-66.2109 76.709-65.1855Q75.8301-64.1602 76.0742-62.9639Q76.3184-61.7676 77.2461-60.5469Q79.5898-57.6172 80.9082-54.0527Q82.2266-50.4883 82.2266-46.3867Q82.2266-43.9453 81.665-41.626Q81.1035-39.3066 79.9805-37.3047ZM99.0234-18.3105Q103.369-24.2676 105.786-31.4209Q108.203-38.5742 108.203-46.3867Q108.203-52.6367 106.714-58.3984Q105.225-64.1602 102.368-69.3115Q99.5117-74.4629 95.5078-78.7109Q94.4824-79.8828 93.0908-79.9072Q91.6992-79.9316 90.7715-78.9062Q89.8926-77.8809 90.1123-76.6357Q90.332-75.3906 91.3086-74.2676Q96.4844-68.75 99.3164-61.6211Q102.148-54.4922 102.148-46.3867Q102.148-39.7461 100.171-33.7646Q98.1934-27.7832 94.5801-22.7539ZM102.295 1.07422Q103.125 1.9043 104.37 1.9043Q105.615 1.9043 106.396 1.07422Q107.275 0.195312 107.275-1.00098Q107.275-2.19727 106.396-3.02734L18.3105-91.1621Q17.4316-91.9922 16.2354-92.0166Q15.0391-92.041 14.1602-91.1621Q13.2812-90.332 13.2812-89.1113Q13.2812-87.8906 14.1602-87.0605Z"/>
  </g>
  <g id="Thin-M" transform="matrix(1 0 0 1 800.709 1126)">
   <path d="M24.3164-15.3809Q24.8047-15.9668 24.6826-16.7236Q24.5605-17.4805 23.9746-18.0664Q18.5059-23.6816 15.4297-30.9814Q12.3535-38.2812 12.3535-46.6309Q12.3535-54.0039 14.7949-60.5469Q17.2363-67.0898 21.5332-72.3633L18.9453-74.9512Q14.1113-69.1406 11.4258-61.9385Q8.74023-54.7363 8.74023-46.6309Q8.74023-37.5488 12.1338-29.5166Q15.5273-21.4844 21.4844-15.4297Q22.168-14.7461 22.9736-14.7705Q23.7793-14.7949 24.3164-15.3809ZM37.5977-28.8086Q38.0859-29.3945 37.9639-30.127Q37.8418-30.8594 37.2559-31.4941Q34.3262-34.2773 32.8613-38.2568Q31.3965-42.2363 31.3965-46.6309Q31.3965-50.0488 32.4219-53.0762Q33.4473-56.1035 35.1562-58.7402L32.4707-61.4258Q30.1758-58.3008 28.9795-54.5166Q27.7832-50.7324 27.7832-46.6309Q27.7832-41.5039 29.6143-36.9385Q31.4453-32.373 34.7656-28.8574Q35.3516-28.1738 36.2061-28.1738Q37.0605-28.1738 37.5977-28.8086ZM55.7617 8.05664Q56.543 8.05664 57.0068 7.51953Q57.4707 6.98242 57.4707 6.10352L57.4707-36.377L53.9551-39.9414L53.9551 6.10352Q53.9551 6.98242 54.4434 7.51953Q54.9316 8.05664 55.7617 8.05664ZM79.1504-32.0801Q81.3477-35.1562 82.4951-38.8672Q83.6426-42.5781 83.6426-46.6309Q83.6426-51.7578 81.8359-56.3232Q80.0293-60.8887 76.6602-64.4043Q76.0742-65.0879 75.2441-65.0879Q74.4141-65.0879 73.8281-64.4531Q73.3398-63.8672 73.4863-63.1592Q73.6328-62.4512 74.2188-61.7188Q76.8066-58.6426 78.418-54.834Q80.0293-51.0254 80.0293-46.6309Q80.0293-43.3594 79.1504-40.2588Q78.2715-37.1582 76.5137-34.668ZM92.6758-18.5059Q97.3633-24.2676 100.024-31.4697Q102.686-38.6719 102.686-46.6309Q102.686-52.6855 101.172-58.2764Q99.6582-63.8672 96.7773-68.8232Q93.8965-73.7793 89.9414-77.832Q89.3555-78.4668 88.501-78.4668Q87.6465-78.4668 87.1094-77.8809Q86.6211-77.2949 86.7676-76.5381Q86.9141-75.7812 87.4512-75.1465Q92.9688-69.5801 96.0205-62.2803Q99.0723-54.9805 99.0723-46.6309Q99.0723-39.3555 96.7041-32.8613Q94.3359-26.3672 90.0879-21.1426ZM101.123 1.17188Q101.66 1.66016 102.417 1.66016Q103.174 1.66016 103.662 1.17188Q104.248 0.585938 104.224-0.146484Q104.199-0.878906 103.662-1.36719L14.7949-90.2344Q14.3066-90.7227 13.5742-90.7715Q12.8418-90.8203 12.2559-90.2344Q11.7676-89.7461 11.7676-88.9893Q11.7676-88.2324 12.2559-87.6953Z"/>
  </g>
  <g id="Ultralight-M" transform="matrix(1 0 0 1 505.414 1126)">
   <path d="M23.3887-16.1133Q23.6816-16.4551 23.584-16.9922Q23.4863-17.5293 23.1445-17.8711Q17.5293-23.4375 14.3311-30.835Q11.1328-38.2324 11.1328-46.7285Q11.1328-54.3457 13.7207-61.1084Q16.3086-67.8711 20.8984-73.2422L19.2383-74.9023Q14.3066-69.1895 11.5234-62.0117Q8.74023-54.834 8.74023-46.7285Q8.74023-37.7441 12.1826-29.8828Q15.625-22.0215 21.5332-16.1133Q21.9238-15.7227 22.4609-15.7227Q22.998-15.7227 23.3887-16.1133ZM36.2305-29.3945Q36.5723-29.7363 36.499-30.249Q36.4258-30.7617 36.0352-31.1523Q32.8125-33.9355 31.2744-38.0371Q29.7363-42.1387 29.7363-46.7285Q29.7363-50.5371 30.9082-53.8574Q32.0801-57.1777 34.082-60.0586L32.373-61.7676Q29.9316-58.6426 28.6377-54.8096Q27.3438-50.9766 27.3438-46.7285Q27.3438-41.6992 29.1992-37.207Q31.0547-32.7148 34.375-29.3457Q34.8145-29.0039 35.3516-28.9795Q35.8887-28.9551 36.2305-29.3945ZM54.3457 7.56836Q54.834 7.56836 55.1758 7.20215Q55.5176 6.83594 55.5176 6.25L55.5176-38.623L53.125-41.0156L53.125 6.25Q53.125 6.83594 53.4424 7.20215Q53.7598 7.56836 54.3457 7.56836ZM76.3184-31.7383Q78.7109-34.8633 79.9805-38.6963Q81.25-42.5293 81.25-46.7285Q81.25-51.8066 79.4434-56.2744Q77.6367-60.7422 74.2188-64.1113Q73.8281-64.502 73.2666-64.502Q72.7051-64.502 72.3633-64.1113Q72.0703-63.7207 72.1436-63.2568Q72.2168-62.793 72.6562-62.3535Q75.4395-59.1309 77.1729-55.2246Q78.9062-51.3184 78.9062-46.7285Q78.9062-43.0176 77.8809-39.5264Q76.8555-36.0352 74.7559-33.252ZM89.4043-18.6035Q94.2871-24.3164 97.0703-31.5186Q99.8535-38.7207 99.8535-46.7285Q99.8535-52.7344 98.3154-58.2275Q96.7773-63.7207 93.9209-68.5547Q91.0645-73.3887 87.0605-77.3438Q86.7188-77.7344 86.1572-77.7344Q85.5957-77.7344 85.2539-77.3926Q84.9121-77.002 85.0342-76.4893Q85.1562-75.9766 85.498-75.6348Q91.1133-70.0195 94.3115-62.6221Q97.5098-55.2246 97.5098-46.7285Q97.5098-39.1113 94.9463-32.3975Q92.3828-25.6836 87.793-20.3125ZM100.537 1.2207Q100.879 1.5625 101.392 1.5625Q101.904 1.5625 102.295 1.2207Q102.686 0.830078 102.661 0.317383Q102.637-0.195312 102.295-0.537109L13.0371-89.7461Q12.7441-90.0391 12.2559-90.0879Q11.7676-90.1367 11.3281-89.7461Q10.9375-89.4043 10.9375-88.8916Q10.9375-88.3789 11.3281-88.0371Z"/>
  </g>
  <g id="Black-S" transform="matrix(1 0 0 1 2878.91 696)">
   <path d="M25.293-15.1855Q26.709-16.8945 26.3428-18.8232Q25.9766-20.752 24.5117-22.3633Q20.9961-26.2207 19.1895-31.6895Q17.3828-37.1582 17.3828-43.3105Q17.3828-48.2422 18.5303-52.7344Q19.6777-57.2266 21.9238-60.8398L14.2578-68.5059Q10.7422-63.7207 8.78906-57.0312Q6.83594-50.3418 6.83594-43.3105Q6.83594-35.1074 9.25293-27.7588Q11.6699-20.4102 16.5527-15.3809Q18.8965-12.9883 21.3379-13.1348Q23.7793-13.2812 25.293-15.1855ZM38.1348-27.3926Q39.3555-29.0527 39.1357-30.9082Q38.916-32.7637 37.7441-34.4238Q36.7676-35.8398 35.9619-38.4521Q35.1562-41.0645 35.1562-43.3105Q35.1562-44.1895 35.3027-45.166Q35.4492-46.1426 35.6445-47.1191L27.1973-55.5664Q24.6094-50.3906 24.6094-43.3105Q24.6094-38.5742 25.8789-34.3262Q27.1484-30.0781 29.6387-27.4902Q31.7383-25.3906 34.2529-25.4395Q36.7676-25.4883 38.1348-27.3926ZM54.4922 2.92969Q56.8848 2.92969 58.2764 1.36719Q59.668-0.195312 59.668-2.88086L59.668-23.0957L49.3164-33.4473L49.3164-2.88086Q49.3164-0.341797 50.7812 1.29395Q52.2461 2.92969 54.4922 2.92969ZM80.6152-29.0039Q82.4707-31.6406 83.4229-35.4004Q84.375-39.1602 84.375-43.3105Q84.375-48.0957 83.1055-52.3438Q81.8359-56.5918 79.3457-59.1309Q77.2461-61.2793 74.7559-61.2061Q72.2656-61.1328 70.8496-59.2285Q69.6289-57.5684 69.8486-55.7129Q70.0684-53.8574 71.2402-52.1973Q72.2168-50.8301 73.0225-48.2178Q73.8281-45.6055 73.8281-43.3105Q73.8281-41.8457 73.4619-40.1855Q73.0957-38.5254 72.5586-37.0605ZM93.3105-16.3086Q97.8027-21.3379 99.9756-28.418Q102.148-35.498 102.148-43.3105Q102.148-51.4648 99.585-59.0332Q97.0215-66.6016 92.4316-71.1914Q90.0879-73.584 87.6709-73.4375Q85.2539-73.291 83.6914-71.3867Q82.3242-69.6777 82.666-67.749Q83.0078-65.8203 84.4727-64.209Q87.9395-60.4004 89.7705-54.9316Q91.6016-49.4629 91.6016-43.3105Q91.6016-37.6953 90.1855-32.666Q88.7695-27.6367 85.7422-23.877ZM85.3027-6.00586Q86.377-4.98047 87.8418-5.0293Q89.3066-5.07812 90.2344-6.00586Q91.3086-7.08008 91.2598-8.47168Q91.2109-9.86328 90.2344-10.8398L20.3613-80.6641Q19.2871-81.7383 17.8223-81.7383Q16.3574-81.7383 15.3809-80.7617Q14.4043-79.7852 14.4287-78.2959Q14.4531-76.8066 15.3809-75.8301Z"/>
  </g>
  <g id="Heavy-S" transform="matrix(1 0 0 1 2583.61 696)">
   <path d="M24.6094-15.625Q25.9277-17.2363 25.5859-19.043Q25.2441-20.8496 23.8281-22.4121Q20.2637-26.3672 18.4082-31.8359Q16.5527-37.3047 16.5527-43.4082Q16.5527-48.3398 17.749-52.832Q18.9453-57.3242 21.2402-60.9863L14.1602-68.0176Q10.6934-63.2324 8.76465-56.7627Q6.83594-50.293 6.83594-43.4082Q6.83594-35.4004 9.27734-28.1738Q11.7188-20.9473 16.6016-15.8691Q18.7012-13.6719 20.9473-13.7939Q23.1934-13.916 24.6094-15.625ZM37.1582-27.5879Q38.3301-29.1016 38.1104-30.8594Q37.8906-32.6172 36.7188-34.2285Q35.6445-35.8398 34.8389-38.4277Q34.0332-41.0156 34.0332-43.4082Q34.0332-44.4336 34.2041-45.4834Q34.375-46.5332 34.6191-47.6074L26.8555-55.3711Q24.2676-50.1953 24.2676-43.4082Q24.2676-38.7695 25.5615-34.6191Q26.8555-30.4688 29.3457-27.7344Q31.25-25.7812 33.5693-25.8057Q35.8887-25.8301 37.1582-27.5879ZM53.0762 2.34375Q55.2734 2.34375 56.543 0.90332Q57.8125-0.537109 57.8125-2.97852L57.8125-24.3652L48.3398-33.8867L48.3398-2.97852Q48.3398-0.683594 49.6826 0.830078Q51.0254 2.34375 53.0762 2.34375ZM78.5156-30.127Q80.127-32.7148 80.9814-36.1816Q81.8359-39.6484 81.8359-43.4082Q81.8359-48.0957 80.542-52.2461Q79.248-56.3965 76.7578-59.1309Q74.9023-61.1328 72.6074-61.0596Q70.3125-60.9863 68.9453-59.2773Q67.7734-57.7148 68.0176-55.957Q68.2617-54.1992 69.3848-52.5879Q70.5078-51.0742 71.3135-48.4619Q72.1191-45.8496 72.1191-43.4082Q72.1191-42.041 71.8018-40.5029Q71.4844-38.9648 70.9961-37.6465ZM91.0156-17.5781Q95.2148-22.5586 97.2656-29.2969Q99.3164-36.0352 99.3164-43.4082Q99.3164-51.416 96.7529-58.8135Q94.1895-66.2109 89.5508-70.9473Q87.4512-73.0957 85.2295-72.998Q83.0078-72.9004 81.543-71.1426Q80.2734-69.5801 80.5908-67.749Q80.9082-65.918 82.2754-64.4043Q85.8398-60.4492 87.6953-55.0049Q89.5508-49.5605 89.5508-43.4082Q89.5508-38.0371 88.208-33.2031Q86.8652-28.3691 84.0332-24.6094ZM84.3262-6.20117Q85.4004-5.17578 86.8408-5.22461Q88.2812-5.27344 89.209-6.20117Q90.2832-7.27539 90.2588-8.66699Q90.2344-10.0586 89.209-11.0352L19.7266-80.5176Q18.6523-81.543 17.2119-81.543Q15.7715-81.543 14.7949-80.5664Q13.8184-79.5898 13.8428-78.125Q13.8672-76.6602 14.7949-75.6836Z"/>
  </g>
  <g id="Bold-S" transform="matrix(1 0 0 1 2288.49 696)">
   <path d="M23.8281-16.1621Q25.0488-17.627 24.7314-19.3115Q24.4141-20.9961 23.0957-22.5098Q19.4824-26.5625 17.5781-32.0068Q15.6738-37.4512 15.6738-43.5547Q15.6738-48.4863 16.8945-52.9541Q18.1152-57.4219 20.459-61.1328L14.0625-67.5293Q10.5957-62.6953 8.71582-56.4697Q6.83594-50.2441 6.83594-43.5547Q6.83594-35.6934 9.32617-28.6133Q11.8164-21.5332 16.6504-16.4062Q18.457-14.502 20.4834-14.5508Q22.5098-14.5996 23.8281-16.1621ZM36.1328-27.7832Q37.2559-29.1992 36.9873-30.835Q36.7188-32.4707 35.6445-34.0332Q34.375-35.791 33.5693-38.4033Q32.7637-41.0156 32.7637-43.5547Q32.7637-44.6777 32.959-45.8496Q33.1543-47.0215 33.4473-48.1445L26.4648-55.127Q23.9258-50 23.9258-43.5547Q23.9258-39.0625 25.2441-34.9854Q26.5625-30.9082 29.0527-27.9785Q30.6641-26.2207 32.7637-26.2207Q34.8633-26.2207 36.1328-27.7832ZM51.4648 1.66016Q53.4668 1.66016 54.6143 0.341797Q55.7617-0.976562 55.7617-3.125L55.7617-25.8301L47.2168-34.375L47.2168-3.125Q47.2168-1.02539 48.4131 0.317383Q49.6094 1.66016 51.4648 1.66016ZM76.123-31.4453Q77.5391-33.8867 78.2959-37.0361Q79.0527-40.1855 79.0527-43.5547Q79.0527-48.0957 77.7344-52.1729Q76.416-56.25 73.9258-59.1309Q72.3145-60.9375 70.2148-60.9131Q68.1152-60.8887 66.8457-59.3262Q65.7227-57.9102 65.9912-56.2744Q66.2598-54.6387 67.334-53.0762Q68.6035-51.3184 69.4092-48.7305Q70.2148-46.1426 70.2148-43.5547Q70.2148-42.2852 69.9463-40.8936Q69.6777-39.502 69.2871-38.2812ZM88.4766-19.043Q92.2852-23.9746 94.2139-30.2979Q96.1426-36.6211 96.1426-43.5547Q96.1426-51.3672 93.5791-58.5693Q91.0156-65.7715 86.3281-70.7031Q84.5215-72.6074 82.4951-72.5342Q80.4688-72.4609 79.1504-70.8984Q77.9785-69.4336 78.2471-67.749Q78.5156-66.0645 79.8828-64.5996Q83.4473-60.5469 85.376-55.1025Q87.3047-49.6582 87.3047-43.5547Q87.3047-38.4277 86.0107-33.8135Q84.7168-29.1992 82.0801-25.4395ZM83.3008-6.44531Q84.3262-5.46875 85.7666-5.49316Q87.207-5.51758 88.1348-6.44531Q89.1602-7.4707 89.1602-8.8623Q89.1602-10.2539 88.1348-11.2305L19.043-80.3223Q18.0176-81.3477 16.5771-81.3477Q15.1367-81.3477 14.1602-80.3711Q13.1836-79.3945 13.208-77.9541Q13.2324-76.5137 14.1602-75.5371Z"/>
  </g>
  <g id="Semibold-S" transform="matrix(1 0 0 1 1992.88 696)">
   <path d="M23.2422-16.5039Q24.4141-17.8711 24.1211-19.4824Q23.8281-21.0938 22.5586-22.5098Q18.9453-26.6602 16.9922-32.1045Q15.0391-37.5488 15.0391-43.6523Q15.0391-48.5352 16.2842-53.0029Q17.5293-57.4707 19.9219-61.2305L14.0137-67.1387Q10.5469-62.3047 8.69141-56.25Q6.83594-50.1953 6.83594-43.6523Q6.83594-35.8887 9.35059-28.9062Q11.8652-21.9238 16.6992-16.748Q18.3105-15.0391 20.1904-15.0635Q22.0703-15.0879 23.2422-16.5039ZM35.3516-27.9297Q36.4746-29.248 36.2061-30.8105Q35.9375-32.373 34.8633-33.8379Q33.4473-35.791 32.666-38.3789Q31.8848-40.9668 31.8848-43.6523Q31.8848-44.873 32.0801-46.1182Q32.2754-47.3633 32.6172-48.5352L26.2207-54.9805Q23.6816-49.8047 23.6816-43.6523Q23.6816-39.209 25.0244-35.2051Q26.3672-31.2012 28.8086-28.1738Q30.2734-26.5137 32.2266-26.4893Q34.1797-26.4648 35.3516-27.9297ZM50.3418 1.2207Q52.1973 1.2207 53.2471 0Q54.2969-1.2207 54.2969-3.22266L54.2969-26.8066L46.4355-34.668L46.4355-3.22266Q46.4355-1.26953 47.5342-0.0244141Q48.6328 1.2207 50.3418 1.2207ZM74.5117-32.3242Q75.7324-34.7168 76.416-37.6221Q77.0996-40.5273 77.0996-43.6523Q77.0996-48.0469 75.7568-52.0752Q74.4141-56.1035 71.9238-59.082Q70.5078-60.791 68.5303-60.7666Q66.5527-60.7422 65.3809-59.3262Q64.3066-58.0078 64.5752-56.4453Q64.8438-54.8828 65.918-53.418Q67.2363-51.5137 68.042-48.9014Q68.8477-46.2891 68.8477-43.6523Q68.8477-42.4316 68.6523-41.1377Q68.457-39.8438 68.1152-38.6719ZM86.7188-20.0195Q90.2832-24.9023 92.1143-30.957Q93.9453-37.0117 93.9453-43.6523Q93.9453-51.3184 91.3818-58.374Q88.8184-65.4297 84.082-70.5078Q82.4707-72.2168 80.5908-72.1924Q78.7109-72.168 77.4902-70.7031Q76.3672-69.3359 76.6357-67.749Q76.9043-66.1621 78.1738-64.6973Q81.8359-60.5957 83.7646-55.1514Q85.6934-49.707 85.6934-43.6523Q85.6934-38.6719 84.4482-34.2041Q83.2031-29.7363 80.7617-26.0254ZM82.5684-6.5918Q83.5938-5.61523 85.0342-5.63965Q86.4746-5.66406 87.4023-6.5918Q88.3789-7.61719 88.3789-9.00879Q88.3789-10.4004 87.4023-11.377L18.5547-80.1758Q17.5293-81.2012 16.1133-81.2012Q14.6973-81.2012 13.7207-80.2246Q12.7441-79.248 12.7686-77.8076Q12.793-76.3672 13.7207-75.4395Z"/>
  </g>
  <g id="Medium-S" transform="matrix(1 0 0 1 1697.02 696)">
   <path d="M22.8516-16.7969Q23.9258-18.1152 23.6816-19.6289Q23.4375-21.1426 22.168-22.5586Q18.5059-26.7578 16.5527-32.1777Q14.5996-37.5977 14.5996-43.7012Q14.5996-48.584 15.8691-53.0518Q17.1387-57.5195 19.5312-61.2793L13.916-66.8457Q10.498-62.0605 8.66699-56.1035Q6.83594-50.1465 6.83594-43.7012Q6.83594-36.084 9.375-29.1748Q11.9141-22.2656 16.6992-17.041Q18.1641-15.4297 19.9219-15.4297Q21.6797-15.4297 22.8516-16.7969ZM34.8145-28.0273Q35.8887-29.2969 35.5957-30.7861Q35.3027-32.2754 34.2773-33.7402Q32.8125-35.7422 32.0312-38.3545Q31.25-40.9668 31.25-43.7012Q31.25-44.9707 31.4453-46.2891Q31.6406-47.6074 31.9824-48.7793L25.9766-54.834Q23.4863-49.707 23.4863-43.7012Q23.4863-39.3555 24.8291-35.376Q26.1719-31.3965 28.6133-28.2715Q29.9805-26.709 31.8115-26.709Q33.6426-26.709 34.8145-28.0273ZM49.5117 0.830078Q51.2207 0.830078 52.2217-0.292969Q53.2227-1.41602 53.2227-3.27148L53.2227-27.5879L45.8496-34.9121L45.8496-3.27148Q45.8496-1.46484 46.875-0.317383Q47.9004 0.830078 49.5117 0.830078ZM73.2422-32.959Q74.3652-35.3027 74.9756-38.0615Q75.5859-40.8203 75.5859-43.7012Q75.5859-48.0469 74.2432-52.0264Q72.9004-56.0059 70.4102-59.082Q69.1406-60.7422 67.2852-60.7178Q65.4297-60.6934 64.3066-59.3262Q63.2324-58.1055 63.501-56.5918Q63.7695-55.0781 64.8438-53.6621Q66.2598-51.6113 67.0654-49.0234Q67.8711-46.4355 67.8711-43.7012Q67.8711-42.5293 67.6758-41.333Q67.4805-40.1367 67.1875-39.0137ZM85.4004-20.8008Q88.7695-25.6348 90.5029-31.4941Q92.2363-37.3535 92.2363-43.7012Q92.2363-51.3184 89.6729-58.252Q87.1094-65.1855 82.373-70.3613Q80.9082-71.9238 79.1504-71.9238Q77.3926-71.9238 76.2207-70.6055Q75.1465-69.2871 75.3906-67.749Q75.6348-66.2109 76.9043-64.7949Q80.5664-60.6445 82.5439-55.2246Q84.5215-49.8047 84.5215-43.7012Q84.5215-38.916 83.3008-34.5459Q82.0801-30.1758 79.7363-26.416ZM82.0312-6.73828Q83.0078-5.76172 84.4238-5.76172Q85.8398-5.76172 86.7676-6.73828Q87.793-7.71484 87.793-9.10645Q87.793-10.498 86.7676-11.4746L18.2129-80.127Q17.1387-81.1035 15.7471-81.1035Q14.3555-81.1035 13.3789-80.127Q12.4023-79.1504 12.4023-77.71Q12.4023-76.2695 13.3789-75.3418Z"/>
  </g>
  <g id="Regular-S" transform="matrix(1 0 0 1 1401.38 696)">
   <path d="M22.3145-17.1387Q23.3398-18.3594 23.0957-19.7998Q22.8516-21.2402 21.6797-22.6074Q17.9688-26.8555 15.9668-32.2754Q13.9648-37.6953 13.9648-43.7988Q13.9648-48.6816 15.2588-53.125Q16.5527-57.5684 18.9941-61.377L13.8672-66.5039Q10.4492-61.6699 8.64258-55.8838Q6.83594-50.0977 6.83594-43.7988Q6.83594-36.2793 9.39941-29.4678Q11.9629-22.6562 16.748-17.3828Q18.0176-15.9668 19.6289-15.9424Q21.2402-15.918 22.3145-17.1387ZM34.082-28.1738Q35.1074-29.3457 34.8145-30.7617Q34.5215-32.1777 33.4961-33.5938Q31.9336-35.7422 31.1523-38.3301Q30.3711-40.918 30.3711-43.7988Q30.3711-45.166 30.5908-46.5332Q30.8105-47.9004 31.2012-49.1699L25.7324-54.6875Q23.2422-49.5605 23.2422-43.7988Q23.2422-39.502 24.6094-35.5957Q25.9766-31.6895 28.418-28.4668Q29.5898-27.002 31.2744-26.9775Q32.959-26.9531 34.082-28.1738ZM48.4375 0.390625Q50 0.390625 50.9033-0.65918Q51.8066-1.70898 51.8066-3.36914L51.8066-28.5645L45.1172-35.2539L45.1172-3.36914Q45.1172-1.70898 46.0449-0.65918Q46.9727 0.390625 48.4375 0.390625ZM71.6309-33.8379Q72.6074-36.1328 73.1445-38.6475Q73.6816-41.1621 73.6816-43.7988Q73.6816-48.0469 72.3145-51.9531Q70.9473-55.8594 68.457-59.082Q67.334-60.5957 65.625-60.5957Q63.916-60.5957 62.8418-59.375Q61.8164-58.2031 62.1094-56.7871Q62.4023-55.3711 63.4277-53.9551Q64.9414-51.8066 65.7471-49.2188Q66.5527-46.6309 66.5527-43.7988Q66.5527-42.6758 66.4062-41.5771Q66.2598-40.4785 66.0156-39.4531ZM83.6426-21.7773Q86.7676-26.5625 88.4277-32.1533Q90.0879-37.7441 90.0879-43.7988Q90.0879-51.2695 87.5244-58.0811Q84.9609-64.8926 80.1758-70.166Q78.9062-71.582 77.2949-71.6064Q75.6836-71.6309 74.6094-70.4102Q73.584-69.1895 73.8037-67.749Q74.0234-66.3086 75.2441-64.9414Q78.9551-60.6934 80.957-55.2734Q82.959-49.8535 82.959-43.7988Q82.959-39.1602 81.7871-34.9365Q80.6152-30.7129 78.418-27.002ZM81.2988-6.88477Q82.2754-5.9082 83.6914-5.9082Q85.1074-5.9082 86.0352-6.88477Q87.0117-7.86133 87.0361-9.25293Q87.0605-10.6445 86.0352-11.6211L17.7246-79.9805Q16.6992-80.957 15.3076-80.957Q13.916-80.957 12.9395-79.9805Q11.9629-79.0039 11.9629-77.5879Q11.9629-76.1719 12.9395-75.2441Z"/>
  </g>
  <g id="Light-S" transform="matrix(1 0 0 1 1106.53 696)">
   <path d="M21.0449-18.1152Q21.8262-19.043 21.6309-20.166Q21.4355-21.2891 20.5566-22.3145Q16.6504-26.6113 14.502-32.1289Q12.3535-37.6465 12.3535-43.9453Q12.3535-49.1699 13.8672-53.8574Q15.3809-58.5449 18.1641-62.5L14.2578-66.4551Q10.6934-61.7188 8.76465-55.9814Q6.83594-50.2441 6.83594-43.9453Q6.83594-36.5723 9.44824-29.9561Q12.0605-23.3398 16.7969-18.2617Q17.7246-17.1875 18.9941-17.1875Q20.2637-17.1875 21.0449-18.1152ZM32.2754-28.9551Q33.0566-29.834 32.8613-30.9326Q32.666-32.0312 31.8359-33.1055Q29.9805-35.2539 29.0771-38.0371Q28.1738-40.8203 28.1738-43.9453Q28.1738-45.8008 28.6133-47.5586Q29.0527-49.3164 29.7852-50.8789L25.6348-55.127Q22.6562-50 22.6562-43.9453Q22.6562-39.7461 24.0479-35.9619Q25.4395-32.1777 27.9297-29.1504Q28.8574-28.0273 30.1514-28.0273Q31.4453-28.0273 32.2754-28.9551ZM46.582-0.244141Q47.8027-0.244141 48.5107-1.07422Q49.2188-1.9043 49.2188-3.17383L49.2188-31.4941L43.9941-36.6699L43.9941-3.17383Q43.9941-1.85547 44.7266-1.0498Q45.459-0.244141 46.582-0.244141ZM67.9199-33.3984Q69.1895-35.791 69.873-38.4521Q70.5566-41.1133 70.5566-43.9453Q70.5566-48.0957 69.165-51.8799Q67.7734-55.6641 65.2344-58.6914Q64.3555-59.8633 63.0615-59.8633Q61.7676-59.8633 60.9375-58.8867Q60.1562-58.0078 60.376-56.9092Q60.5957-55.8105 61.377-54.7363Q63.0859-52.4902 64.0869-49.7559Q65.0879-47.0215 65.0879-43.9453Q65.0879-42.2363 64.7217-40.6494Q64.3555-39.0625 63.7207-37.6465ZM79.3945-21.9238Q82.7637-26.6113 84.5703-32.2021Q86.377-37.793 86.377-43.9453Q86.377-51.2695 83.7891-57.8857Q81.2012-64.502 76.4648-69.5801Q75.4883-70.6055 74.2432-70.6299Q72.998-70.6543 72.168-69.7266Q71.3867-68.7988 71.5576-67.6758Q71.7285-66.5527 72.6562-65.5273Q76.6113-61.2305 78.7598-55.7129Q80.9082-50.1953 80.9082-43.9453Q80.9082-38.8672 79.4678-34.3262Q78.0273-29.7852 75.3906-25.9277ZM80.5176-6.83594Q81.25-6.05469 82.3486-6.05469Q83.4473-6.05469 84.1797-6.83594Q84.9609-7.56836 84.9854-8.66699Q85.0098-9.76562 84.1797-10.498L15.3809-79.3457Q14.5996-80.0781 13.5254-80.1025Q12.4512-80.127 11.6699-79.3457Q10.8887-78.5645 10.8887-77.4658Q10.8887-76.3672 11.6699-75.6836Z"/>
  </g>
  <g id="Thin-S" transform="matrix(1 0 0 1 812.257 696)">
   <path d="M19.3848-19.3848Q19.873-19.9219 19.751-20.6055Q19.6289-21.2891 19.0918-21.9238Q14.8926-26.2695 12.5244-31.9336Q10.1562-37.5977 10.1562-44.0918Q10.1562-49.8047 11.9873-54.8584Q13.8184-59.9121 17.0898-64.0137L14.7461-66.3574Q11.0352-61.8164 8.93555-56.1279Q6.83594-50.4395 6.83594-44.0918Q6.83594-36.9629 9.49707-30.6152Q12.1582-24.2676 16.7969-19.4336Q17.3828-18.8477 18.1396-18.8477Q18.8965-18.8477 19.3848-19.3848ZM29.9316-29.9805Q30.4199-30.5176 30.2979-31.2012Q30.1758-31.8848 29.6875-32.4219Q27.3926-34.6191 26.3184-37.6709Q25.2441-40.7227 25.2441-44.0918Q25.2441-46.6309 25.9766-48.9014Q26.709-51.1719 27.9297-53.125L25.4395-55.6641Q21.9238-50.6348 21.9238-44.0918Q21.9238-40.0879 23.3398-36.4746Q24.7559-32.8613 27.3438-30.0293Q27.8809-29.4434 28.6621-29.4189Q29.4434-29.3945 29.9316-29.9805ZM44.1406-1.12305Q44.9219-1.12305 45.3369-1.63574Q45.752-2.14844 45.752-2.92969L45.752-35.3027L42.5293-38.5254L42.5293-2.92969Q42.5293-2.09961 42.9932-1.61133Q43.457-1.12305 44.1406-1.12305ZM63.0371-32.8613Q64.6484-35.3027 65.5518-38.1592Q66.4551-41.0156 66.4551-44.0918Q66.4551-48.1445 65.0146-51.7822Q63.5742-55.4199 60.9863-58.1543Q60.4492-58.8379 59.668-58.8379Q58.8867-58.8379 58.3984-58.252Q57.9102-57.7637 58.0566-57.0801Q58.2031-56.3965 58.6914-55.7617Q60.6934-53.3691 61.8896-50.4395Q63.0859-47.5098 63.0859-44.0918Q63.0859-41.6992 62.4756-39.4287Q61.8652-37.1582 60.6445-35.2539ZM73.7793-22.0703Q77.3926-26.6602 79.4434-32.2754Q81.4941-37.8906 81.4941-44.0918Q81.4941-51.2695 78.8574-57.6172Q76.2207-63.9648 71.5332-68.75Q70.9473-69.3848 70.1904-69.3848Q69.4336-69.3848 68.8965-68.8477Q68.5059-68.2617 68.6035-67.5781Q68.7012-66.8945 69.2383-66.3574Q73.4863-62.0117 75.8301-56.3232Q78.1738-50.6348 78.1738-44.0918Q78.1738-38.5254 76.416-33.5449Q74.6582-28.5645 71.4355-24.4629ZM79.4434-6.73828Q79.9316-6.25 80.6152-6.25Q81.2988-6.25 81.7383-6.73828Q82.2266-7.22656 82.2266-7.91016Q82.2266-8.59375 81.7383-9.0332L12.2559-78.5156Q11.8164-78.9551 11.1572-78.9795Q10.498-79.0039 10.0098-78.5156Q9.52148-78.0273 9.52148-77.3438Q9.52148-76.6602 10.0098-76.2207Z"/>
  </g>
  <g id="Ultralight-S" transform="matrix(1 0 0 1 516.791 696)">
   <path d="M18.5547-20.0684Q18.8477-20.4102 18.75-20.874Q18.6523-21.3379 18.3105-21.6797Q13.9648-26.0742 11.5234-31.8115Q9.08203-37.5488 9.08203-44.1895Q9.08203-50.1465 11.0352-55.3467Q12.9883-60.5469 16.5527-64.7949L14.9902-66.3086Q11.1816-61.8652 9.00879-56.2012Q6.83594-50.5371 6.83594-44.1895Q6.83594-37.1582 9.52148-30.957Q12.207-24.7559 16.8457-20.0684Q17.1875-19.6777 17.7246-19.6777Q18.2617-19.6777 18.5547-20.0684ZM28.7109-30.4688Q29.0039-30.8594 28.9551-31.3232Q28.9062-31.7871 28.5645-32.0801Q26.0742-34.2773 24.9023-37.4512Q23.7305-40.625 23.7305-44.1895Q23.7305-47.0703 24.6094-49.585Q25.4883-52.0996 27.002-54.2969L25.3906-55.957Q21.5332-50.9277 21.5332-44.1895Q21.5332-40.2344 22.9492-36.7188Q24.3652-33.2031 27.002-30.5176Q27.3926-30.127 27.9053-30.127Q28.418-30.127 28.7109-30.4688ZM42.9199-1.5625Q43.4082-1.5625 43.7012-1.9043Q43.9941-2.24609 43.9941-2.7832L43.9941-37.3047L41.7969-39.4531L41.7969-2.7832Q41.7969-2.19727 42.1143-1.87988Q42.4316-1.5625 42.9199-1.5625ZM60.5469-32.5684Q62.3535-35.0586 63.3301-38.0127Q64.3066-40.9668 64.3066-44.1895Q64.3066-48.1934 62.8662-51.7334Q61.4258-55.2734 58.7891-57.9102Q58.4473-58.3496 57.9346-58.3496Q57.4219-58.3496 57.0801-57.9102Q56.7871-57.6172 56.8604-57.1533Q56.9336-56.6895 57.2754-56.2988Q59.4238-53.8574 60.7666-50.8057Q62.1094-47.7539 62.1094-44.1895Q62.1094-41.4062 61.3525-38.7939Q60.5957-36.1816 59.082-34.0332ZM70.9473-22.168Q74.707-26.709 76.8555-32.3242Q79.0039-37.9395 79.0039-44.1895Q79.0039-51.2695 76.3184-57.4707Q73.6328-63.6719 68.9941-68.3594Q68.6035-68.7012 68.0908-68.7012Q67.5781-68.7012 67.2363-68.3594Q66.9922-68.0176 67.0898-67.5537Q67.1875-67.0898 67.4805-66.748Q71.875-62.3535 74.3408-56.5918Q76.8066-50.8301 76.8066-44.1895Q76.8066-38.3301 74.8535-33.1299Q72.9004-27.9297 69.3848-23.7305ZM78.9062-6.68945Q79.248-6.34766 79.7119-6.34766Q80.1758-6.34766 80.5176-6.68945Q80.8594-7.03125 80.8594-7.49512Q80.8594-7.95898 80.5176-8.25195L10.6934-78.0762Q10.4004-78.3691 9.93652-78.418Q9.47266-78.4668 9.13086-78.0762Q8.78906-77.7344 8.78906-77.2705Q8.78906-76.8066 9.13086-76.5137Z"/>
  </g>
 </g>
</svg>
