<?xml version="1.0" encoding="UTF-8"?>
<!--Generator: Apple Native CoreSVG 175-->
<!DOCTYPE svg
PUBLIC "-//W3C//DTD SVG 1.1//EN"
       "http://www.w3.org/Graphics/SVG/1.1/DTD/svg11.dtd">
<svg version="1.1" xmlns="http://www.w3.org/2000/svg" xmlns:xlink="http://www.w3.org/1999/xlink" width="3300" height="2200">
 <!--glyph: "uni100580.medium", point size: 100.0, font version: "17.0d12e1", template writer version: "65.1"-->
 <g id="Notes">
  <rect height="2200" id="artboard" style="fill:white;opacity:1" width="3300" x="0" y="0"/>
  <line style="fill:none;stroke:black;opacity:1;stroke-width:0.5;" x1="263" x2="3036" y1="292" y2="292"/>
  <text style="stroke:none;fill:black;font-family:sans-serif;font-size:13;font-weight:bold;" transform="matrix(1 0 0 1 263 322)">Weight/Scale Variations</text>
  <text style="stroke:none;fill:black;font-family:sans-serif;font-size:13;text-anchor:middle;" transform="matrix(1 0 0 1 559.711 322)">Ultralight</text>
  <text style="stroke:none;fill:black;font-family:sans-serif;font-size:13;text-anchor:middle;" transform="matrix(1 0 0 1 856.422 322)">Thin</text>
  <text style="stroke:none;fill:black;font-family:sans-serif;font-size:13;text-anchor:middle;" transform="matrix(1 0 0 1 1153.13 322)">Light</text>
  <text style="stroke:none;fill:black;font-family:sans-serif;font-size:13;text-anchor:middle;" transform="matrix(1 0 0 1 1449.84 322)">Regular</text>
  <text style="stroke:none;fill:black;font-family:sans-serif;font-size:13;text-anchor:middle;" transform="matrix(1 0 0 1 1746.56 322)">Medium</text>
  <text style="stroke:none;fill:black;font-family:sans-serif;font-size:13;text-anchor:middle;" transform="matrix(1 0 0 1 2043.27 322)">Semibold</text>
  <text style="stroke:none;fill:black;font-family:sans-serif;font-size:13;text-anchor:middle;" transform="matrix(1 0 0 1 2339.98 322)">Bold</text>
  <text style="stroke:none;fill:black;font-family:sans-serif;font-size:13;text-anchor:middle;" transform="matrix(1 0 0 1 2636.69 322)">Heavy</text>
  <text style="stroke:none;fill:black;font-family:sans-serif;font-size:13;text-anchor:middle;" transform="matrix(1 0 0 1 2933.4 322)">Black</text>
  <line style="fill:none;stroke:black;opacity:1;stroke-width:0.5;" x1="263" x2="3036" y1="1903" y2="1903"/>
  <g transform="matrix(1 0 0 1 263 1933)">
   <path d="M9.24805 0.830078Q10.8691 0.830078 12.2949 0.214844Q13.7207-0.400391 14.8096-1.49414Q15.8984-2.58789 16.5186-4.01367Q17.1387-5.43945 17.1387-7.05078Q17.1387-8.66211 16.5186-10.0879Q15.8984-11.5137 14.8047-12.6074Q13.7109-13.7012 12.2852-14.3164Q10.8594-14.9316 9.23828-14.9316Q7.62695-14.9316 6.20117-14.3164Q4.77539-13.7012 3.69141-12.6074Q2.60742-11.5137 1.9873-10.0879Q1.36719-8.66211 1.36719-7.05078Q1.36719-5.43945 1.9873-4.01367Q2.60742-2.58789 3.69629-1.49414Q4.78516-0.400391 6.21094 0.214844Q7.63672 0.830078 9.24805 0.830078ZM9.24805-0.654297Q7.91992-0.654297 6.7627-1.14746Q5.60547-1.64062 4.73145-2.51953Q3.85742-3.39844 3.36426-4.56055Q2.87109-5.72266 2.87109-7.05078Q2.87109-8.37891 3.35938-9.54102Q3.84766-10.7031 4.72168-11.582Q5.5957-12.4609 6.75293-12.9541Q7.91016-13.4473 9.23828-13.4473Q10.5762-13.4473 11.7334-12.9541Q12.8906-12.4609 13.7695-11.582Q14.6484-10.7031 15.1465-9.54102Q15.6445-8.37891 15.6445-7.05078Q15.6445-5.72266 15.1514-4.56055Q14.6582-3.39844 13.7842-2.51953Q12.9102-1.64062 11.748-1.14746Q10.5859-0.654297 9.24805-0.654297ZM5.6543-7.05078Q5.6543-6.72852 5.85938-6.52832Q6.06445-6.32812 6.40625-6.32812L8.51562-6.32812L8.51562-4.20898Q8.51562-3.88672 8.71094-3.67676Q8.90625-3.4668 9.23828-3.4668Q9.56055-3.4668 9.77051-3.67676Q9.98047-3.88672 9.98047-4.20898L9.98047-6.32812L12.0898-6.32812Q12.4219-6.32812 12.627-6.52832Q12.832-6.72852 12.832-7.05078Q12.832-7.38281 12.627-7.58789Q12.4219-7.79297 12.0898-7.79297L9.98047-7.79297L9.98047-9.90234Q9.98047-10.2344 9.77051-10.4443Q9.56055-10.6543 9.23828-10.6543Q8.90625-10.6543 8.71094-10.4443Q8.51562-10.2344 8.51562-9.90234L8.51562-7.79297L6.40625-7.79297Q6.06445-7.79297 5.85938-7.58789Q5.6543-7.38281 5.6543-7.05078Z"/>
  </g>
  <g transform="matrix(1 0 0 1 281.867 1933)">
   <path d="M11.709 2.91016Q13.75 2.91016 15.5518 2.12891Q17.3535 1.34766 18.7305-0.0292969Q20.1074-1.40625 20.8887-3.20801Q21.6699-5.00977 21.6699-7.05078Q21.6699-9.0918 20.8887-10.8936Q20.1074-12.6953 18.7305-14.0723Q17.3535-15.4492 15.5469-16.2305Q13.7402-17.0117 11.6992-17.0117Q9.6582-17.0117 7.85645-16.2305Q6.05469-15.4492 4.68262-14.0723Q3.31055-12.6953 2.5293-10.8936Q1.74805-9.0918 1.74805-7.05078Q1.74805-5.00977 2.5293-3.20801Q3.31055-1.40625 4.6875-0.0292969Q6.06445 1.34766 7.86621 2.12891Q9.66797 2.91016 11.709 2.91016ZM11.709 1.25Q9.98047 1.25 8.47656 0.605469Q6.97266-0.0390625 5.83496-1.17676Q4.69727-2.31445 4.05762-3.81836Q3.41797-5.32227 3.41797-7.05078Q3.41797-8.7793 4.05762-10.2832Q4.69727-11.7871 5.83008-12.9297Q6.96289-14.0723 8.4668-14.7119Q9.9707-15.3516 11.6992-15.3516Q13.4277-15.3516 14.9316-14.7119Q16.4355-14.0723 17.5781-12.9297Q18.7207-11.7871 19.3652-10.2832Q20.0098-8.7793 20.0098-7.05078Q20.0098-5.32227 19.3701-3.81836Q18.7305-2.31445 17.5928-1.17676Q16.4551-0.0390625 14.9463 0.605469Q13.4375 1.25 11.709 1.25ZM7.17773-7.05078Q7.17773-6.69922 7.41211-6.47461Q7.64648-6.25 8.01758-6.25L10.8887-6.25L10.8887-3.36914Q10.8887-2.99805 11.1133-2.76855Q11.3379-2.53906 11.6895-2.53906Q12.0605-2.53906 12.29-2.76855Q12.5195-2.99805 12.5195-3.36914L12.5195-6.25L15.4004-6.25Q15.7715-6.25 16.001-6.47461Q16.2305-6.69922 16.2305-7.05078Q16.2305-7.42188 16.001-7.65137Q15.7715-7.88086 15.4004-7.88086L12.5195-7.88086L12.5195-10.752Q12.5195-11.1328 12.29-11.3623Q12.0605-11.5918 11.6895-11.5918Q11.3379-11.5918 11.1133-11.3574Q10.8887-11.123 10.8887-10.752L10.8887-7.88086L8.01758-7.88086Q7.63672-7.88086 7.40723-7.65137Q7.17773-7.42188 7.17773-7.05078Z"/>
  </g>
  <g transform="matrix(1 0 0 1 305.646 1933)">
   <path d="M14.9707 5.66406Q17.0605 5.66406 18.96 5.01465Q20.8594 4.36523 22.4512 3.19336Q24.043 2.02148 25.2197 0.429688Q26.3965-1.16211 27.0459-3.06641Q27.6953-4.9707 27.6953-7.05078Q27.6953-9.14062 27.0459-11.04Q26.3965-12.9395 25.2197-14.5312Q24.043-16.123 22.4512-17.2998Q20.8594-18.4766 18.9551-19.126Q17.0508-19.7754 14.9609-19.7754Q12.8711-19.7754 10.9717-19.126Q9.07227-18.4766 7.48535-17.2998Q5.89844-16.123 4.72168-14.5312Q3.54492-12.9395 2.90039-11.04Q2.25586-9.14062 2.25586-7.05078Q2.25586-4.9707 2.90527-3.06641Q3.55469-1.16211 4.72656 0.429688Q5.89844 2.02148 7.49023 3.19336Q9.08203 4.36523 10.9814 5.01465Q12.8809 5.66406 14.9707 5.66406ZM14.9707 3.84766Q13.1641 3.84766 11.5283 3.2959Q9.89258 2.74414 8.53516 1.74805Q7.17773 0.751953 6.17676-0.610352Q5.17578-1.97266 4.62891-3.6084Q4.08203-5.24414 4.08203-7.05078Q4.08203-8.86719 4.62891-10.5029Q5.17578-12.1387 6.17188-13.501Q7.16797-14.8633 8.52539-15.8594Q9.88281-16.8555 11.5186-17.4023Q13.1543-17.9492 14.9609-17.9492Q16.7773-17.9492 18.4131-17.4023Q20.0488-16.8555 21.4111-15.8594Q22.7734-14.8633 23.7695-13.501Q24.7656-12.1387 25.3174-10.5029Q25.8691-8.86719 25.8691-7.05078Q25.8789-5.24414 25.332-3.6084Q24.7852-1.97266 23.7842-0.610352Q22.7832 0.751953 21.4209 1.74805Q20.0586 2.74414 18.4229 3.2959Q16.7871 3.84766 14.9707 3.84766ZM9.19922-7.05078Q9.19922-6.66992 9.45801-6.4209Q9.7168-6.17188 10.1172-6.17188L14.0625-6.17188L14.0625-2.2168Q14.0625-1.81641 14.3115-1.55762Q14.5605-1.29883 14.9512-1.29883Q15.3516-1.29883 15.6104-1.55273Q15.8691-1.80664 15.8691-2.2168L15.8691-6.17188L19.8242-6.17188Q20.2246-6.17188 20.4785-6.4209Q20.7324-6.66992 20.7324-7.05078Q20.7324-7.46094 20.4785-7.71484Q20.2246-7.96875 19.8242-7.96875L15.8691-7.96875L15.8691-11.9141Q15.8691-12.3242 15.6104-12.583Q15.3516-12.8418 14.9512-12.8418Q14.5605-12.8418 14.3115-12.583Q14.0625-12.3242 14.0625-11.9141L14.0625-7.96875L10.1172-7.96875Q9.70703-7.96875 9.45312-7.71484Q9.19922-7.46094 9.19922-7.05078Z"/>
  </g>
  <text style="stroke:none;fill:black;font-family:sans-serif;font-size:13;font-weight:bold;" transform="matrix(1 0 0 1 263 1953)">Design Variations</text>
  <text style="stroke:none;fill:black;font-family:sans-serif;font-size:13;" transform="matrix(1 0 0 1 263 1971)">Symbols are supported in up to nine weights and three scales.</text>
  <text style="stroke:none;fill:black;font-family:sans-serif;font-size:13;" transform="matrix(1 0 0 1 263 1989)">For optimal layout with text and other symbols, vertically align</text>
  <text style="stroke:none;fill:black;font-family:sans-serif;font-size:13;" transform="matrix(1 0 0 1 263 2007)">symbols with the adjacent text.</text>
  <line style="fill:none;stroke:#00AEEF;stroke-width:0.5;opacity:1.0;" x1="776" x2="776" y1="1919" y2="1933"/>
  <g transform="matrix(1 0 0 1 776 1933)">
   <path d="M3.31055 0.15625Q3.70117 0.15625 3.91602-0.00976562Q4.13086-0.175781 4.26758-0.585938L5.52734-4.0332L11.2891-4.0332L12.5488-0.585938Q12.6855-0.175781 12.9004-0.00976562Q13.1152 0.15625 13.4961 0.15625Q13.8867 0.15625 14.1162-0.0585938Q14.3457-0.273438 14.3457-0.644531Q14.3457-0.869141 14.2383-1.17188L9.6582-13.3691Q9.48242-13.8184 9.17969-14.043Q8.87695-14.2676 8.4082-14.2676Q7.5-14.2676 7.17773-13.3789L2.59766-1.16211Q2.49023-0.859375 2.49023-0.634766Q2.49023-0.263672 2.70996-0.0537109Q2.92969 0.15625 3.31055 0.15625ZM6.00586-5.51758L8.37891-12.0898L8.42773-12.0898L10.8008-5.51758Z"/>
  </g>
  <line style="fill:none;stroke:#00AEEF;stroke-width:0.5;opacity:1.0;" x1="793.197" x2="793.197" y1="1919" y2="1933"/>
  <text style="stroke:none;fill:black;font-family:sans-serif;font-size:13;font-weight:bold;" transform="matrix(1 0 0 1 776 1953)">Margins</text>
  <text style="stroke:none;fill:black;font-family:sans-serif;font-size:13;" transform="matrix(1 0 0 1 776 1971)">Leading and trailing margins on the left and right side of each symbol</text>
  <text style="stroke:none;fill:black;font-family:sans-serif;font-size:13;" transform="matrix(1 0 0 1 776 1989)">can be adjusted by modifying the x-location of the margin guidelines.</text>
  <text style="stroke:none;fill:black;font-family:sans-serif;font-size:13;" transform="matrix(1 0 0 1 776 2007)">Modifications are automatically applied proportionally to all</text>
  <text style="stroke:none;fill:black;font-family:sans-serif;font-size:13;" transform="matrix(1 0 0 1 776 2025)">scales and weights.</text>
  <g transform="matrix(1 0 0 1 1289 1933)">
   <path d="M2.8418 1.86523L4.54102 3.57422Q5.18555 4.22852 5.90332 4.17969Q6.62109 4.13086 7.31445 3.35938L18.0078-8.42773L17.041-9.4043L6.42578 2.27539Q6.16211 2.57812 5.89355 2.61719Q5.625 2.65625 5.27344 2.30469L4.10156 1.14258Q3.75 0.791016 3.79395 0.522461Q3.83789 0.253906 4.14062-0.0195312L15.6152-10.8203L14.6387-11.7871L3.04688-0.898438Q2.30469-0.214844 2.25098 0.498047Q2.19727 1.21094 2.8418 1.86523ZM9.25781-16.3281Q8.94531-16.0254 8.90625-15.6348Q8.86719-15.2441 9.04297-14.9512Q9.21875-14.6777 9.55566-14.541Q9.89258-14.4043 10.3809-14.5215Q11.4746-14.7754 12.5977-14.7314Q13.7207-14.6875 14.7949-13.9844L14.209-12.5293Q13.9551-11.9043 14.0674-11.4404Q14.1797-10.9766 14.5801-10.5664L16.875-8.25195Q17.2363-7.88086 17.5781-7.82227Q17.9199-7.76367 18.3398-7.8418L19.4043-8.03711L20.0684-7.36328L20.0293-6.80664Q20-6.43555 20.1221-6.12305Q20.2441-5.81055 20.6055-5.44922L21.3672-4.70703Q21.7285-4.3457 22.1533-4.33105Q22.5781-4.31641 22.9297-4.66797L25.8398-7.58789Q26.1914-7.93945 26.1816-8.35449Q26.1719-8.76953 25.8105-9.13086L25.0391-9.89258Q24.6875-10.2539 24.3799-10.3857Q24.0723-10.5176 23.7109-10.4883L23.1348-10.4395L22.4902-11.0742L22.7344-12.1973Q22.832-12.6172 22.6953-12.9834Q22.5586-13.3496 22.1191-13.7891L19.9219-15.9766Q18.6719-17.2168 17.2607-17.8369Q15.8496-18.457 14.4189-18.4814Q12.9883-18.5059 11.665-17.959Q10.3418-17.4121 9.25781-16.3281ZM10.752-15.957Q11.6602-16.6211 12.7002-16.9043Q13.7402-17.1875 14.8047-17.085Q15.8691-16.9824 16.8701-16.5137Q17.8711-16.0449 18.7012-15.2051L21.1328-12.793Q21.3086-12.6172 21.3525-12.4512Q21.3965-12.2852 21.3379-12.0312L21.0156-10.5469L22.5195-9.0625L23.5059-9.12109Q23.6914-9.13086 23.7891-9.09668Q23.8867-9.0625 24.0332-8.91602L24.6094-8.33984L22.168-5.89844L21.5918-6.47461Q21.4453-6.62109 21.4062-6.71875Q21.3672-6.81641 21.377-7.01172L21.4453-7.98828L19.9512-9.47266L18.4277-9.21875Q18.1836-9.16992 18.042-9.2041Q17.9004-9.23828 17.7148-9.41406L15.7129-11.416Q15.5176-11.5918 15.4932-11.7529Q15.4688-11.9141 15.5859-12.1875L16.4648-14.2773Q15.293-15.3711 13.8281-15.791Q12.3633-16.2109 10.8398-15.7617Q10.7227-15.7324 10.6885-15.8057Q10.6543-15.8789 10.752-15.957Z"/>
  </g>
  <text style="stroke:none;fill:black;font-family:sans-serif;font-size:13;font-weight:bold;" transform="matrix(1 0 0 1 1289 1953)">Exporting</text>
  <text style="stroke:none;fill:black;font-family:sans-serif;font-size:13;" transform="matrix(1 0 0 1 1289 1971)">Symbols should be outlined when exporting to ensure the</text>
  <text style="stroke:none;fill:black;font-family:sans-serif;font-size:13;" transform="matrix(1 0 0 1 1289 1989)">design is preserved when submitting to Xcode.</text>
  <text id="template-version" style="stroke:none;fill:black;font-family:sans-serif;font-size:13;text-anchor:end;" transform="matrix(1 0 0 1 3036 1933)">Template v.2.0</text>
  <text style="stroke:none;fill:black;font-family:sans-serif;font-size:13;text-anchor:end;" transform="matrix(1 0 0 1 3036 1951)">Requires Xcode 13 or greater</text>
  <text id="descriptive-name" style="stroke:none;fill:black;font-family:sans-serif;font-size:13;text-anchor:end;" transform="matrix(1 0 0 1 3036 1969)">Generated from antenna.radiowaves.left.and.right</text>
  <text style="stroke:none;fill:black;font-family:sans-serif;font-size:13;text-anchor:end;" transform="matrix(1 0 0 1 3036 1987)">Typeset at 100 points</text>
  <text style="stroke:none;fill:black;font-family:sans-serif;font-size:13;" transform="matrix(1 0 0 1 263 726)">Small</text>
  <text style="stroke:none;fill:black;font-family:sans-serif;font-size:13;" transform="matrix(1 0 0 1 263 1156)">Medium</text>
  <text style="stroke:none;fill:black;font-family:sans-serif;font-size:13;" transform="matrix(1 0 0 1 263 1586)">Large</text>
 </g>
 <g id="Guides">
  <g id="H-reference" style="fill:#27AAE1;stroke:none;" transform="matrix(1 0 0 1 339 696)">
   <path d="M0.976562 0L3.66211 0L29.3457-67.1387L30.0293-67.1387L30.0293-70.459L28.125-70.459ZM11.6699-24.4629L46.9727-24.4629L46.2402-26.709L12.4512-26.709ZM55.127 0L57.7637 0L30.6152-70.459L29.4434-70.459L29.4434-67.1387Z"/>
  </g>
  <line id="Baseline-S" style="fill:none;stroke:#27AAE1;opacity:1;stroke-width:0.5;" x1="263" x2="3036" y1="696" y2="696"/>
  <line id="Capline-S" style="fill:none;stroke:#27AAE1;opacity:1;stroke-width:0.5;" x1="263" x2="3036" y1="625.541" y2="625.541"/>
  <g id="H-reference" style="fill:#27AAE1;stroke:none;" transform="matrix(1 0 0 1 339 1126)">
   <path d="M0.976562 0L3.66211 0L29.3457-67.1387L30.0293-67.1387L30.0293-70.459L28.125-70.459ZM11.6699-24.4629L46.9727-24.4629L46.2402-26.709L12.4512-26.709ZM55.127 0L57.7637 0L30.6152-70.459L29.4434-70.459L29.4434-67.1387Z"/>
  </g>
  <line id="Baseline-M" style="fill:none;stroke:#27AAE1;opacity:1;stroke-width:0.5;" x1="263" x2="3036" y1="1126" y2="1126"/>
  <line id="Capline-M" style="fill:none;stroke:#27AAE1;opacity:1;stroke-width:0.5;" x1="263" x2="3036" y1="1055.54" y2="1055.54"/>
  <g id="H-reference" style="fill:#27AAE1;stroke:none;" transform="matrix(1 0 0 1 339 1556)">
   <path d="M0.976562 0L3.66211 0L29.3457-67.1387L30.0293-67.1387L30.0293-70.459L28.125-70.459ZM11.6699-24.4629L46.9727-24.4629L46.2402-26.709L12.4512-26.709ZM55.127 0L57.7637 0L30.6152-70.459L29.4434-70.459L29.4434-67.1387Z"/>
  </g>
  <line id="Baseline-L" style="fill:none;stroke:#27AAE1;opacity:1;stroke-width:0.5;" x1="263" x2="3036" y1="1556" y2="1556"/>
  <line id="Capline-L" style="fill:none;stroke:#27AAE1;opacity:1;stroke-width:0.5;" x1="263" x2="3036" y1="1485.54" y2="1485.54"/>
  <line id="left-margin" style="fill:none;stroke:#00AEEF;stroke-width:0.5;opacity:1.0;" x1="1389.27" x2="1389.27" y1="1030.79" y2="1150.12"/>
  <line id="right-margin" style="fill:none;stroke:#00AEEF;stroke-width:0.5;opacity:1.0;" x1="1510.42" x2="1510.42" y1="1030.79" y2="1150.12"/>
 </g>
 <g id="Symbols">
  <g id="Black-L" transform="matrix(1 0 0 1 2846.22 1556)">
   <path d="M11.2793-48.7305Q11.2793-35.5469 15.3076-23.6572Q19.3359-11.7676 27.3926-3.36914Q30.7617 0.146484 34.4238-0.0244141Q38.0859-0.195312 40.4297-3.02734Q42.5781-5.66406 42.041-8.64258Q41.5039-11.6211 39.209-14.1602Q33.3496-20.6543 30.2979-29.6387Q27.2461-38.623 27.2461-48.7305Q27.2461-58.8379 30.2979-67.7979Q33.3496-76.7578 39.209-83.252Q41.5039-85.8398 42.041-88.7939Q42.5781-91.748 40.4297-94.3848Q38.0859-97.2168 34.4238-97.3877Q30.7617-97.5586 27.3926-94.043Q22.3145-88.7695 18.7012-81.5186Q15.0879-74.2676 13.1836-65.8691Q11.2793-57.4707 11.2793-48.7305ZM39.9902-48.7305Q39.9902-41.1133 42.1143-34.2529Q44.2383-27.3926 48.3398-22.9004Q51.3672-19.6289 55.1514-19.7021Q58.9355-19.7754 61.1328-22.6074Q63.0859-25.1465 62.6953-28.0273Q62.3047-30.9082 60.4004-33.5938Q58.5449-36.1816 57.251-40.4541Q55.957-44.7266 55.957-48.7305Q55.957-52.7344 57.251-57.0068Q58.5449-61.2793 60.4004-63.916Q62.3047-66.5527 62.6953-69.4336Q63.0859-72.3145 61.1328-74.8535Q58.9355-77.7344 55.1514-77.7832Q51.3672-77.832 48.3398-74.6094Q44.2383-70.0684 42.1143-63.208Q39.9902-56.3477 39.9902-48.7305ZM71.9238-48.7305Q71.9238-44.5312 73.999-41.0889Q76.0742-37.6465 79.4434-35.5957L79.4434 17.8223Q79.4434 21.6309 81.6162 24.0723Q83.7891 26.5137 87.207 26.5137Q90.7715 26.5137 92.8711 24.1455Q94.9707 21.7773 94.9707 17.8223L94.9707-35.5957Q98.291-37.6465 100.366-41.1133Q102.441-44.5801 102.441-48.7305Q102.441-52.9785 100.391-56.4209Q98.3398-59.8633 94.873-61.9385Q91.4062-64.0137 87.207-64.0137Q82.959-64.0137 79.5166-61.9385Q76.0742-59.8633 73.999-56.4209Q71.9238-52.9785 71.9238-48.7305ZM113.232-22.6074Q115.43-19.7754 119.214-19.7021Q122.998-19.6289 126.074-22.9004Q130.127-27.3926 132.275-34.2529Q134.424-41.1133 134.424-48.7305Q134.424-56.3477 132.275-63.208Q130.127-70.0684 126.074-74.6094Q122.998-77.832 119.214-77.7832Q115.43-77.7344 113.232-74.8535Q111.328-72.3145 111.719-69.4336Q112.109-66.5527 113.965-63.916Q115.869-61.2793 117.163-57.0068Q118.457-52.7344 118.457-48.7305Q118.457-44.7266 117.163-40.4541Q115.869-36.1816 113.965-33.5938Q112.109-30.9082 111.719-28.0273Q111.328-25.1465 113.232-22.6074ZM133.984-3.02734Q136.279-0.195312 139.941-0.0244141Q143.604 0.146484 147.021-3.36914Q155.029-11.7676 159.058-23.6572Q163.086-35.5469 163.086-48.7305Q163.086-57.4707 161.206-65.8691Q159.326-74.2676 155.713-81.5186Q152.1-88.7695 147.021-94.043Q143.604-97.5586 139.941-97.3877Q136.279-97.2168 133.984-94.3848Q131.787-91.748 132.324-88.7939Q132.861-85.8398 135.205-83.252Q141.016-76.7578 144.092-67.7979Q147.168-58.8379 147.168-48.7305Q147.168-38.623 144.092-29.6387Q141.016-20.6543 135.205-14.1602Q132.861-11.6211 132.324-8.64258Q131.787-5.66406 133.984-3.02734Z"/>
  </g>
  <g id="Heavy-L" transform="matrix(1 0 0 1 2552.05 1556)">
   <path d="M11.2793-48.9258Q11.2793-35.9863 15.3809-24.3652Q19.4824-12.7441 27.4414-4.3457Q30.3711-1.26953 33.6426-1.3916Q36.9141-1.51367 39.0137-4.00391Q40.9668-6.39648 40.4785-9.08203Q39.9902-11.7676 37.8906-14.1113Q31.8848-20.7031 28.7109-29.7363Q25.5371-38.7695 25.5371-48.9258Q25.5371-59.082 28.7109-68.0908Q31.8848-77.0996 37.8906-83.7402Q39.9902-86.084 40.4785-88.7695Q40.9668-91.4551 39.0137-93.7988Q36.9141-96.3379 33.6426-96.46Q30.3711-96.582 27.4414-93.457Q22.3633-88.1348 18.7256-81.0059Q15.0879-73.877 13.1836-65.6982Q11.2793-57.5195 11.2793-48.9258ZM39.3555-48.9258Q39.3555-41.5039 41.5039-34.79Q43.6523-28.0762 47.8027-23.4863Q50.4395-20.5566 53.8086-20.6055Q57.1777-20.6543 59.1797-23.1934Q60.9863-25.4395 60.5957-28.0518Q60.2051-30.6641 58.4473-33.1543Q56.2988-35.9375 54.9561-40.3076Q53.6133-44.6777 53.6133-48.9258Q53.6133-53.1738 54.9805-57.5195Q56.3477-61.8652 58.4473-64.7461Q60.2051-67.1875 60.5957-69.7998Q60.9863-72.4121 59.1797-74.6582Q57.1777-77.2461 53.8086-77.2705Q50.4395-77.2949 47.8027-74.4141Q43.6523-69.7754 41.5039-63.0615Q39.3555-56.3477 39.3555-48.9258ZM70.5078-48.9258Q70.5078-44.9219 72.5098-41.6992Q74.5117-38.4766 77.7832-36.6211L77.7832 17.7734Q77.7832 21.1426 79.7119 23.3154Q81.6406 25.4883 84.668 25.4883Q87.8418 25.4883 89.6973 23.3887Q91.5527 21.2891 91.5527 17.7734L91.5527-36.6211Q94.7754-38.4766 96.7773-41.7236Q98.7793-44.9707 98.7793-48.9258Q98.7793-52.8809 96.875-56.0547Q94.9707-59.2285 91.7725-61.1572Q88.5742-63.0859 84.668-63.0859Q80.7129-63.0859 77.5391-61.1572Q74.3652-59.2285 72.4365-56.0547Q70.5078-52.8809 70.5078-48.9258ZM110.107-23.1934Q112.109-20.6543 115.479-20.6055Q118.848-20.5566 121.533-23.4863Q125.635-28.0762 127.808-34.79Q129.98-41.5039 129.98-48.9258Q129.98-56.3477 127.808-63.0615Q125.635-69.7754 121.533-74.4141Q118.848-77.2949 115.479-77.2705Q112.109-77.2461 110.107-74.6582Q108.35-72.4121 108.74-69.7998Q109.131-67.1875 110.84-64.7461Q112.988-61.8652 114.355-57.5195Q115.723-53.1738 115.723-48.9258Q115.723-44.6777 114.38-40.3076Q113.037-35.9375 110.84-33.1543Q109.131-30.6641 108.74-28.0518Q108.35-25.4395 110.107-23.1934ZM130.322-4.00391Q132.373-1.51367 135.645-1.3916Q138.916-1.26953 141.895-4.3457Q149.854-12.7441 153.931-24.3652Q158.008-35.9863 158.008-48.9258Q158.008-57.5195 156.128-65.6982Q154.248-73.877 150.61-81.0059Q146.973-88.1348 141.895-93.457Q138.916-96.582 135.645-96.46Q132.373-96.3379 130.322-93.7988Q128.32-91.4551 128.809-88.7695Q129.297-86.084 131.445-83.7402Q137.402-77.0996 140.601-68.0908Q143.799-59.082 143.799-48.9258Q143.799-38.7695 140.601-29.7363Q137.402-20.7031 131.445-14.1113Q129.297-11.7676 128.809-9.08203Q128.32-6.39648 130.322-4.00391Z"/>
  </g>
  <g id="Bold-L" transform="matrix(1 0 0 1 2258.17 1556)">
   <path d="M11.2793-49.1699Q11.2793-36.5234 15.4541-25.1709Q19.6289-13.8184 27.5391-5.41992Q29.9805-2.83203 32.8125-2.90527Q35.6445-2.97852 37.4512-5.12695Q39.1602-7.17773 38.7451-9.57031Q38.3301-11.9629 36.4746-14.0137Q30.2734-20.8008 26.9531-29.8584Q23.6328-38.916 23.6328-49.1699Q23.6328-59.375 26.9531-68.4326Q30.2734-77.4902 36.4746-84.2773Q38.3301-86.377 38.7451-88.7451Q39.1602-91.1133 37.4512-93.1641Q35.6445-95.3125 32.8125-95.3857Q29.9805-95.459 27.5391-92.8711Q22.4121-87.4512 18.7744-80.4688Q15.1367-73.4863 13.208-65.5273Q11.2793-57.5684 11.2793-49.1699ZM38.623-49.1699Q38.623-41.9434 40.8447-35.4004Q43.0664-28.8574 47.168-24.1211Q49.4141-21.582 52.3438-21.6064Q55.2734-21.6309 57.0312-23.8281Q58.6426-25.8301 58.2764-28.125Q57.9102-30.4199 56.2988-32.6172Q53.8086-35.6934 52.3926-40.1367Q50.9766-44.5801 50.9766-49.1699Q50.9766-53.7109 52.4414-58.1299Q53.9062-62.5488 56.2988-65.7227Q57.8613-67.9199 58.252-70.2148Q58.6426-72.5098 57.0312-74.5117Q55.2734-76.709 52.3438-76.709Q49.4141-76.709 47.168-74.2188Q43.0664-69.4824 40.8447-62.9395Q38.623-56.3965 38.623-49.1699ZM68.9453-49.1699Q68.9453-45.4102 70.874-42.4072Q72.8027-39.4043 75.8789-37.793L75.8789 17.7246Q75.8789 20.6543 77.5391 22.5098Q79.1992 24.3652 81.8359 24.3652Q84.5703 24.3652 86.1816 22.5586Q87.793 20.752 87.793 17.7246L87.793-37.793Q90.8203-39.4043 92.7734-42.4316Q94.7266-45.459 94.7266-49.1699Q94.7266-52.7344 92.9932-55.6641Q91.2598-58.5938 88.3301-60.3271Q85.4004-62.0605 81.8359-62.0605Q78.2715-62.0605 75.3418-60.3271Q72.4121-58.5938 70.6787-55.6641Q68.9453-52.7344 68.9453-49.1699ZM106.641-23.8281Q108.398-21.6309 111.328-21.6064Q114.258-21.582 116.504-24.1211Q120.605-28.8574 122.827-35.4004Q125.049-41.9434 125.049-49.1699Q125.049-56.3965 122.827-62.9395Q120.605-69.4824 116.504-74.2188Q114.258-76.709 111.328-76.709Q108.398-76.709 106.641-74.5117Q105.029-72.5098 105.42-70.2148Q105.811-67.9199 107.373-65.7227Q109.766-62.5488 111.23-58.1299Q112.695-53.7109 112.695-49.1699Q112.695-44.5801 111.279-40.1367Q109.863-35.6934 107.373-32.6172Q105.811-30.4199 105.42-28.125Q105.029-25.8301 106.641-23.8281ZM126.221-5.12695Q128.027-2.97852 130.835-2.90527Q133.643-2.83203 136.133-5.41992Q144.043-13.8184 148.193-25.1709Q152.344-36.5234 152.344-49.1699Q152.344-57.5684 150.464-65.5273Q148.584-73.4863 144.922-80.4688Q141.26-87.4512 136.133-92.8711Q133.643-95.459 130.835-95.3857Q128.027-95.3125 126.221-93.1641Q124.512-91.1133 124.927-88.7451Q125.342-86.377 127.197-84.2773Q133.398-77.4902 136.719-68.4326Q140.039-59.375 140.039-49.1699Q140.039-38.916 136.719-29.8584Q133.398-20.8008 127.197-14.0137Q125.342-11.9629 124.927-9.57031Q124.512-7.17773 126.221-5.12695Z"/>
  </g>
  <g id="Semibold-L" transform="matrix(1 0 0 1 1963.41 1556)">
   <path d="M11.2793-49.3164Q11.2793-36.8652 15.5029-25.708Q19.7266-14.5508 27.5879-6.15234Q29.6875-3.90625 32.2021-3.93066Q34.7168-3.95508 36.377-5.9082Q37.9395-7.71484 37.5488-9.8877Q37.1582-12.0605 35.4492-13.9648Q29.1016-20.8496 25.708-29.9316Q22.3145-39.0137 22.3145-49.3164Q22.3145-59.5703 25.708-68.6523Q29.1016-77.7344 35.4492-84.6191Q37.1582-86.5723 37.5488-88.7207Q37.9395-90.8691 36.377-92.6758Q34.7168-94.6289 32.2021-94.6533Q29.6875-94.6777 27.5879-92.4316Q22.4121-86.9141 18.7744-80.0537Q15.1367-73.1934 13.208-65.3809Q11.2793-57.5684 11.2793-49.3164ZM38.1348-49.3164Q38.1348-42.2363 40.3809-35.791Q42.627-29.3457 46.7285-24.5605Q48.6816-22.3145 51.2939-22.3145Q53.9062-22.3145 55.5176-24.2188Q56.9824-26.0254 56.6406-28.125Q56.2988-30.2246 54.7852-32.2754Q52.0996-35.498 50.6348-40.0146Q49.1699-44.5312 49.1699-49.3164Q49.1699-54.0527 50.6836-58.5205Q52.1973-62.9883 54.7852-66.3574Q56.25-68.4082 56.6162-70.4834Q56.9824-72.5586 55.5176-74.3652Q53.9062-76.3184 51.2939-76.3184Q48.6816-76.3184 46.7285-74.0234Q42.627-69.2383 40.3809-62.8174Q38.1348-56.3965 38.1348-49.3164ZM67.8711-49.3164Q67.8711-45.752 69.7266-42.8955Q71.582-40.0391 74.5605-38.5742L74.5605 17.6758Q74.5605 20.2637 76.0498 21.9238Q77.5391 23.584 79.8828 23.584Q82.3242 23.584 83.7402 21.9727Q85.1562 20.3613 85.1562 17.6758L85.1562-38.5742Q88.0859-40.0391 89.9902-42.9199Q91.8945-45.8008 91.8945-49.3164Q91.8945-52.6367 90.2832-55.3711Q88.6719-58.1055 85.9375-59.7168Q83.2031-61.3281 79.8828-61.3281Q76.5137-61.3281 73.8037-59.7168Q71.0938-58.1055 69.4824-55.3711Q67.8711-52.6367 67.8711-49.3164ZM104.199-24.2188Q105.859-22.3145 108.447-22.3145Q111.035-22.3145 113.037-24.5605Q117.139-29.3457 119.385-35.791Q121.631-42.2363 121.631-49.3164Q121.631-56.3965 119.385-62.8174Q117.139-69.2383 113.037-74.0234Q111.035-76.3184 108.447-76.3184Q105.859-76.3184 104.199-74.3652Q102.734-72.5586 103.101-70.4834Q103.467-68.4082 104.932-66.3574Q107.52-62.9883 109.033-58.5205Q110.547-54.0527 110.547-49.3164Q110.547-44.5312 109.106-40.0146Q107.666-35.498 104.932-32.2754Q103.467-30.2246 103.101-28.125Q102.734-26.0254 104.199-24.2188ZM123.389-5.9082Q125-3.95508 127.515-3.93066Q130.029-3.90625 132.178-6.15234Q140.039-14.5508 144.238-25.708Q148.438-36.8652 148.438-49.3164Q148.438-57.5684 146.533-65.3809Q144.629-73.1934 140.967-80.0537Q137.305-86.9141 132.178-92.4316Q130.029-94.6777 127.515-94.6533Q125-94.6289 123.389-92.6758Q121.826-90.8691 122.192-88.7207Q122.559-86.5723 124.268-84.6191Q130.615-77.7344 134.009-68.6523Q137.402-59.5703 137.402-49.3164Q137.402-39.0137 134.009-29.9316Q130.615-20.8496 124.268-13.9648Q122.559-12.0605 122.192-9.8877Q121.826-7.71484 123.389-5.9082Z"/>
  </g>
  <g id="Medium-L" transform="matrix(1 0 0 1 1668.19 1556)">
   <path d="M11.2793-49.4141Q11.2793-37.1094 15.5273-26.0986Q19.7754-15.0879 27.6367-6.73828Q29.4922-4.73633 31.7627-4.73633Q34.0332-4.73633 35.5469-6.49414Q36.9629-8.1543 36.6211-10.1562Q36.2793-12.1582 34.668-13.916Q28.2715-20.8984 24.8047-30.0049Q21.3379-39.1113 21.3379-49.4141Q21.3379-59.7168 24.8047-68.8232Q28.2715-77.9297 34.668-84.9121Q36.2793-86.7188 36.6211-88.7207Q36.9629-90.7227 35.5469-92.334Q34.0332-94.0918 31.7627-94.0918Q29.4922-94.0918 27.6367-92.0898Q22.4121-86.5723 18.7744-79.7852Q15.1367-72.998 13.208-65.2832Q11.2793-57.5684 11.2793-49.4141ZM37.7441-49.4141Q37.7441-42.4316 40.0146-36.084Q42.2852-29.7363 46.4355-24.9023Q48.1445-22.8516 50.5127-22.8271Q52.8809-22.8027 54.3457-24.5605Q55.7617-26.2207 55.4199-28.1738Q55.0781-30.127 53.6133-31.9824Q50.7812-35.4004 49.292-39.9414Q47.8027-44.4824 47.8027-49.4141Q47.8027-54.3457 49.3652-58.8379Q50.9277-63.3301 53.6133-66.8457Q55.0293-68.75 55.3955-70.7031Q55.7617-72.6562 54.3457-74.2676Q52.8809-76.0254 50.5127-76.001Q48.1445-75.9766 46.4355-73.9258Q42.2852-69.043 40.0146-62.7197Q37.7441-56.3965 37.7441-49.4141ZM67.041-49.4141Q67.041-45.9961 68.8477-43.2617Q70.6543-40.5273 73.584-39.209L73.584 17.627Q73.584 19.9707 74.9268 21.4844Q76.2695 22.998 78.418 22.998Q80.6152 22.998 81.8848 21.5332Q83.1543 20.0684 83.1543 17.627L83.1543-39.209Q86.0352-40.5273 87.8906-43.2861Q89.7461-46.0449 89.7461-49.4141Q89.7461-52.5879 88.208-55.1758Q86.6699-57.7637 84.1064-59.2773Q81.543-60.791 78.418-60.791Q75.2441-60.791 72.6562-59.2773Q70.0684-57.7637 68.5547-55.1758Q67.041-52.5879 67.041-49.4141ZM102.393-24.5605Q103.906-22.8027 106.274-22.8271Q108.643-22.8516 110.4-24.9023Q114.502-29.7363 116.772-36.084Q119.043-42.4316 119.043-49.4141Q119.043-56.3965 116.772-62.7197Q114.502-69.043 110.4-73.9258Q108.643-75.9766 106.274-76.001Q103.906-76.0254 102.393-74.2676Q100.977-72.6562 101.367-70.7031Q101.758-68.75 103.125-66.8457Q105.859-63.3301 107.422-58.8379Q108.984-54.3457 108.984-49.4141Q108.984-44.4824 107.495-39.9414Q106.006-35.4004 103.125-31.9824Q101.758-30.127 101.367-28.1738Q100.977-26.2207 102.393-24.5605ZM121.24-6.49414Q122.705-4.73633 124.976-4.73633Q127.246-4.73633 129.15-6.73828Q137.012-15.0879 141.235-26.0986Q145.459-37.1094 145.459-49.4141Q145.459-57.5684 143.555-65.2832Q141.65-72.998 137.988-79.7852Q134.326-86.5723 129.15-92.0898Q127.246-94.0918 124.976-94.0918Q122.705-94.0918 121.24-92.334Q119.824-90.7227 120.166-88.7207Q120.508-86.7188 122.07-84.9121Q128.467-77.9297 131.958-68.8232Q135.449-59.7168 135.449-49.4141Q135.449-39.1113 131.958-30.0049Q128.467-20.8984 122.07-13.916Q120.508-12.1582 120.166-10.1562Q119.824-8.1543 121.24-6.49414Z"/>
  </g>
  <g id="Regular-L" transform="matrix(1 0 0 1 1373.4 1556)">
   <path d="M11.2793-49.5605Q11.2793-37.4512 15.5762-26.6357Q19.873-15.8203 27.6855-7.4707Q29.1992-5.81055 31.1768-5.76172Q33.1543-5.71289 34.4727-7.22656Q35.7422-8.69141 35.4492-10.4736Q35.1562-12.2559 33.6914-13.8672Q27.1484-20.9473 23.584-30.0781Q20.0195-39.209 20.0195-49.5605Q20.0195-59.9121 23.584-69.043Q27.1484-78.1738 33.6914-85.2539Q35.1562-86.9141 35.4492-88.6963Q35.7422-90.4785 34.4727-91.8945Q33.1543-93.4082 31.1768-93.3838Q29.1992-93.3594 27.6855-91.6504Q22.4609-86.084 18.7988-79.3945Q15.1367-72.7051 13.208-65.1611Q11.2793-57.6172 11.2793-49.5605ZM37.2559-49.5605Q37.2559-42.7246 39.5508-36.499Q41.8457-30.2734 45.9961-25.3418Q47.4121-23.5352 49.4873-23.5107Q51.5625-23.4863 52.8809-25Q54.1504-26.4648 53.8086-28.1982Q53.4668-29.9316 52.1484-31.6406Q49.0723-35.2051 47.5342-39.8193Q45.9961-44.4336 45.9961-49.5605Q45.9961-54.6875 47.6318-59.2285Q49.2676-63.7695 52.1484-67.4805Q53.418-69.2383 53.7842-70.9717Q54.1504-72.7051 52.8809-74.1211Q51.5625-75.6348 49.4873-75.6104Q47.4121-75.5859 45.9961-73.7793Q41.8457-68.8477 39.5508-62.6221Q37.2559-56.3965 37.2559-49.5605ZM65.9668-49.5605Q65.9668-46.2891 67.7246-43.7256Q69.4824-41.1621 72.3145-39.9902L72.3145 17.5781Q72.3145 19.6289 73.4619 20.9229Q74.6094 22.2168 76.4648 22.2168Q78.3691 22.2168 79.4678 20.9473Q80.5664 19.6777 80.5664 17.5781L80.5664-39.9902Q83.3496-41.1621 85.1562-43.75Q86.9629-46.3379 86.9629-49.5605Q86.9629-52.4902 85.5469-54.8828Q84.1309-57.2754 81.7627-58.6914Q79.3945-60.1074 76.4648-60.1074Q73.5352-60.1074 71.1426-58.6914Q68.75-57.2754 67.3584-54.8828Q65.9668-52.4902 65.9668-49.5605ZM100-25Q101.367-23.4863 103.418-23.5107Q105.469-23.5352 106.934-25.3418Q111.084-30.2734 113.379-36.499Q115.674-42.7246 115.674-49.5605Q115.674-56.3965 113.379-62.6221Q111.084-68.8477 106.934-73.7793Q105.469-75.5859 103.418-75.6104Q101.367-75.6348 100-74.1211Q98.7305-72.7051 99.0967-70.9717Q99.4629-69.2383 100.732-67.4805Q103.662-63.7695 105.273-59.2285Q106.885-54.6875 106.885-49.5605Q106.885-44.4336 105.371-39.8193Q103.857-35.2051 100.732-31.6406Q99.4629-29.9316 99.0967-28.1982Q98.7305-26.4648 100-25ZM118.457-7.22656Q119.727-5.71289 121.704-5.76172Q123.682-5.81055 125.244-7.4707Q133.057-15.8203 137.329-26.6357Q141.602-37.4512 141.602-49.5605Q141.602-57.6172 139.697-65.1611Q137.793-72.7051 134.106-79.3945Q130.42-86.084 125.244-91.6504Q123.682-93.3594 121.704-93.3838Q119.727-93.4082 118.457-91.8945Q117.188-90.4785 117.48-88.6963Q117.773-86.9141 119.189-85.2539Q125.732-78.1738 129.297-69.043Q132.861-59.9121 132.861-49.5605Q132.861-39.209 129.297-30.0781Q125.732-20.9473 119.189-13.8672Q117.773-12.2559 117.48-10.4736Q117.188-8.69141 118.457-7.22656Z"/>
  </g>
  <g id="Light-L" transform="matrix(1 0 0 1 1079.01 1556)">
   <path d="M11.2793-49.7559Q11.2793-37.8418 15.625-27.2705Q19.9707-16.6992 27.7344-8.59375Q28.8574-7.37305 30.3711-7.34863Q31.8848-7.32422 32.9102-8.44727Q33.8379-9.57031 33.6182-10.9375Q33.3984-12.3047 32.2754-13.4766Q25.4883-20.6055 21.7285-29.8828Q17.9688-39.1602 17.9688-49.7559Q17.9688-60.3516 21.7285-69.6289Q25.4883-78.9062 32.2754-86.0352Q33.3984-87.2559 33.6182-88.623Q33.8379-89.9902 32.9102-91.0645Q31.8848-92.1875 30.3711-92.1875Q28.8574-92.1875 27.7344-90.918Q22.5586-85.498 18.8721-78.9795Q15.1855-72.4609 13.2324-65.0635Q11.2793-57.666 11.2793-49.7559ZM36.5234-49.7559Q36.5234-43.0176 38.8428-36.9629Q41.1621-30.9082 45.4102-26.1719Q46.4844-24.8535 48.0713-24.8535Q49.6582-24.8535 50.6348-25.9766Q51.6113-27.0996 51.3428-28.4424Q51.0742-29.7852 50.0488-31.0059Q46.582-34.6191 44.8975-39.4775Q43.2129-44.3359 43.2129-49.7559Q43.2129-55.1758 45.0684-59.9121Q46.9238-64.6484 50.0488-68.457Q51.0254-69.7754 51.3184-71.1182Q51.6113-72.4609 50.6348-73.5352Q49.6582-74.6582 48.0713-74.6338Q46.4844-74.6094 45.4102-73.291Q41.1621-68.6035 38.8428-62.5244Q36.5234-56.4453 36.5234-49.7559ZM64.7461-49.7559Q64.7461-46.6797 66.4795-44.3115Q68.2129-41.9434 70.9473-41.0156L70.9473 17.8711Q70.9473 19.4336 71.8262 20.4346Q72.7051 21.4355 74.1211 21.4355Q75.5859 21.4355 76.4404 20.4346Q77.2949 19.4336 77.2949 17.8711L77.2949-41.0156Q79.9805-41.9434 81.7383-44.3359Q83.4961-46.7285 83.4961-49.7559Q83.4961-52.3926 82.251-54.5166Q81.0059-56.6406 78.8818-57.8857Q76.7578-59.1309 74.1211-59.1309Q71.5332-59.1309 69.3848-57.8857Q67.2363-56.6406 65.9912-54.5166Q64.7461-52.3926 64.7461-49.7559ZM97.5586-25.9766Q98.6328-24.8535 100.195-24.8535Q101.758-24.8535 102.881-26.1719Q107.08-30.9082 109.399-36.9629Q111.719-43.0176 111.719-49.7559Q111.719-56.4453 109.399-62.5244Q107.08-68.6035 102.881-73.291Q101.758-74.6094 100.195-74.6338Q98.6328-74.6582 97.5586-73.5352Q96.6309-72.4609 96.9238-71.1182Q97.2168-69.7754 98.1445-68.457Q101.367-64.6484 103.198-59.9121Q105.029-55.1758 105.029-49.7559Q105.029-44.3359 103.345-39.4775Q101.66-34.6191 98.1445-31.0059Q97.168-29.7852 96.8994-28.4424Q96.6309-27.0996 97.5586-25.9766ZM115.381-8.44727Q116.357-7.32422 117.871-7.34863Q119.385-7.37305 120.557-8.59375Q128.32-16.6992 132.642-27.2705Q136.963-37.8418 136.963-49.7559Q136.963-57.666 135.034-65.0635Q133.105-72.4609 129.395-78.9795Q125.684-85.498 120.557-90.918Q119.385-92.1875 117.871-92.1875Q116.357-92.1875 115.381-91.0645Q114.404-89.9902 114.648-88.623Q114.893-87.2559 115.967-86.0352Q122.754-78.9062 126.514-69.6289Q130.273-60.3516 130.273-49.7559Q130.273-39.1602 126.514-29.8828Q122.754-20.6055 115.967-13.4766Q114.893-12.3047 114.648-10.9375Q114.404-9.57031 115.381-8.44727Z"/>
  </g>
  <g id="Thin-L" transform="matrix(1 0 0 1 785.377 1556)">
   <path d="M11.2793-50Q11.2793-38.3301 15.6738-28.1006Q20.0684-17.8711 27.7344-10.1074Q28.418-9.42383 29.3213-9.42383Q30.2246-9.42383 30.8105-10.0586Q31.3477-10.6934 31.2012-11.499Q31.0547-12.3047 30.4199-12.9395Q23.291-20.166 19.2383-29.6387Q15.1855-39.1113 15.1855-50Q15.1855-60.8887 19.2383-70.3613Q23.291-79.834 30.4199-87.0605Q31.0547-87.6953 31.2012-88.501Q31.3477-89.3066 30.8105-89.9414Q30.2246-90.5762 29.3213-90.5762Q28.418-90.5762 27.7344-89.8926Q22.6562-84.7168 18.9453-78.418Q15.2344-72.1191 13.2568-64.9414Q11.2793-57.7637 11.2793-50ZM35.5469-50Q35.5469-43.4082 37.915-37.5732Q40.2832-31.7383 44.6289-27.2949Q45.2637-26.6113 46.1914-26.6113Q47.1191-26.6113 47.6562-27.2949Q48.1934-27.9297 48.0713-28.7354Q47.9492-29.541 47.3145-30.1758Q43.3594-33.7891 41.4551-38.9893Q39.5508-44.1895 39.5508-50Q39.5508-55.8105 41.6748-60.791Q43.7988-65.7715 47.3145-69.8242Q47.9004-70.5566 48.0469-71.3379Q48.1934-72.1191 47.6562-72.7051Q47.1191-73.3887 46.1914-73.3887Q45.2637-73.3887 44.6289-72.6562Q40.2832-68.2617 37.915-62.4023Q35.5469-56.543 35.5469-50ZM63.1348-50Q63.1348-47.2168 64.8438-45.1172Q66.5527-43.0176 69.0918-42.3828L69.0918 18.2129Q69.0918 19.1406 69.6289 19.751Q70.166 20.3613 71.0449 20.3613Q71.9238 20.3613 72.4365 19.751Q72.9492 19.1406 72.9492 18.2129L72.9492-42.3828Q75.5371-43.0176 77.2217-45.1172Q78.9062-47.2168 78.9062-50Q78.9062-52.1973 77.8564-53.9795Q76.8066-55.7617 75.0244-56.8359Q73.2422-57.9102 71.0449-57.9102Q68.8477-57.9102 67.0654-56.8359Q65.2832-55.7617 64.209-53.9795Q63.1348-52.1973 63.1348-50ZM94.3848-27.2949Q95.0195-26.6113 95.9229-26.6113Q96.8262-26.6113 97.4609-27.2949Q101.807-31.7383 104.15-37.5732Q106.494-43.4082 106.494-50Q106.494-56.543 104.15-62.4023Q101.807-68.2617 97.4609-72.6562Q96.8262-73.3887 95.9229-73.3887Q95.0195-73.3887 94.3848-72.7051Q93.8477-72.1191 94.0186-71.3379Q94.1895-70.5566 94.7754-69.8242Q98.291-65.7715 100.415-60.791Q102.539-55.8105 102.539-50Q102.539-44.1895 100.659-38.9893Q98.7793-33.7891 94.7754-30.1758Q94.1406-29.541 93.9941-28.7354Q93.8477-27.9297 94.3848-27.2949ZM111.279-10.0586Q111.865-9.42383 112.769-9.42383Q113.672-9.42383 114.355-10.1074Q122.021-17.8711 126.416-28.1006Q130.811-38.3301 130.811-50Q130.811-57.7637 128.833-64.9414Q126.855-72.1191 123.145-78.418Q119.434-84.7168 114.355-89.8926Q113.672-90.5762 112.769-90.5762Q111.865-90.5762 111.279-89.9414Q110.742-89.3066 110.889-88.501Q111.035-87.6953 111.67-87.0605Q118.799-79.834 122.827-70.3613Q126.855-60.8887 126.855-50Q126.855-39.1113 122.827-29.6387Q118.799-20.166 111.67-12.9395Q111.035-12.3047 110.889-11.499Q110.742-10.6934 111.279-10.0586Z"/>
  </g>
  <g id="Ultralight-L" transform="matrix(1 0 0 1 490.253 1556)">
   <path d="M11.2793-50.0977Q11.2793-38.5742 15.7227-28.5156Q20.166-18.457 27.7832-10.8887Q28.2227-10.498 28.7842-10.498Q29.3457-10.498 29.7363-10.8887Q30.0781-11.2793 29.9561-11.8164Q29.834-12.3535 29.4922-12.6953Q22.168-19.9707 17.9932-29.5166Q13.8184-39.0625 13.8184-50.0977Q13.8184-61.1816 17.9932-70.752Q22.168-80.3223 29.4922-87.5488Q29.834-87.8906 29.9561-88.4277Q30.0781-88.9648 29.7363-89.3555Q29.3457-89.7949 28.7842-89.7949Q28.2227-89.7949 27.7832-89.4043Q22.7051-84.3262 18.9941-78.125Q15.2832-71.9238 13.2812-64.8682Q11.2793-57.8125 11.2793-50.0977ZM35.0586-50.0977Q35.0586-43.6523 37.4512-37.915Q39.8438-32.1777 44.2383-27.8809Q44.6289-27.5391 45.2148-27.5391Q45.8008-27.5391 46.1426-27.9297Q46.4844-28.3203 46.4111-28.8818Q46.3379-29.4434 45.8984-29.7852Q41.6504-33.3984 39.6484-38.7451Q37.6465-44.0918 37.6465-50.0977Q37.6465-56.1523 39.917-61.2549Q42.1875-66.3574 45.8984-70.459Q46.2891-70.8984 46.3867-71.4111Q46.4844-71.9238 46.1426-72.3145Q45.8008-72.7051 45.2148-72.7051Q44.6289-72.7051 44.2383-72.3145Q39.8438-68.0664 37.4512-62.3291Q35.0586-56.5918 35.0586-50.0977ZM62.3535-50.0977Q62.3535-47.4609 64.0137-45.5078Q65.6738-43.5547 68.1641-43.0664L68.1641 18.4082Q68.1641 18.9941 68.5303 19.4092Q68.8965 19.8242 69.4824 19.8242Q70.0684 19.8242 70.4102 19.4092Q70.752 18.9941 70.752 18.4082L70.752-43.0664Q73.291-43.5547 74.9268-45.5078Q76.5625-47.4609 76.5625-50.0977Q76.5625-52.1484 75.6348-53.7354Q74.707-55.3223 73.0713-56.2744Q71.4355-57.2266 69.4824-57.2266Q67.4805-57.2266 65.8691-56.2744Q64.2578-55.3223 63.3057-53.7354Q62.3535-52.1484 62.3535-50.0977ZM92.7246-27.9297Q93.1641-27.5391 93.7256-27.5391Q94.2871-27.5391 94.7266-27.8809Q99.0723-32.1777 101.44-37.915Q103.809-43.6523 103.809-50.0977Q103.809-56.5918 101.44-62.3291Q99.0723-68.0664 94.7266-72.3145Q94.2871-72.7051 93.7256-72.7051Q93.1641-72.7051 92.7246-72.3145Q92.4316-71.9238 92.5537-71.4111Q92.6758-70.8984 93.0176-70.459Q96.7285-66.3574 99.0234-61.2549Q101.318-56.1523 101.318-50.0977Q101.318-44.0918 99.292-38.7451Q97.2656-33.3984 93.0176-29.7852Q92.5781-29.4434 92.5049-28.8818Q92.4316-28.3203 92.7246-27.9297ZM109.18-10.8887Q109.57-10.498 110.156-10.498Q110.742-10.498 111.182-10.8887Q118.799-18.457 123.218-28.5156Q127.637-38.5742 127.637-50.0977Q127.637-57.8125 125.659-64.8682Q123.682-71.9238 119.971-78.125Q116.26-84.3262 111.182-89.4043Q110.742-89.7949 110.156-89.7949Q109.57-89.7949 109.18-89.3555Q108.887-88.9648 108.984-88.4277Q109.082-87.8906 109.473-87.5488Q116.797-80.3223 120.947-70.752Q125.098-61.1816 125.098-50.0977Q125.098-39.0625 120.947-29.5166Q116.797-19.9707 109.473-12.6953Q109.082-12.3535 108.984-11.8164Q108.887-11.2793 109.18-10.8887Z"/>
  </g>
  <g id="Black-M" transform="matrix(1 0 0 1 2864.45 1126)">
   <path d="M8.74023-45.6055Q8.74023-35.2051 11.8164-25.8789Q14.8926-16.5527 21.1426-10.1074Q24.0234-7.17773 27.0508-7.32422Q30.0781-7.4707 31.9824-9.86328Q33.7402-11.9629 33.3008-14.3799Q32.8613-16.7969 31.0059-18.8477Q26.5625-23.7305 24.2188-30.7129Q21.875-37.6953 21.875-45.6055Q21.875-53.418 24.2188-60.4004Q26.5625-67.3828 31.0059-72.2656Q32.8613-74.3164 33.3008-76.7334Q33.7402-79.1504 31.9824-81.2988Q30.0781-83.6426 27.0508-83.8135Q24.0234-83.9844 21.1426-81.0547Q17.2852-77.0508 14.502-71.3867Q11.7188-65.7227 10.2295-59.1064Q8.74023-52.4902 8.74023-45.6055ZM31.2988-45.6055Q31.2988-39.5508 32.9346-34.1797Q34.5703-28.8086 37.7441-25.4395Q40.2832-22.8027 43.4082-22.876Q46.5332-22.9492 48.291-25.293Q49.8047-27.3438 49.5361-29.6875Q49.2676-32.0312 47.7539-34.1309Q46.4355-35.9863 45.4346-39.3066Q44.4336-42.627 44.4336-45.6055Q44.4336-48.5352 45.4346-51.8799Q46.4355-55.2246 47.7539-57.0801Q49.2676-59.1309 49.5361-61.4746Q49.8047-63.8184 48.291-65.8691Q46.5332-68.2617 43.4082-68.335Q40.2832-68.4082 37.7441-65.7227Q34.5703-62.4023 32.9346-57.0068Q31.2988-51.6113 31.2988-45.6055ZM56.543-45.6055Q56.543-42.2363 58.2031-39.4287Q59.8633-36.6211 62.5488-35.0098L62.5488 6.00586Q62.5488 9.17969 64.3311 11.2061Q66.1133 13.2324 68.9453 13.2324Q71.9238 13.2324 73.6572 11.2793Q75.3906 9.32617 75.3906 6.00586L75.3906-35.0098Q78.0273-36.6211 79.6875-39.4287Q81.3477-42.2363 81.3477-45.6055Q81.3477-49.0234 79.6631-51.8311Q77.9785-54.6387 75.1709-56.3232Q72.3633-58.0078 68.9453-58.0078Q65.5273-58.0078 62.7197-56.3232Q59.9121-54.6387 58.2275-51.8311Q56.543-49.0234 56.543-45.6055ZM89.5996-25.293Q91.3574-22.9492 94.4824-22.876Q97.6074-22.8027 100.195-25.4395Q103.369-28.8086 105.005-34.1797Q106.641-39.5508 106.641-45.6055Q106.641-51.6113 105.005-57.0068Q103.369-62.4023 100.195-65.7227Q97.6074-68.4082 94.4824-68.335Q91.3574-68.2617 89.5996-65.8691Q88.0859-63.8184 88.3789-61.4746Q88.6719-59.1309 90.1367-57.0801Q91.4551-55.2246 92.4805-51.8799Q93.5059-48.5352 93.5059-45.6055Q93.5059-42.627 92.4805-39.3066Q91.4551-35.9863 90.1367-34.1309Q88.6719-32.0312 88.3789-29.6875Q88.0859-27.3438 89.5996-25.293ZM105.908-9.86328Q107.812-7.4707 110.84-7.32422Q113.867-7.17773 116.748-10.1074Q122.998-16.5527 126.074-25.8789Q129.15-35.2051 129.15-45.6055Q129.15-52.4902 127.686-59.1064Q126.221-65.7227 123.438-71.3867Q120.654-77.0508 116.748-81.0547Q113.867-83.9844 110.84-83.8135Q107.812-83.6426 105.908-81.2988Q104.15-79.1504 104.59-76.7334Q105.029-74.3164 106.885-72.2656Q111.377-67.3828 113.721-60.4004Q116.064-53.418 116.064-45.6055Q116.064-37.6953 113.721-30.7129Q111.377-23.7305 106.885-18.8477Q105.029-16.7969 104.59-14.3799Q104.15-11.9629 105.908-9.86328Z"/>
  </g>
  <g id="Heavy-M" transform="matrix(1 0 0 1 2569.72 1126)">
   <path d="M8.74023-45.752Q8.74023-35.5957 11.8652-26.4404Q14.9902-17.2852 21.1914-10.791Q23.7305-8.20312 26.4648-8.30078Q29.1992-8.39844 30.957-10.5469Q32.5684-12.5 32.1777-14.7217Q31.7871-16.9434 30.0293-18.8477Q25.4883-23.877 23.0713-30.8594Q20.6543-37.8418 20.6543-45.752Q20.6543-53.5645 23.0713-60.5713Q25.4883-67.5781 30.0293-72.5586Q31.7871-74.5117 32.1777-76.7334Q32.5684-78.9551 30.957-80.9082Q29.1992-83.0078 26.4648-83.1299Q23.7305-83.252 21.1914-80.6641Q17.2852-76.5625 14.502-70.9961Q11.7188-65.4297 10.2295-58.96Q8.74023-52.4902 8.74023-45.752ZM30.8105-45.752Q30.8105-39.8438 32.4951-34.5947Q34.1797-29.3457 37.3535-25.8301Q39.5508-23.4375 42.3828-23.4863Q45.2148-23.5352 46.875-25.6348Q48.291-27.5391 48.0225-29.6875Q47.7539-31.8359 46.2891-33.8379Q44.7754-35.8887 43.75-39.2334Q42.7246-42.5781 42.7246-45.752Q42.7246-48.877 43.75-52.2461Q44.7754-55.6152 46.2891-57.7148Q47.7539-59.6191 48.0225-61.792Q48.291-63.9648 46.875-65.8203Q45.2148-67.9688 42.3828-68.0176Q39.5508-68.0664 37.3535-65.625Q34.1797-62.1582 32.4951-56.8848Q30.8105-51.6113 30.8105-45.752ZM55.4199-45.752Q55.4199-42.5781 57.0312-39.917Q58.6426-37.2559 61.1816-35.791L61.1816 5.9082Q61.1816 8.78906 62.793 10.5957Q64.4043 12.4023 66.9922 12.4023Q69.6777 12.4023 71.2158 10.6445Q72.7539 8.88672 72.7539 5.9082L72.7539-35.791Q75.293-37.2559 76.9043-39.917Q78.5156-42.5781 78.5156-45.752Q78.5156-48.9258 76.9531-51.5625Q75.3906-54.1992 72.7783-55.7617Q70.166-57.3242 66.9922-57.3242Q63.7695-57.3242 61.1572-55.7617Q58.5449-54.1992 56.9824-51.5625Q55.4199-48.9258 55.4199-45.752ZM87.0605-25.6348Q88.7207-23.5352 91.5527-23.4863Q94.3848-23.4375 96.6309-25.8301Q99.8047-29.3457 101.465-34.5947Q103.125-39.8438 103.125-45.752Q103.125-51.6113 101.465-56.8848Q99.8047-62.1582 96.6309-65.625Q94.3848-68.0664 91.5527-68.0176Q88.7207-67.9688 87.0605-65.8203Q85.6445-63.9648 85.9375-61.792Q86.2305-59.6191 87.6465-57.7148Q89.1602-55.6152 90.21-52.2461Q91.2598-48.877 91.2598-45.752Q91.2598-42.5781 90.21-39.2334Q89.1602-35.8887 87.6465-33.8379Q86.2305-31.8359 85.9375-29.6875Q85.6445-27.5391 87.0605-25.6348ZM102.979-10.5469Q104.736-8.39844 107.471-8.30078Q110.205-8.20312 112.744-10.791Q118.945-17.2852 122.07-26.4404Q125.195-35.5957 125.195-45.752Q125.195-52.4902 123.73-58.96Q122.266-65.4297 119.458-70.9961Q116.65-76.5625 112.744-80.6641Q110.205-83.252 107.471-83.1299Q104.736-83.0078 102.979-80.9082Q101.367-78.9551 101.758-76.7334Q102.148-74.5117 103.906-72.5586Q108.496-67.5781 110.913-60.5713Q113.33-53.5645 113.33-45.752Q113.33-37.8418 110.913-30.8594Q108.496-23.877 103.906-18.8477Q102.148-16.9434 101.758-14.7217Q101.367-12.5 102.979-10.5469Z"/>
  </g>
  <g id="Bold-M" transform="matrix(1 0 0 1 2275.21 1126)">
   <path d="M8.74023-45.9473Q8.74023-35.9863 11.9385-27.0508Q15.1367-18.1152 21.2891-11.6211Q23.4375-9.375 25.8545-9.42383Q28.2715-9.47266 29.7852-11.377Q31.25-13.0859 30.9082-15.0879Q30.5664-17.0898 28.9551-18.8965Q24.2676-24.0723 21.7773-31.0547Q19.2871-38.0371 19.2871-45.9473Q19.2871-53.7598 21.7773-60.7666Q24.2676-67.7734 28.9551-72.9492Q30.5664-74.707 30.9082-76.7334Q31.25-78.7598 29.7852-80.4688Q28.2715-82.3242 25.8545-82.3975Q23.4375-82.4707 21.2891-80.2246Q17.334-76.0254 14.5264-70.5566Q11.7188-65.0879 10.2295-58.8135Q8.74023-52.5391 8.74023-45.9473ZM30.3223-45.9473Q30.3223-40.2344 32.0068-35.083Q33.6914-29.9316 36.8652-26.2695Q38.7695-24.1211 41.2842-24.1455Q43.7988-24.1699 45.2637-26.0254Q46.6309-27.7344 46.3379-29.6875Q46.0449-31.6406 44.6777-33.4961Q42.9199-35.791 41.8945-39.1602Q40.8691-42.5293 40.8691-45.9473Q40.8691-49.3164 41.9189-52.6855Q42.9688-56.0547 44.6777-58.3984Q46.0449-60.2051 46.3379-62.1582Q46.6309-64.1113 45.2637-65.8203Q43.7988-67.6758 41.2842-67.7002Q38.7695-67.7246 36.8652-65.5762Q33.6914-61.9141 32.0068-56.7627Q30.3223-51.6113 30.3223-45.9473ZM54.1992-45.9473Q54.1992-42.9199 55.7129-40.4541Q57.2266-37.9883 59.7168-36.6699L59.7168 5.81055Q59.7168 8.30078 61.1328 9.91211Q62.5488 11.5234 64.7949 11.5234Q67.1387 11.5234 68.5059 9.96094Q69.873 8.39844 69.873 5.81055L69.873-36.6699Q72.2656-37.9883 73.8037-40.4541Q75.3418-42.9199 75.3418-45.9473Q75.3418-48.877 73.9258-51.2695Q72.5098-53.6621 70.1172-55.1025Q67.7246-56.543 64.7949-56.543Q61.8164-56.543 59.4238-55.1025Q57.0312-53.6621 55.6152-51.2695Q54.1992-48.877 54.1992-45.9473ZM84.2773-26.0254Q85.7422-24.1699 88.2568-24.1455Q90.7715-24.1211 92.6758-26.2695Q95.8496-29.9316 97.5586-35.083Q99.2676-40.2344 99.2676-45.9473Q99.2676-51.6113 97.5586-56.7627Q95.8496-61.9141 92.6758-65.5762Q90.7715-67.7246 88.2568-67.7002Q85.7422-67.6758 84.2773-65.8203Q82.9102-64.1113 83.2275-62.1582Q83.5449-60.2051 84.8633-58.3984Q86.5723-56.0547 87.6465-52.6855Q88.7207-49.3164 88.7207-45.9473Q88.7207-42.5293 87.6709-39.1602Q86.6211-35.791 84.8633-33.4961Q83.5449-31.6406 83.2275-29.6875Q82.9102-27.7344 84.2773-26.0254ZM99.7559-11.377Q101.27-9.47266 103.687-9.42383Q106.104-9.375 108.252-11.6211Q114.404-18.1152 117.603-27.0508Q120.801-35.9863 120.801-45.9473Q120.801-52.5391 119.312-58.8135Q117.822-65.0879 115.015-70.5566Q112.207-76.0254 108.252-80.2246Q106.104-82.4707 103.687-82.3975Q101.27-82.3242 99.7559-80.4688Q98.291-78.7598 98.6328-76.7334Q98.9746-74.707 100.586-72.9492Q105.273-67.7734 107.764-60.7666Q110.254-53.7598 110.254-45.9473Q110.254-38.0371 107.764-31.0547Q105.273-24.0723 100.586-18.8965Q98.9746-17.0898 98.6328-15.0879Q98.291-13.0859 99.7559-11.377Z"/>
  </g>
  <g id="Semibold-M" transform="matrix(1 0 0 1 1980.03 1126)">
   <path d="M8.74023-46.0449Q8.74023-36.2793 11.9629-27.4902Q15.1855-18.7012 21.3379-12.1582Q23.2422-10.1562 25.415-10.1807Q27.5879-10.2051 29.0039-11.9141Q30.3223-13.4766 30.0049-15.332Q29.6875-17.1875 28.2227-18.8965Q23.4375-24.1699 20.8984-31.1768Q18.3594-38.1836 18.3594-46.0449Q18.3594-53.9062 20.8984-60.8887Q23.4375-67.8711 28.2227-73.1445Q29.6875-74.8535 30.0049-76.709Q30.3223-78.5645 29.0039-80.1758Q27.5879-81.8359 25.415-81.8848Q23.2422-81.9336 21.3379-79.9316Q17.334-75.6348 14.5264-70.2393Q11.7188-64.8438 10.2295-58.6914Q8.74023-52.5391 8.74023-46.0449ZM29.9316-46.0449Q29.9316-40.4297 31.6406-35.376Q33.3496-30.3223 36.5234-26.5625Q38.2324-24.6094 40.5029-24.6094Q42.7734-24.6094 44.1406-26.2695Q45.459-27.832 45.1416-29.6387Q44.8242-31.4453 43.5547-33.252Q41.6504-35.6934 40.6006-39.0869Q39.5508-42.4805 39.5508-46.0449Q39.5508-49.5605 40.625-52.9541Q41.6992-56.3477 43.5547-58.8379Q44.8242-60.5957 45.1416-62.4023Q45.459-64.209 44.1406-65.7715Q42.7734-67.4805 40.5029-67.4805Q38.2324-67.4805 36.5234-65.4785Q33.3496-61.7188 31.6406-56.665Q29.9316-51.6113 29.9316-46.0449ZM53.3203-46.0449Q53.3203-43.1641 54.7852-40.8203Q56.25-38.4766 58.6426-37.2559L58.6426 5.71289Q58.6426 7.95898 59.9365 9.42383Q61.2305 10.8887 63.2324 10.8887Q65.3809 10.8887 66.6016 9.47266Q67.8223 8.05664 67.8223 5.71289L67.8223-37.2559Q70.166-38.4766 71.6553-40.8203Q73.1445-43.1641 73.1445-46.0449Q73.1445-48.7793 71.8262-51.0498Q70.5078-53.3203 68.2617-54.6631Q66.0156-56.0059 63.2324-56.0059Q60.4492-56.0059 58.2275-54.6631Q56.0059-53.3203 54.6631-51.0498Q53.3203-48.7793 53.3203-46.0449ZM82.3242-26.2695Q83.6914-24.6094 85.9619-24.6094Q88.2324-24.6094 89.9414-26.5625Q93.1152-30.3223 94.8242-35.376Q96.5332-40.4297 96.5332-46.0449Q96.5332-51.6113 94.8242-56.665Q93.1152-61.7188 89.9414-65.4785Q88.2324-67.4805 85.9619-67.4805Q83.6914-67.4805 82.3242-65.7715Q81.0059-64.209 81.3232-62.4023Q81.6406-60.5957 82.9102-58.8379Q84.7656-56.3477 85.8643-52.9541Q86.9629-49.5605 86.9629-46.0449Q86.9629-42.4805 85.8887-39.0869Q84.8145-35.6934 82.9102-33.252Q81.6406-31.4453 81.3232-29.6387Q81.0059-27.832 82.3242-26.2695ZM97.4609-11.9141Q98.877-10.2051 101.074-10.1807Q103.271-10.1562 105.127-12.1582Q111.279-18.7012 114.502-27.4902Q117.725-36.2793 117.725-46.0449Q117.725-52.5391 116.235-58.6914Q114.746-64.8438 111.938-70.2393Q109.131-75.6348 105.127-79.9316Q103.271-81.9336 101.074-81.8848Q98.877-81.8359 97.4609-80.1758Q96.1426-78.5645 96.46-76.709Q96.7773-74.8535 98.2422-73.1445Q103.027-67.8711 105.591-60.8887Q108.154-53.9062 108.154-46.0449Q108.154-38.1836 105.591-31.1768Q103.027-24.1699 98.2422-18.8965Q96.7773-17.1875 96.46-15.332Q96.1426-13.4766 97.4609-11.9141Z"/>
  </g>
  <g id="Medium-M" transform="matrix(1 0 0 1 1684.47 1126)">
   <path d="M8.74023-46.1426Q8.74023-36.4746 11.9873-27.7832Q15.2344-19.0918 21.3867-12.5488Q23.0469-10.7422 25.0488-10.7422Q27.0508-10.7422 28.3691-12.3047Q29.6387-13.7695 29.3457-15.5273Q29.0527-17.2852 27.6367-18.8965Q22.8027-24.2676 20.2148-31.25Q17.627-38.2324 17.627-46.1426Q17.627-53.9551 20.2148-60.9619Q22.8027-67.9688 27.6367-73.3398Q29.0527-74.9512 29.3457-76.709Q29.6387-78.4668 28.3691-79.9316Q27.0508-81.4941 25.0488-81.4941Q23.0469-81.4941 21.3867-79.6875Q17.3828-75.3906 14.5508-70.0195Q11.7188-64.6484 10.2295-58.6182Q8.74023-52.5879 8.74023-46.1426ZM29.6387-46.1426Q29.6387-40.625 31.3721-35.6445Q33.1055-30.6641 36.2793-26.8066Q37.793-24.9512 39.8926-24.9512Q41.9922-24.9512 43.3105-26.5137Q44.5801-27.9297 44.2627-29.6387Q43.9453-31.3477 42.7246-33.0566Q40.6738-35.6445 39.5996-39.0625Q38.5254-42.4805 38.5254-46.1426Q38.5254-49.7559 39.6484-53.1738Q40.7715-56.5918 42.7246-59.1797Q43.9453-60.8887 44.2627-62.5977Q44.5801-64.3066 43.3105-65.7715Q41.9922-67.2852 39.8926-67.2852Q37.793-67.2852 36.2793-65.4297Q33.1055-61.6211 31.3721-56.6162Q29.6387-51.6113 29.6387-46.1426ZM52.6367-46.1426Q52.6367-43.3594 54.0771-41.1133Q55.5176-38.8672 57.8613-37.7441L57.8613 5.66406Q57.8613 7.71484 59.0332 9.05762Q60.2051 10.4004 62.1094 10.4004Q64.0137 10.4004 65.1611 9.10645Q66.3086 7.8125 66.3086 5.66406L66.3086-37.7441Q68.5547-38.8672 70.0195-41.1133Q71.4844-43.3594 71.4844-46.1426Q71.4844-48.7305 70.2148-50.8789Q68.9453-53.0273 66.8213-54.3213Q64.6973-55.6152 62.1094-55.6152Q59.4238-55.6152 57.2998-54.3213Q55.1758-53.0273 53.9062-50.8789Q52.6367-48.7305 52.6367-46.1426ZM80.8105-26.5137Q82.1289-24.9512 84.2529-24.9512Q86.377-24.9512 87.8418-26.8066Q91.0156-30.6641 92.7734-35.6445Q94.5312-40.625 94.5312-46.1426Q94.5312-51.6113 92.7734-56.6162Q91.0156-61.6211 87.8418-65.4297Q86.377-67.2852 84.2529-67.2852Q82.1289-67.2852 80.8105-65.7715Q79.5898-64.3066 79.9072-62.5977Q80.2246-60.8887 81.4453-59.1797Q83.3984-56.5918 84.4971-53.1738Q85.5957-49.7559 85.5957-46.1426Q85.5957-42.4805 84.5459-39.0625Q83.4961-35.6445 81.4453-33.0566Q80.2246-31.3477 79.9072-29.6387Q79.5898-27.9297 80.8105-26.5137ZM95.8008-12.3047Q97.0703-10.7422 99.0967-10.7422Q101.123-10.7422 102.783-12.5488Q108.887-19.0918 112.158-27.7832Q115.43-36.4746 115.43-46.1426Q115.43-52.5879 113.94-58.6182Q112.451-64.6484 109.619-70.0195Q106.787-75.3906 102.783-79.6875Q101.123-81.4941 99.0967-81.4941Q97.0703-81.4941 95.8008-79.9316Q94.4824-78.4668 94.7998-76.709Q95.1172-74.9512 96.5332-73.3398Q101.367-67.9688 103.955-60.9619Q106.543-53.9551 106.543-46.1426Q106.543-38.2324 103.955-31.25Q101.367-24.2676 96.5332-18.8965Q95.1172-17.2852 94.7998-15.5273Q94.4824-13.7695 95.8008-12.3047Z"/>
  </g>
  <g id="Regular-M" transform="matrix(1 0 0 1 1389.27 1126)">
   <path d="M8.74023-46.2402Q8.74023-36.7676 12.0361-28.2227Q15.332-19.6777 21.4355-13.0859Q22.8516-11.5234 24.6338-11.499Q26.416-11.4746 27.5879-12.8418Q28.7598-14.1602 28.4912-15.7715Q28.2227-17.3828 26.9043-18.8965Q21.9727-24.3652 19.3359-31.3721Q16.6992-38.3789 16.6992-46.2402Q16.6992-54.1016 19.3359-61.1084Q21.9727-68.1152 26.9043-73.584Q28.2227-75.0977 28.4912-76.709Q28.7598-78.3203 27.5879-79.6387Q26.416-81.0059 24.6338-80.9814Q22.8516-80.957 21.4355-79.3945Q17.3828-75 14.5508-69.7021Q11.7188-64.4043 10.2295-58.4961Q8.74023-52.5879 8.74023-46.2402ZM29.2969-46.2402Q29.2969-40.8691 31.0547-35.9619Q32.8125-31.0547 35.9863-27.0996Q37.2559-25.4395 39.1357-25.415Q41.0156-25.3906 42.2363-26.7578Q43.4082-28.0762 43.0908-29.6387Q42.7734-31.2012 41.6016-32.8125Q39.4043-35.5469 38.3301-38.9893Q37.2559-42.4316 37.2559-46.2402Q37.2559-50.0488 38.3789-53.4668Q39.502-56.8848 41.6016-59.668Q42.7734-61.2793 43.0908-62.8418Q43.4082-64.4043 42.2363-65.7227Q41.0156-67.0898 39.1357-67.0654Q37.2559-67.041 35.9863-65.3809Q32.8125-61.4258 31.0547-56.5186Q29.2969-51.6113 29.2969-46.2402ZM51.8066-46.2402Q51.8066-43.6035 53.1982-41.4795Q54.5898-39.3555 56.8359-38.3301L56.8359 5.56641Q56.8359 7.42188 57.8857 8.59375Q58.9355 9.76562 60.5957 9.76562Q62.3047 9.76562 63.3057 8.61816Q64.3066 7.4707 64.3066 5.56641L64.3066-38.3301Q66.5039-39.3555 67.9199-41.4795Q69.3359-43.6035 69.3359-46.2402Q69.3359-48.6816 68.1641-50.6836Q66.9922-52.6855 65.0146-53.8818Q63.0371-55.0781 60.5957-55.0781Q58.1055-55.0781 56.1279-53.8818Q54.1504-52.6855 52.9785-50.6836Q51.8066-48.6816 51.8066-46.2402ZM78.9062-26.7578Q80.127-25.3906 82.0068-25.415Q83.8867-25.4395 85.1562-27.0996Q88.3301-31.0547 90.0879-35.9619Q91.8457-40.8691 91.8457-46.2402Q91.8457-51.6113 90.0879-56.5186Q88.3301-61.4258 85.1562-65.3809Q83.8867-67.041 82.0068-67.0654Q80.127-67.0898 78.9062-65.7227Q77.7344-64.4043 78.0518-62.8418Q78.3691-61.2793 79.541-59.668Q81.6406-56.8848 82.7637-53.4668Q83.8867-50.0488 83.8867-46.2402Q83.8867-42.4316 82.8125-38.9893Q81.7383-35.5469 79.541-32.8125Q78.3691-31.2012 78.0518-29.6387Q77.7344-28.0762 78.9062-26.7578ZM93.5547-12.8418Q94.7266-11.4746 96.5332-11.499Q98.3398-11.5234 99.707-13.0859Q105.811-19.6777 109.106-28.2227Q112.402-36.7676 112.402-46.2402Q112.402-52.5879 110.913-58.4961Q109.424-64.4043 106.592-69.7021Q103.76-75 99.707-79.3945Q98.3398-80.957 96.5332-80.9814Q94.7266-81.0059 93.5547-79.6387Q92.3828-78.3203 92.6514-76.709Q92.9199-75.0977 94.2383-73.584Q99.1699-68.1152 101.807-61.1084Q104.443-54.1016 104.443-46.2402Q104.443-38.3789 101.807-31.3721Q99.1699-24.3652 94.2383-18.8965Q92.9199-17.3828 92.6514-15.7715Q92.3828-14.1602 93.5547-12.8418Z"/>
  </g>
  <g id="Light-M" transform="matrix(1 0 0 1 1094.66 1126)">
   <path d="M8.74023-46.3867Q8.74023-37.1094 12.085-28.7842Q15.4297-20.459 21.4844-14.1113Q22.5586-12.9395 23.9258-12.915Q25.293-12.8906 26.1719-13.916Q27.0508-14.9414 26.8555-16.1865Q26.6602-17.4316 25.6348-18.5547Q20.5078-24.0723 17.6758-31.2012Q14.8438-38.3301 14.8438-46.3867Q14.8438-54.4922 17.6758-61.6211Q20.5078-68.75 25.6348-74.2676Q26.6602-75.3906 26.8555-76.6357Q27.0508-77.8809 26.1719-78.9062Q25.293-79.9316 23.9258-79.9072Q22.5586-79.8828 21.4844-78.7109Q17.4316-74.4629 14.5996-69.3115Q11.7676-64.1602 10.2539-58.3984Q8.74023-52.6367 8.74023-46.3867ZM28.6621-46.3867Q28.6621-41.1621 30.4443-36.377Q32.2266-31.5918 35.4492-27.832Q36.4258-26.6113 37.8662-26.5869Q39.3066-26.5625 40.2344-27.6367Q41.1133-28.6133 40.8936-29.834Q40.6738-31.0547 39.7461-32.2754Q37.207-35.0098 35.9863-38.6719Q34.7656-42.334 34.7656-46.3867Q34.7656-50.4883 36.084-54.0527Q37.4023-57.6172 39.7461-60.5469Q40.625-61.7676 40.8691-62.9639Q41.1133-64.1602 40.2344-65.1855Q39.3066-66.2109 37.8662-66.2109Q36.4258-66.2109 35.4492-64.9414Q32.2266-61.1816 30.4443-56.4209Q28.6621-51.6602 28.6621-46.3867ZM50.7324-46.3867Q50.7324-43.9453 52.0752-42.0166Q53.418-40.0879 55.6152-39.2578L55.6152 5.81055Q55.6152 7.22656 56.4209 8.12988Q57.2266 9.0332 58.4961 9.0332Q59.8145 9.0332 60.5957 8.1543Q61.377 7.27539 61.377 5.81055L61.377-39.2578Q63.4766-40.0879 64.8438-42.0166Q66.2109-43.9453 66.2109-46.3867Q66.2109-48.584 65.1855-50.3418Q64.1602-52.0996 62.4023-53.1494Q60.6445-54.1992 58.4961-54.1992Q56.2988-54.1992 54.541-53.1494Q52.7832-52.0996 51.7578-50.3418Q50.7324-48.584 50.7324-46.3867ZM76.709-27.6367Q77.6367-26.5625 79.0771-26.5869Q80.5176-26.6113 81.4941-27.832Q84.7656-31.5918 86.5479-36.377Q88.3301-41.1621 88.3301-46.3867Q88.3301-51.6602 86.5479-56.4209Q84.7656-61.1816 81.4941-64.9414Q80.5176-66.2109 79.0771-66.2109Q77.6367-66.2109 76.709-65.1855Q75.8301-64.1602 76.0742-62.9639Q76.3184-61.7676 77.2461-60.5469Q79.5898-57.6172 80.9082-54.0527Q82.2266-50.4883 82.2266-46.3867Q82.2266-42.334 81.0059-38.6719Q79.7852-35.0098 77.2461-32.2754Q76.3184-31.0547 76.0742-29.834Q75.8301-28.6133 76.709-27.6367ZM90.7715-13.916Q91.6992-12.8906 93.0908-12.915Q94.4824-12.9395 95.5078-14.1113Q101.562-20.459 104.883-28.7842Q108.203-37.1094 108.203-46.3867Q108.203-52.6367 106.714-58.3984Q105.225-64.1602 102.368-69.3115Q99.5117-74.4629 95.5078-78.7109Q94.4824-79.8828 93.0908-79.9072Q91.6992-79.9316 90.7715-78.9062Q89.8926-77.8809 90.1123-76.6357Q90.332-75.3906 91.3086-74.2676Q96.4844-68.75 99.3164-61.6211Q102.148-54.4922 102.148-46.3867Q102.148-38.3301 99.3164-31.2012Q96.4844-24.0723 91.3086-18.5547Q90.332-17.4316 90.1123-16.1865Q89.8926-14.9414 90.7715-13.916Z"/>
  </g>
  <g id="Thin-M" transform="matrix(1 0 0 1 800.709 1126)">
   <path d="M8.74023-46.6309Q8.74023-37.5488 12.1338-29.5166Q15.5273-21.4844 21.4844-15.4297Q22.168-14.7461 22.9736-14.7705Q23.7793-14.7949 24.3164-15.3809Q24.8047-15.9668 24.6826-16.7236Q24.5605-17.4805 23.9746-18.0664Q18.5059-23.6816 15.4297-30.9814Q12.3535-38.2812 12.3535-46.6309Q12.3535-54.9805 15.4297-62.2803Q18.5059-69.5801 23.9746-75.1465Q24.5605-75.7812 24.6826-76.5381Q24.8047-77.2949 24.3164-77.8809Q23.7793-78.4668 22.9736-78.4668Q22.168-78.4668 21.4844-77.832Q17.5293-73.7793 14.6729-68.8232Q11.8164-63.8672 10.2783-58.2764Q8.74023-52.6855 8.74023-46.6309ZM27.7832-46.6309Q27.7832-41.5039 29.6143-36.9385Q31.4453-32.373 34.7656-28.8574Q35.3516-28.1738 36.2061-28.1738Q37.0605-28.1738 37.5977-28.8086Q38.0859-29.3945 37.9639-30.127Q37.8418-30.8594 37.2559-31.4941Q34.3262-34.2773 32.8613-38.2568Q31.3965-42.2363 31.3965-46.6309Q31.3965-51.0254 33.0078-54.834Q34.6191-58.6426 37.2559-61.7188Q37.793-62.4512 37.9395-63.1592Q38.0859-63.8672 37.5977-64.4531Q37.0605-65.0879 36.2061-65.0879Q35.3516-65.0879 34.7656-64.4043Q31.4453-60.8887 29.6143-56.3232Q27.7832-51.7578 27.7832-46.6309ZM49.3164-46.6309Q49.3164-44.4336 50.6104-42.749Q51.9043-41.0645 53.9551-40.4785L53.9551 6.10352Q53.9551 6.98242 54.4434 7.51953Q54.9316 8.05664 55.7617 8.05664Q56.543 8.05664 57.0068 7.51953Q57.4707 6.98242 57.4707 6.10352L57.4707-40.4785Q59.5215-41.0645 60.8154-42.749Q62.1094-44.4336 62.1094-46.6309Q62.1094-48.4375 61.2549-49.9023Q60.4004-51.3672 58.96-52.2217Q57.5195-53.0762 55.7617-53.0762Q53.9062-53.0762 52.4658-52.2217Q51.0254-51.3672 50.1709-49.9023Q49.3164-48.4375 49.3164-46.6309ZM73.8281-28.8086Q74.4141-28.1738 75.2441-28.1738Q76.0742-28.1738 76.6602-28.8574Q80.0293-32.373 81.8359-36.9385Q83.6426-41.5039 83.6426-46.6309Q83.6426-51.7578 81.8359-56.3232Q80.0293-60.8887 76.6602-64.4043Q76.0742-65.0879 75.2441-65.0879Q74.4141-65.0879 73.8281-64.4531Q73.3398-63.8672 73.4863-63.1592Q73.6328-62.4512 74.2188-61.7188Q76.8066-58.6426 78.418-54.834Q80.0293-51.0254 80.0293-46.6309Q80.0293-42.2363 78.5889-38.2568Q77.1484-34.2773 74.2188-31.4941Q73.584-30.8594 73.4619-30.127Q73.3398-29.3945 73.8281-28.8086ZM87.1094-15.3809Q87.6465-14.7949 88.501-14.7705Q89.3555-14.7461 89.9414-15.4297Q95.9473-21.4844 99.3164-29.5166Q102.686-37.5488 102.686-46.6309Q102.686-52.6855 101.172-58.2764Q99.6582-63.8672 96.7773-68.8232Q93.8965-73.7793 89.9414-77.832Q89.3555-78.4668 88.501-78.4668Q87.6465-78.4668 87.1094-77.8809Q86.6211-77.2949 86.7676-76.5381Q86.9141-75.7812 87.4512-75.1465Q92.9688-69.5801 96.0205-62.2803Q99.0723-54.9805 99.0723-46.6309Q99.0723-38.2812 96.0205-30.9814Q92.9688-23.6816 87.4512-18.0664Q86.9141-17.4805 86.7676-16.7236Q86.6211-15.9668 87.1094-15.3809Z"/>
  </g>
  <g id="Ultralight-M" transform="matrix(1 0 0 1 505.414 1126)">
   <path d="M8.74023-46.7285Q8.74023-37.7441 12.1826-29.8828Q15.625-22.0215 21.5332-16.1133Q21.9238-15.7227 22.4609-15.7227Q22.998-15.7227 23.3887-16.1133Q23.6816-16.4551 23.584-16.9922Q23.4863-17.5293 23.1445-17.8711Q17.5293-23.4375 14.3311-30.835Q11.1328-38.2324 11.1328-46.7285Q11.1328-55.2246 14.3311-62.6221Q17.5293-70.0195 23.1445-75.6348Q23.4863-75.9766 23.584-76.4893Q23.6816-77.002 23.3887-77.3926Q22.998-77.7344 22.4609-77.7344Q21.9238-77.7344 21.5332-77.3438Q17.5781-73.3887 14.7217-68.5547Q11.8652-63.7207 10.3027-58.2275Q8.74023-52.7344 8.74023-46.7285ZM27.3438-46.7285Q27.3438-41.6992 29.1992-37.207Q31.0547-32.7148 34.375-29.3457Q34.8145-29.0039 35.3516-28.9795Q35.8887-28.9551 36.2305-29.3945Q36.5723-29.7363 36.499-30.249Q36.4258-30.7617 36.0352-31.1523Q32.8125-33.9355 31.2744-38.0371Q29.7363-42.1387 29.7363-46.7285Q29.7363-51.3184 31.4697-55.2246Q33.2031-59.1309 36.0352-62.3535Q36.377-62.793 36.4746-63.2568Q36.5723-63.7207 36.2305-64.1113Q35.8887-64.502 35.3516-64.502Q34.8145-64.502 34.375-64.1113Q31.0547-60.7422 29.1992-56.2744Q27.3438-51.8066 27.3438-46.7285ZM48.584-46.7285Q48.584-44.6289 49.8535-43.0908Q51.123-41.5527 53.125-41.1133L53.125 6.25Q53.125 6.83594 53.4424 7.20215Q53.7598 7.56836 54.3457 7.56836Q54.834 7.56836 55.1758 7.20215Q55.5176 6.83594 55.5176 6.25L55.5176-41.1133Q57.4707-41.5527 58.7402-43.0908Q60.0098-44.6289 60.0098-46.7285Q60.0098-48.3398 59.2529-49.6582Q58.4961-50.9766 57.2021-51.7334Q55.9082-52.4902 54.3457-52.4902Q52.6855-52.4902 51.3916-51.7334Q50.0977-50.9766 49.3408-49.6582Q48.584-48.3398 48.584-46.7285ZM72.3633-29.3945Q72.7051-28.9551 73.2666-28.9795Q73.8281-29.0039 74.2188-29.3457Q77.6367-32.7148 79.4434-37.207Q81.25-41.6992 81.25-46.7285Q81.25-51.8066 79.4434-56.2744Q77.6367-60.7422 74.2188-64.1113Q73.8281-64.502 73.2666-64.502Q72.7051-64.502 72.3633-64.1113Q72.0703-63.7207 72.1436-63.2568Q72.2168-62.793 72.6562-62.3535Q75.4395-59.1309 77.1729-55.2246Q78.9062-51.3184 78.9062-46.7285Q78.9062-42.1387 77.3682-38.0371Q75.8301-33.9355 72.6562-31.1523Q72.2168-30.7617 72.1436-30.249Q72.0703-29.7363 72.3633-29.3945ZM85.2539-16.1133Q85.5957-15.7227 86.1572-15.7227Q86.7188-15.7227 87.0605-16.1133Q93.0664-22.0215 96.46-29.8828Q99.8535-37.7441 99.8535-46.7285Q99.8535-52.7344 98.3154-58.2275Q96.7773-63.7207 93.9209-68.5547Q91.0645-73.3887 87.0605-77.3438Q86.7188-77.7344 86.1572-77.7344Q85.5957-77.7344 85.2539-77.3926Q84.9121-77.002 85.0342-76.4893Q85.1562-75.9766 85.498-75.6348Q91.1133-70.0195 94.3115-62.6221Q97.5098-55.2246 97.5098-46.7285Q97.5098-38.2324 94.3115-30.835Q91.1133-23.4375 85.498-17.8711Q85.1562-17.5293 85.0342-16.9922Q84.9121-16.4551 85.2539-16.1133Z"/>
  </g>
  <g id="Black-S" transform="matrix(1 0 0 1 2878.91 696)">
   <path d="M6.83594-43.3105Q6.83594-35.1074 9.25293-27.7588Q11.6699-20.4102 16.5527-15.3809Q18.8965-12.9883 21.3379-13.1348Q23.7793-13.2812 25.293-15.1855Q26.709-16.8945 26.3428-18.8232Q25.9766-20.752 24.5117-22.3633Q21.0449-26.1719 19.2139-31.6406Q17.3828-37.1094 17.3828-43.3105Q17.3828-49.4629 19.2139-54.9316Q21.0449-60.4004 24.5117-64.209Q25.9766-65.8203 26.3428-67.749Q26.709-69.6777 25.293-71.3867Q23.7793-73.291 21.3379-73.4375Q18.8965-73.584 16.5527-71.1914Q12.0117-66.6016 9.42383-59.0332Q6.83594-51.4648 6.83594-43.3105ZM24.6094-43.3105Q24.6094-38.5742 25.8789-34.3262Q27.1484-30.0781 29.6387-27.4902Q31.7383-25.3906 34.2529-25.4395Q36.7676-25.4883 38.1348-27.3926Q39.3555-29.0527 39.1357-30.9082Q38.916-32.7637 37.7441-34.4238Q36.7676-35.8398 35.9619-38.4521Q35.1562-41.0645 35.1562-43.3105Q35.1562-45.6055 35.9619-48.2178Q36.7676-50.8301 37.7441-52.1973Q38.916-53.8574 39.1357-55.7129Q39.3555-57.5684 38.1348-59.2285Q36.7676-61.1328 34.2529-61.2061Q31.7383-61.2793 29.6387-59.1309Q27.1484-56.5918 25.8789-52.3438Q24.6094-48.0957 24.6094-43.3105ZM44.5801-43.3105Q44.5801-40.625 45.8984-38.4033Q47.2168-36.1816 49.3164-34.8633L49.3164-2.88086Q49.3164-0.341797 50.7812 1.29395Q52.2461 2.92969 54.4922 2.92969Q56.8848 2.92969 58.2764 1.36719Q59.668-0.195312 59.668-2.88086L59.668-34.8633Q61.8164-36.1816 63.1104-38.4033Q64.4043-40.625 64.4043-43.3105Q64.4043-47.4121 61.499-50.3174Q58.5938-53.2227 54.4922-53.2227Q50.3906-53.2227 47.4854-50.3174Q44.5801-47.4121 44.5801-43.3105ZM70.8496-27.3926Q72.2656-25.4883 74.7559-25.4395Q77.2461-25.3906 79.3457-27.4902Q81.8359-30.0781 83.1055-34.3262Q84.375-38.5742 84.375-43.3105Q84.375-48.0957 83.1055-52.3438Q81.8359-56.5918 79.3457-59.1309Q77.2461-61.2793 74.7559-61.2061Q72.2656-61.1328 70.8496-59.2285Q69.6289-57.5684 69.8486-55.7129Q70.0684-53.8574 71.2402-52.1973Q72.2168-50.8301 73.0225-48.2178Q73.8281-45.6055 73.8281-43.3105Q73.8281-41.0645 73.0225-38.4521Q72.2168-35.8398 71.2402-34.4238Q70.0684-32.7637 69.8486-30.9082Q69.6289-29.0527 70.8496-27.3926ZM83.6914-15.1855Q85.2539-13.2812 87.6709-13.1348Q90.0879-12.9883 92.4316-15.3809Q97.3633-20.4102 99.7559-27.7588Q102.148-35.1074 102.148-43.3105Q102.148-51.4648 99.585-59.0332Q97.0215-66.6016 92.4316-71.1914Q90.0879-73.584 87.6709-73.4375Q85.2539-73.291 83.6914-71.3867Q82.3242-69.6777 82.666-67.749Q83.0078-65.8203 84.4727-64.209Q87.9395-60.4004 89.7705-54.9316Q91.6016-49.4629 91.6016-43.3105Q91.6016-37.1094 89.7705-31.6406Q87.9395-26.1719 84.4727-22.3633Q83.0078-20.752 82.666-18.8232Q82.3242-16.8945 83.6914-15.1855Z"/>
  </g>
  <g id="Heavy-S" transform="matrix(1 0 0 1 2583.61 696)">
   <path d="M6.83594-43.4082Q6.83594-35.4004 9.27734-28.1738Q11.7188-20.9473 16.6016-15.8691Q18.7012-13.6719 20.9473-13.7939Q23.1934-13.916 24.6094-15.625Q25.9277-17.2363 25.5859-19.043Q25.2441-20.8496 23.8281-22.4121Q20.3125-26.3184 18.4326-31.7871Q16.5527-37.2559 16.5527-43.4082Q16.5527-49.5605 18.4326-55.0049Q20.3125-60.4492 23.8281-64.4043Q25.2441-65.918 25.5859-67.749Q25.9277-69.5801 24.6094-71.1426Q23.1934-72.9004 20.9473-72.998Q18.7012-73.0957 16.6016-70.9473Q12.0117-66.2109 9.42383-58.8135Q6.83594-51.416 6.83594-43.4082ZM24.2676-43.4082Q24.2676-38.7695 25.5615-34.6191Q26.8555-30.4688 29.3457-27.7344Q31.25-25.7812 33.5693-25.8057Q35.8887-25.8301 37.1582-27.5879Q38.3301-29.1016 38.1104-30.8594Q37.8906-32.6172 36.7188-34.2285Q35.6445-35.8398 34.8389-38.4277Q34.0332-41.0156 34.0332-43.4082Q34.0332-45.8496 34.8389-48.4619Q35.6445-51.0742 36.7188-52.5879Q37.8906-54.1992 38.1104-55.957Q38.3301-57.7148 37.1582-59.2773Q35.8887-60.9863 33.5693-61.0596Q31.25-61.1328 29.3457-59.1309Q26.8555-56.3965 25.5615-52.2461Q24.2676-48.0957 24.2676-43.4082ZM43.75-43.4082Q43.75-40.8691 45.0195-38.7451Q46.2891-36.6211 48.3398-35.4004L48.3398-2.97852Q48.3398-0.683594 49.6826 0.830078Q51.0254 2.34375 53.0762 2.34375Q55.2734 2.34375 56.543 0.90332Q57.8125-0.537109 57.8125-2.97852L57.8125-35.4004Q59.8633-36.6211 61.1084-38.7451Q62.3535-40.8691 62.3535-43.4082Q62.3535-47.2656 59.6436-50Q56.9336-52.7344 53.0762-52.7344Q49.2188-52.7344 46.4844-50Q43.75-47.2656 43.75-43.4082ZM68.9453-27.5879Q70.3125-25.8301 72.6074-25.8057Q74.9023-25.7812 76.7578-27.7344Q79.248-30.4688 80.542-34.6191Q81.8359-38.7695 81.8359-43.4082Q81.8359-48.0957 80.542-52.2461Q79.248-56.3965 76.7578-59.1309Q74.9023-61.1328 72.6074-61.0596Q70.3125-60.9863 68.9453-59.2773Q67.7734-57.7148 68.0176-55.957Q68.2617-54.1992 69.3848-52.5879Q70.5078-51.0742 71.3135-48.4619Q72.1191-45.8496 72.1191-43.4082Q72.1191-41.0156 71.3135-38.4277Q70.5078-35.8398 69.3848-34.2285Q68.2617-32.6172 68.0176-30.8594Q67.7734-29.1016 68.9453-27.5879ZM81.543-15.625Q83.0078-13.916 85.2295-13.7939Q87.4512-13.6719 89.5508-15.8691Q94.4336-20.9473 96.875-28.1738Q99.3164-35.4004 99.3164-43.4082Q99.3164-51.416 96.7529-58.8135Q94.1895-66.2109 89.5508-70.9473Q87.4512-73.0957 85.2295-72.998Q83.0078-72.9004 81.543-71.1426Q80.2734-69.5801 80.5908-67.749Q80.9082-65.918 82.2754-64.4043Q85.8398-60.4492 87.6953-55.0049Q89.5508-49.5605 89.5508-43.4082Q89.5508-37.2559 87.6953-31.7871Q85.8398-26.3184 82.2754-22.4121Q80.9082-20.8496 80.5908-19.043Q80.2734-17.2363 81.543-15.625Z"/>
  </g>
  <g id="Bold-S" transform="matrix(1 0 0 1 2288.49 696)">
   <path d="M6.83594-43.5547Q6.83594-35.6934 9.32617-28.6133Q11.8164-21.5332 16.6504-16.4062Q18.457-14.502 20.4834-14.5508Q22.5098-14.5996 23.8281-16.1621Q25.0488-17.627 24.7314-19.3115Q24.4141-20.9961 23.0957-22.5098Q19.5312-26.5137 17.6025-31.958Q15.6738-37.4023 15.6738-43.5547Q15.6738-49.6582 17.6025-55.1025Q19.5312-60.5469 23.0957-64.5996Q24.4141-66.0645 24.7314-67.749Q25.0488-69.4336 23.8281-70.8984Q22.5098-72.4609 20.4834-72.5342Q18.457-72.6074 16.6504-70.7031Q12.0117-65.7715 9.42383-58.5693Q6.83594-51.3672 6.83594-43.5547ZM23.9258-43.5547Q23.9258-39.0625 25.2441-34.9854Q26.5625-30.9082 29.0527-27.9785Q30.6641-26.2207 32.7637-26.2207Q34.8633-26.2207 36.1328-27.7832Q37.2559-29.1992 36.9873-30.835Q36.7188-32.4707 35.6445-34.0332Q34.375-35.791 33.5693-38.4033Q32.7637-41.0156 32.7637-43.5547Q32.7637-46.1426 33.5693-48.7305Q34.375-51.3184 35.6445-53.0762Q36.7188-54.6387 36.9873-56.2744Q37.2559-57.9102 36.1328-59.3262Q34.8633-60.8887 32.7637-60.9131Q30.6641-60.9375 29.0527-59.1309Q26.5625-56.25 25.2441-52.1729Q23.9258-48.0957 23.9258-43.5547ZM42.8711-43.5547Q42.8711-41.1133 44.0674-39.1357Q45.2637-37.1582 47.2168-36.0352L47.2168-3.125Q47.2168-1.02539 48.4131 0.317383Q49.6094 1.66016 51.4648 1.66016Q53.4668 1.66016 54.6143 0.341797Q55.7617-0.976562 55.7617-3.125L55.7617-36.0352Q57.7148-37.1582 58.9111-39.1602Q60.1074-41.1621 60.1074-43.5547Q60.1074-47.168 57.5928-49.6826Q55.0781-52.1973 51.4648-52.1973Q47.9004-52.1973 45.3857-49.6826Q42.8711-47.168 42.8711-43.5547ZM66.8457-27.7832Q68.1152-26.2207 70.2148-26.2207Q72.3145-26.2207 73.9258-27.9785Q76.416-30.9082 77.7344-34.9854Q79.0527-39.0625 79.0527-43.5547Q79.0527-48.0957 77.7344-52.1729Q76.416-56.25 73.9258-59.1309Q72.3145-60.9375 70.2148-60.9131Q68.1152-60.8887 66.8457-59.3262Q65.7227-57.9102 65.9912-56.2744Q66.2598-54.6387 67.334-53.0762Q68.6035-51.3184 69.4092-48.7305Q70.2148-46.1426 70.2148-43.5547Q70.2148-41.0156 69.4092-38.4033Q68.6035-35.791 67.334-34.0332Q66.2598-32.4707 65.9912-30.835Q65.7227-29.1992 66.8457-27.7832ZM79.1504-16.1621Q80.4688-14.5996 82.4951-14.5508Q84.5215-14.502 86.3281-16.4062Q91.1621-21.5332 93.6523-28.6133Q96.1426-35.6934 96.1426-43.5547Q96.1426-51.3672 93.5791-58.5693Q91.0156-65.7715 86.3281-70.7031Q84.5215-72.6074 82.4951-72.5342Q80.4688-72.4609 79.1504-70.8984Q77.9785-69.4336 78.2471-67.749Q78.5156-66.0645 79.8828-64.5996Q83.4473-60.5469 85.376-55.1025Q87.3047-49.6582 87.3047-43.5547Q87.3047-37.4023 85.376-31.958Q83.4473-26.5137 79.8828-22.5098Q78.5156-20.9961 78.2471-19.3115Q77.9785-17.627 79.1504-16.1621Z"/>
  </g>
  <g id="Semibold-S" transform="matrix(1 0 0 1 1992.88 696)">
   <path d="M6.83594-43.6523Q6.83594-35.8887 9.35059-28.9062Q11.8652-21.9238 16.6992-16.748Q18.3105-15.0391 20.1904-15.0635Q22.0703-15.0879 23.2422-16.5039Q24.4141-17.8711 24.1211-19.4824Q23.8281-21.0938 22.5586-22.5098Q18.9453-26.6602 16.9922-32.0801Q15.0391-37.5 15.0391-43.6523Q15.0391-49.707 16.9922-55.1514Q18.9453-60.5957 22.5586-64.6973Q23.8281-66.1621 24.1211-67.749Q24.4141-69.3359 23.2422-70.7031Q22.0703-72.168 20.1904-72.1924Q18.3105-72.2168 16.6992-70.5078Q11.9629-65.4297 9.39941-58.374Q6.83594-51.3184 6.83594-43.6523ZM23.6816-43.6523Q23.6816-39.209 25.0244-35.2051Q26.3672-31.2012 28.8086-28.1738Q30.2734-26.5137 32.2266-26.4893Q34.1797-26.4648 35.3516-27.9297Q36.4746-29.248 36.2061-30.8105Q35.9375-32.373 34.8633-33.8379Q33.4473-35.791 32.666-38.3789Q31.8848-40.9668 31.8848-43.6523Q31.8848-46.2891 32.6904-48.9014Q33.4961-51.5137 34.8633-53.418Q35.9375-54.8828 36.2061-56.4453Q36.4746-58.0078 35.3516-59.3262Q34.1797-60.7422 32.2266-60.7666Q30.2734-60.791 28.8086-59.082Q26.3672-56.1035 25.0244-52.0752Q23.6816-48.0469 23.6816-43.6523ZM42.2363-43.6523Q42.2363-41.3086 43.3838-39.4043Q44.5312-37.5 46.4355-36.4746L46.4355-3.22266Q46.4355-1.26953 47.5342-0.0244141Q48.6328 1.2207 50.3418 1.2207Q52.1973 1.2207 53.2471 0Q54.2969-1.2207 54.2969-3.22266L54.2969-36.4746Q56.2012-37.5 57.373-39.4043Q58.5449-41.3086 58.5449-43.6523Q58.5449-47.0215 56.1768-49.4141Q53.8086-51.8066 50.3418-51.8066Q46.9727-51.8066 44.6045-49.4141Q42.2363-47.0215 42.2363-43.6523ZM65.3809-27.9297Q66.5527-26.4648 68.5303-26.4893Q70.5078-26.5137 71.9238-28.1738Q74.4141-31.2012 75.7568-35.2051Q77.0996-39.209 77.0996-43.6523Q77.0996-48.0469 75.7568-52.0752Q74.4141-56.1035 71.9238-59.082Q70.5078-60.791 68.5303-60.7666Q66.5527-60.7422 65.3809-59.3262Q64.3066-58.0078 64.5752-56.4453Q64.8438-54.8828 65.918-53.418Q67.2363-51.5137 68.042-48.9014Q68.8477-46.2891 68.8477-43.6523Q68.8477-40.9668 68.0664-38.3789Q67.2852-35.791 65.918-33.8379Q64.8438-32.373 64.5752-30.8105Q64.3066-29.248 65.3809-27.9297ZM77.4902-16.5039Q78.7109-15.0879 80.5908-15.0635Q82.4707-15.0391 84.082-16.748Q88.916-21.9238 91.4307-28.9062Q93.9453-35.8887 93.9453-43.6523Q93.9453-51.3184 91.3818-58.374Q88.8184-65.4297 84.082-70.5078Q82.4707-72.2168 80.5908-72.1924Q78.7109-72.168 77.4902-70.7031Q76.3672-69.3359 76.6357-67.749Q76.9043-66.1621 78.1738-64.6973Q81.8359-60.5957 83.7646-55.1514Q85.6934-49.707 85.6934-43.6523Q85.6934-37.5 83.7646-32.0801Q81.8359-26.6602 78.1738-22.5098Q76.9043-21.0938 76.6357-19.4824Q76.3672-17.8711 77.4902-16.5039Z"/>
  </g>
  <g id="Medium-S" transform="matrix(1 0 0 1 1697.02 696)">
   <path d="M6.83594-43.7012Q6.83594-36.084 9.375-29.1748Q11.9141-22.2656 16.6992-17.041Q18.1641-15.4297 19.9219-15.4297Q21.6797-15.4297 22.8516-16.7969Q23.9258-18.1152 23.6816-19.6289Q23.4375-21.1426 22.168-22.5586Q18.5059-26.709 16.5527-32.1533Q14.5996-37.5977 14.5996-43.7012Q14.5996-49.8047 16.5527-55.2246Q18.5059-60.6445 22.168-64.7949Q23.4375-66.2109 23.6816-67.749Q23.9258-69.2871 22.8516-70.6055Q21.6797-71.9238 19.9219-71.9238Q18.1641-71.9238 16.6992-70.3613Q11.9629-65.1855 9.39941-58.252Q6.83594-51.3184 6.83594-43.7012ZM23.4863-43.7012Q23.4863-39.3555 24.8291-35.376Q26.1719-31.3965 28.6133-28.2715Q29.9805-26.709 31.8115-26.709Q33.6426-26.709 34.8145-28.0273Q35.8887-29.2969 35.5957-30.7861Q35.3027-32.2754 34.2773-33.7402Q32.8125-35.7422 32.0312-38.3545Q31.25-40.9668 31.25-43.7012Q31.25-46.4355 32.0557-49.0234Q32.8613-51.6113 34.2773-53.6621Q35.3027-55.0781 35.5957-56.5918Q35.8887-58.1055 34.8145-59.3262Q33.6426-60.6934 31.8115-60.7178Q29.9805-60.7422 28.6133-59.082Q26.1719-56.0059 24.8291-52.0264Q23.4863-48.0469 23.4863-43.7012ZM41.748-43.7012Q41.748-41.4062 42.8711-39.5996Q43.9941-37.793 45.8496-36.7676L45.8496-3.27148Q45.8496-1.46484 46.875-0.317383Q47.9004 0.830078 49.5117 0.830078Q51.2207 0.830078 52.2217-0.292969Q53.2227-1.41602 53.2227-3.27148L53.2227-36.7676Q55.0293-37.793 56.2012-39.624Q57.373-41.4551 57.373-43.7012Q57.373-46.9727 55.1025-49.2676Q52.832-51.5625 49.5117-51.5625Q46.2891-51.5625 44.0186-49.2676Q41.748-46.9727 41.748-43.7012ZM64.3066-28.0273Q65.4297-26.709 67.2852-26.709Q69.1406-26.709 70.4102-28.2715Q72.9004-31.3965 74.2432-35.376Q75.5859-39.3555 75.5859-43.7012Q75.5859-48.0469 74.2432-52.0264Q72.9004-56.0059 70.4102-59.082Q69.1406-60.7422 67.2852-60.7178Q65.4297-60.6934 64.3066-59.3262Q63.2324-58.1055 63.501-56.5918Q63.7695-55.0781 64.8438-53.6621Q66.2598-51.6113 67.0654-49.0234Q67.8711-46.4355 67.8711-43.7012Q67.8711-40.9668 67.0898-38.3545Q66.3086-35.7422 64.8438-33.7402Q63.7695-32.2754 63.501-30.7861Q63.2324-29.2969 64.3066-28.0273ZM76.2207-16.7969Q77.3926-15.4297 79.1504-15.4297Q80.9082-15.4297 82.373-17.041Q87.207-22.2656 89.7217-29.1748Q92.2363-36.084 92.2363-43.7012Q92.2363-51.3184 89.6729-58.252Q87.1094-65.1855 82.373-70.3613Q80.9082-71.9238 79.1504-71.9238Q77.3926-71.9238 76.2207-70.6055Q75.1465-69.2871 75.3906-67.749Q75.6348-66.2109 76.9043-64.7949Q80.5664-60.6445 82.5439-55.2246Q84.5215-49.8047 84.5215-43.7012Q84.5215-37.5977 82.5439-32.1533Q80.5664-26.709 76.9043-22.5586Q75.6348-21.1426 75.3906-19.6289Q75.1465-18.1152 76.2207-16.7969Z"/>
  </g>
  <g id="Regular-S" transform="matrix(1 0 0 1 1401.38 696)">
   <path d="M6.83594-43.7988Q6.83594-36.2793 9.39941-29.4678Q11.9629-22.6562 16.748-17.3828Q18.0176-15.9668 19.6289-15.9424Q21.2402-15.918 22.3145-17.1387Q23.3398-18.3594 23.0957-19.7998Q22.8516-21.2402 21.6797-22.6074Q17.9688-26.8555 15.9668-32.2754Q13.9648-37.6953 13.9648-43.7988Q13.9648-49.8535 15.9668-55.2734Q17.9688-60.6934 21.6797-64.9414Q22.8516-66.3086 23.0957-67.749Q23.3398-69.1895 22.3145-70.4102Q21.2402-71.6309 19.6289-71.6064Q18.0176-71.582 16.748-70.166Q11.9629-64.8926 9.39941-58.0811Q6.83594-51.2695 6.83594-43.7988ZM23.2422-43.7988Q23.2422-39.502 24.6094-35.5957Q25.9766-31.6895 28.418-28.4668Q29.5898-27.002 31.2744-26.9775Q32.959-26.9531 34.082-28.1738Q35.1074-29.3457 34.8145-30.7617Q34.5215-32.1777 33.4961-33.5938Q31.9336-35.7422 31.1523-38.3301Q30.3711-40.918 30.3711-43.7988Q30.3711-46.6309 31.1768-49.2188Q31.9824-51.8066 33.4961-53.9551Q34.5215-55.3711 34.8145-56.7871Q35.1074-58.2031 34.082-59.375Q32.959-60.5957 31.2744-60.5957Q29.5898-60.5957 28.418-59.082Q25.9766-55.8594 24.6094-51.9531Q23.2422-48.0469 23.2422-43.7988ZM41.1133-43.7988Q41.1133-41.6016 42.2119-39.8682Q43.3105-38.1348 45.1172-37.207L45.1172-3.36914Q45.1172-1.70898 46.0449-0.65918Q46.9727 0.390625 48.4375 0.390625Q50 0.390625 50.9033-0.65918Q51.8066-1.70898 51.8066-3.36914L51.8066-37.207Q53.5645-38.1348 54.6875-39.8926Q55.8105-41.6504 55.8105-43.7988Q55.8105-46.875 53.6865-49.0234Q51.5625-51.1719 48.4375-51.1719Q45.3613-51.1719 43.2373-49.0234Q41.1133-46.875 41.1133-43.7988ZM62.8418-28.1738Q63.916-26.9531 65.625-26.9775Q67.334-27.002 68.457-28.4668Q70.9473-31.6895 72.3145-35.5957Q73.6816-39.502 73.6816-43.7988Q73.6816-48.0469 72.3145-51.9531Q70.9473-55.8594 68.457-59.082Q67.334-60.5957 65.625-60.5957Q63.916-60.5957 62.8418-59.375Q61.8164-58.2031 62.1094-56.7871Q62.4023-55.3711 63.4277-53.9551Q64.9414-51.8066 65.7471-49.2188Q66.5527-46.6309 66.5527-43.7988Q66.5527-40.918 65.7715-38.3301Q64.9902-35.7422 63.4277-33.5938Q62.4023-32.1777 62.1094-30.7617Q61.8164-29.3457 62.8418-28.1738ZM74.6094-17.1387Q75.6836-15.918 77.2949-15.9424Q78.9062-15.9668 80.1758-17.3828Q84.9609-22.6562 87.5244-29.4678Q90.0879-36.2793 90.0879-43.7988Q90.0879-51.2695 87.5244-58.0811Q84.9609-64.8926 80.1758-70.166Q78.9062-71.582 77.2949-71.6064Q75.6836-71.6309 74.6094-70.4102Q73.584-69.1895 73.8037-67.749Q74.0234-66.3086 75.2441-64.9414Q78.9551-60.6934 80.957-55.2734Q82.959-49.8535 82.959-43.7988Q82.959-37.6953 80.957-32.2754Q78.9551-26.8555 75.2441-22.6074Q74.0234-21.2402 73.8037-19.7998Q73.584-18.3594 74.6094-17.1387Z"/>
  </g>
  <g id="Light-S" transform="matrix(1 0 0 1 1106.53 696)">
   <path d="M6.83594-43.9453Q6.83594-36.5723 9.44824-29.9561Q12.0605-23.3398 16.7969-18.2617Q17.7246-17.1875 18.9941-17.1875Q20.2637-17.1875 21.0449-18.1152Q21.8262-19.043 21.6309-20.166Q21.4355-21.2891 20.5566-22.3145Q16.6504-26.6113 14.502-32.1289Q12.3535-37.6465 12.3535-43.9453Q12.3535-50.1953 14.502-55.7129Q16.6504-61.2305 20.5566-65.5273Q21.4355-66.5527 21.6309-67.6758Q21.8262-68.7988 21.0449-69.7266Q20.2637-70.6543 18.9941-70.6299Q17.7246-70.6055 16.7969-69.5801Q12.0605-64.502 9.44824-57.8857Q6.83594-51.2695 6.83594-43.9453ZM22.6562-43.9453Q22.6562-39.7461 24.0479-35.9619Q25.4395-32.1777 27.9297-29.1504Q28.8574-28.0273 30.1514-28.0273Q31.4453-28.0273 32.2754-28.9551Q33.0566-29.834 32.8613-30.9326Q32.666-32.0312 31.8359-33.1055Q29.9805-35.2539 29.0771-38.0371Q28.1738-40.8203 28.1738-43.9453Q28.1738-47.0215 29.1504-49.7559Q30.127-52.4902 31.8359-54.7363Q32.6172-55.8105 32.8369-56.9092Q33.0566-58.0078 32.2754-58.8867Q31.4453-59.8633 30.1514-59.8633Q28.8574-59.8633 27.9297-58.6914Q25.4395-55.6641 24.0479-51.8799Q22.6562-48.0957 22.6562-43.9453ZM40.1367-43.9453Q40.1367-41.9434 41.2109-40.3564Q42.2852-38.7695 43.9941-38.0371L43.9941-3.17383Q43.9941-1.85547 44.7266-1.0498Q45.459-0.244141 46.582-0.244141Q47.8027-0.244141 48.5107-1.07422Q49.2188-1.9043 49.2188-3.17383L49.2188-38.0371Q50.8789-38.7695 51.9775-40.3564Q53.0762-41.9434 53.0762-43.9453Q53.0762-46.6309 51.1963-48.5352Q49.3164-50.4395 46.582-50.4395Q43.8965-50.4395 42.0166-48.5352Q40.1367-46.6309 40.1367-43.9453ZM60.9375-28.9551Q61.7676-28.0273 63.0615-28.0273Q64.3555-28.0273 65.2344-29.1504Q67.7734-32.1777 69.165-35.9619Q70.5566-39.7461 70.5566-43.9453Q70.5566-48.0957 69.165-51.8799Q67.7734-55.6641 65.2344-58.6914Q64.3555-59.8633 63.0615-59.8633Q61.7676-59.8633 60.9375-58.8867Q60.1562-58.0078 60.376-56.9092Q60.5957-55.8105 61.377-54.7363Q63.0859-52.4902 64.0869-49.7559Q65.0879-47.0215 65.0879-43.9453Q65.0879-40.8203 64.1602-38.0371Q63.2324-35.2539 61.377-33.1055Q60.5957-32.0312 60.376-30.9326Q60.1562-29.834 60.9375-28.9551ZM72.168-18.1152Q72.998-17.1875 74.2432-17.1875Q75.4883-17.1875 76.4648-18.2617Q81.2012-23.3398 83.7891-29.9561Q86.377-36.5723 86.377-43.9453Q86.377-51.2695 83.7891-57.8857Q81.2012-64.502 76.4648-69.5801Q75.4883-70.6055 74.2432-70.6299Q72.998-70.6543 72.168-69.7266Q71.3867-68.7988 71.5576-67.6758Q71.7285-66.5527 72.6562-65.5273Q76.6113-61.2305 78.7598-55.7129Q80.9082-50.1953 80.9082-43.9453Q80.9082-37.6465 78.7598-32.1289Q76.6113-26.6113 72.6562-22.3145Q71.7285-21.2891 71.5576-20.166Q71.3867-19.043 72.168-18.1152Z"/>
  </g>
  <g id="Thin-S" transform="matrix(1 0 0 1 812.257 696)">
   <path d="M6.83594-44.0918Q6.83594-36.9629 9.49707-30.6152Q12.1582-24.2676 16.7969-19.4336Q17.3828-18.8477 18.1396-18.8477Q18.8965-18.8477 19.3848-19.3848Q19.873-19.9219 19.751-20.6055Q19.6289-21.2891 19.0918-21.9238Q14.8926-26.2695 12.5244-31.9336Q10.1562-37.5977 10.1562-44.0918Q10.1562-50.6348 12.5244-56.3232Q14.8926-62.0117 19.0918-66.3574Q19.6289-66.8945 19.751-67.5781Q19.873-68.2617 19.3848-68.8477Q18.8965-69.3848 18.1396-69.3848Q17.3828-69.3848 16.7969-68.75Q12.1582-63.9648 9.49707-57.6172Q6.83594-51.2695 6.83594-44.0918ZM21.9238-44.0918Q21.9238-40.0879 23.3398-36.4746Q24.7559-32.8613 27.3438-30.0293Q27.8809-29.4434 28.6621-29.4189Q29.4434-29.3945 29.9316-29.9805Q30.4199-30.5176 30.2979-31.2012Q30.1758-31.8848 29.6875-32.4219Q27.3926-34.6191 26.3184-37.6709Q25.2441-40.7227 25.2441-44.0918Q25.2441-47.5098 26.4404-50.4395Q27.6367-53.3691 29.6875-55.7617Q30.127-56.3965 30.2734-57.0801Q30.4199-57.7637 29.9316-58.252Q29.4434-58.8379 28.6621-58.8379Q27.8809-58.8379 27.3438-58.1543Q24.7559-55.4199 23.3398-51.7822Q21.9238-48.1445 21.9238-44.0918ZM38.916-44.0918Q38.916-42.334 39.9414-40.9668Q40.9668-39.5996 42.5293-39.1113L42.5293-2.92969Q42.5293-2.09961 42.9932-1.61133Q43.457-1.12305 44.1406-1.12305Q44.9219-1.12305 45.3369-1.63574Q45.752-2.14844 45.752-2.92969L45.752-39.1113Q47.3633-39.5996 48.4131-40.9668Q49.4629-42.334 49.4629-44.0918Q49.4629-46.3379 47.9248-47.876Q46.3867-49.4141 44.1406-49.4141Q41.9434-49.4141 40.4297-47.876Q38.916-46.3379 38.916-44.0918ZM58.3984-29.9805Q58.8867-29.3945 59.668-29.4189Q60.4492-29.4434 60.9863-30.0293Q63.5742-32.8613 65.0146-36.4746Q66.4551-40.0879 66.4551-44.0918Q66.4551-48.1445 65.0146-51.7822Q63.5742-55.4199 60.9863-58.1543Q60.4492-58.8379 59.668-58.8379Q58.8867-58.8379 58.3984-58.252Q57.9102-57.7637 58.0566-57.0801Q58.2031-56.3965 58.6914-55.7617Q60.6934-53.3691 61.8896-50.4395Q63.0859-47.5098 63.0859-44.0918Q63.0859-40.7227 62.0117-37.6709Q60.9375-34.6191 58.6914-32.4219Q58.2031-31.8848 58.0566-31.2012Q57.9102-30.5176 58.3984-29.9805ZM68.8965-19.3848Q69.4336-18.8477 70.1904-18.8477Q70.9473-18.8477 71.5332-19.4336Q76.2207-24.2676 78.8574-30.6152Q81.4941-36.9629 81.4941-44.0918Q81.4941-51.2695 78.8574-57.6172Q76.2207-63.9648 71.5332-68.75Q70.9473-69.3848 70.1904-69.3848Q69.4336-69.3848 68.8965-68.8477Q68.5059-68.2617 68.6035-67.5781Q68.7012-66.8945 69.2383-66.3574Q73.4863-62.0117 75.8301-56.3232Q78.1738-50.6348 78.1738-44.0918Q78.1738-37.5977 75.8301-31.9336Q73.4863-26.2695 69.2383-21.9238Q68.7012-21.2891 68.6035-20.6055Q68.5059-19.9219 68.8965-19.3848Z"/>
  </g>
  <g id="Ultralight-S" transform="matrix(1 0 0 1 516.791 696)">
   <path d="M6.83594-44.1895Q6.83594-37.1582 9.52148-30.957Q12.207-24.7559 16.8457-20.0684Q17.1875-19.6777 17.7246-19.6777Q18.2617-19.6777 18.5547-20.0684Q18.8477-20.4102 18.75-20.874Q18.6523-21.3379 18.3105-21.6797Q13.9648-26.0742 11.5234-31.8115Q9.08203-37.5488 9.08203-44.1895Q9.08203-50.8301 11.5234-56.5918Q13.9648-62.3535 18.3105-66.748Q18.6523-67.0898 18.75-67.5537Q18.8477-68.0176 18.5547-68.3594Q18.2617-68.7012 17.7246-68.7012Q17.1875-68.7012 16.8457-68.3594Q12.207-63.6719 9.52148-57.4707Q6.83594-51.2695 6.83594-44.1895ZM21.5332-44.1895Q21.5332-40.2344 22.9492-36.7188Q24.3652-33.2031 27.002-30.5176Q27.3926-30.127 27.9053-30.127Q28.418-30.127 28.7109-30.4688Q29.0039-30.8594 28.9551-31.3232Q28.9062-31.7871 28.5645-32.0801Q26.0742-34.2773 24.9023-37.4512Q23.7305-40.625 23.7305-44.1895Q23.7305-47.7539 25.0488-50.8057Q26.3672-53.8574 28.5645-56.2988Q28.8574-56.6895 28.9307-57.1533Q29.0039-57.6172 28.7109-57.9102Q28.418-58.3496 27.9053-58.3496Q27.3926-58.3496 27.002-57.9102Q24.3652-55.2734 22.9492-51.7334Q21.5332-48.1934 21.5332-44.1895ZM38.2324-44.1895Q38.2324-42.5781 39.2578-41.3086Q40.2832-40.0391 41.7969-39.6484L41.7969-2.7832Q41.7969-2.19727 42.1143-1.87988Q42.4316-1.5625 42.9199-1.5625Q43.4082-1.5625 43.7012-1.9043Q43.9941-2.24609 43.9941-2.7832L43.9941-39.6484Q45.5566-40.0391 46.582-41.3086Q47.6074-42.5781 47.6074-44.1895Q47.6074-46.1914 46.2402-47.5586Q44.873-48.9258 42.9199-48.9258Q40.9668-48.9258 39.5996-47.5586Q38.2324-46.1914 38.2324-44.1895ZM57.0801-30.4688Q57.4219-30.127 57.9346-30.127Q58.4473-30.127 58.7891-30.5176Q61.4258-33.2031 62.8662-36.7188Q64.3066-40.2344 64.3066-44.1895Q64.3066-48.1934 62.8662-51.7334Q61.4258-55.2734 58.7891-57.9102Q58.4473-58.3496 57.9346-58.3496Q57.4219-58.3496 57.0801-57.9102Q56.7871-57.6172 56.8604-57.1533Q56.9336-56.6895 57.2754-56.2988Q59.4238-53.8574 60.7666-50.8057Q62.1094-47.7539 62.1094-44.1895Q62.1094-40.625 60.9375-37.4512Q59.7656-34.2773 57.2754-32.0801Q56.9336-31.7871 56.8604-31.3232Q56.7871-30.8594 57.0801-30.4688ZM67.2363-20.0684Q67.5781-19.6777 68.0908-19.6777Q68.6035-19.6777 68.9941-20.0684Q73.6328-24.7559 76.3184-30.957Q79.0039-37.1582 79.0039-44.1895Q79.0039-51.2695 76.3184-57.4707Q73.6328-63.6719 68.9941-68.3594Q68.6035-68.7012 68.0908-68.7012Q67.5781-68.7012 67.2363-68.3594Q66.9922-68.0176 67.0898-67.5537Q67.1875-67.0898 67.4805-66.748Q71.875-62.3535 74.3408-56.5918Q76.8066-50.8301 76.8066-44.1895Q76.8066-37.5488 74.3408-31.8115Q71.875-26.0742 67.4805-21.6797Q67.1875-21.3379 67.0898-20.874Q66.9922-20.4102 67.2363-20.0684Z"/>
  </g>
 </g>
</svg>
